{"glyphs":{"0":{"ha":800,"x_min":64,"x_max":785,"o":"m 64 276 q 81 458 64 365 q 131 638 97 551 q 218 792 165 724 q 343 900 271 860 q 508 940 415 940 q 717 866 649 940 q 785 647 785 792 q 768 465 785 558 q 717 286 751 372 q 631 132 683 200 q 506 24 578 64 q 340 -17 433 -17 q 132 58 200 -17 q 64 276 64 133 m 614 654 q 585 762 614 728 q 497 796 556 796 q 399 758 442 796 q 325 660 356 721 q 274 528 294 599 q 244 389 254 457 q 235 269 235 321 q 264 162 235 196 q 353 128 293 128 q 451 165 408 128 q 524 263 493 203 q 574 394 554 324 q 604 534 594 465 q 614 654 614 603 z "},"1":{"ha":800,"x_min":263,"x_max":688,"o":"m 294 857 l 554 924 l 688 924 l 490 0 l 325 0 l 486 764 l 263 706 l 294 857 z "},"2":{"ha":800,"x_min":19,"x_max":760,"o":"m 221 764 l 232 908 q 339 931 274 922 q 472 940 404 940 q 619 919 554 940 q 722 851 683 897 q 760 732 760 806 q 750 648 760 689 q 712 561 740 607 q 631 458 683 515 q 492 323 578 400 q 281 143 407 246 l 653 143 l 624 0 l 19 0 l 49 136 q 260 312 172 236 q 406 444 347 388 q 499 541 464 500 q 551 613 535 582 q 574 667 568 643 q 579 711 579 690 q 542 776 579 757 q 440 796 506 796 q 323 785 385 796 q 221 764 261 775 z "},"3":{"ha":800,"x_min":21,"x_max":796,"o":"m 236 924 l 796 924 l 768 794 l 481 540 q 635 485 576 535 q 693 325 693 436 q 643 140 693 217 q 501 24 593 64 q 283 -17 408 -17 q 138 -7 203 -17 q 21 18 74 3 l 65 161 q 177 137 121 146 q 294 128 233 128 q 407 148 357 128 q 486 210 457 168 q 515 317 515 251 q 496 376 515 354 q 440 408 476 399 q 356 418 404 418 l 258 418 l 282 535 l 557 783 l 207 783 l 236 924 z "},"4":{"ha":800,"x_min":8,"x_max":776,"o":"m 557 924 l 776 924 l 651 335 l 756 335 l 722 192 l 619 192 l 581 0 l 419 0 l 458 192 l 8 192 l 38 324 l 557 924 m 207 310 l 132 335 l 490 335 l 593 818 l 615 782 l 207 310 z "},"5":{"ha":800,"x_min":33,"x_max":781,"o":"m 781 924 l 750 778 l 393 778 l 331 557 q 361 563 342 560 q 403 565 381 565 q 563 541 499 565 q 658 467 626 517 q 690 336 690 417 q 645 147 690 226 q 511 26 600 68 q 290 -17 422 -17 q 151 -8 215 -17 q 33 17 88 0 l 76 160 q 189 135 136 143 q 296 128 242 128 q 456 176 399 128 q 513 314 513 224 q 494 379 513 356 q 441 413 476 403 q 354 422 406 422 q 305 420 333 422 q 242 415 276 418 q 167 404 207 411 l 142 438 l 283 924 l 781 924 z "},"6":{"ha":800,"x_min":78,"x_max":808,"o":"m 233 389 l 264 533 q 365 567 308 553 q 476 581 421 581 q 663 525 600 581 q 726 367 726 469 q 682 170 726 257 q 556 33 638 83 q 361 -17 475 -17 q 151 57 224 -17 q 78 292 78 131 q 95 476 78 383 q 149 651 113 568 q 244 800 186 735 q 386 903 303 865 q 579 940 469 940 q 658 937 617 940 q 740 928 700 933 q 808 915 779 922 l 761 774 q 669 790 718 785 q 578 796 619 796 q 418 750 482 796 q 315 629 354 704 q 260 465 276 554 q 243 289 243 376 q 273 169 243 208 q 375 129 303 129 q 472 156 431 129 q 535 230 513 183 q 558 335 558 276 q 528 411 558 386 q 436 436 497 436 q 335 422 389 436 q 233 389 281 408 z "},"7":{"ha":800,"x_min":88,"x_max":832,"o":"m 211 924 l 832 924 l 806 796 l 281 0 l 88 0 l 610 778 l 181 778 l 211 924 z "},"8":{"ha":800,"x_min":38,"x_max":790,"o":"m 414 413 q 263 360 317 413 q 210 222 210 307 q 351 121 210 121 q 502 172 449 121 q 556 306 556 222 q 414 413 556 413 m 615 469 q 694 404 668 447 q 721 301 721 361 q 676 131 721 203 q 546 22 632 60 q 335 -17 460 -17 q 114 40 190 -17 q 38 197 38 96 q 62 322 38 267 q 132 418 86 378 q 240 481 178 458 q 178 537 201 499 q 154 629 154 575 q 246 858 154 775 q 514 940 338 940 q 719 887 647 940 q 790 738 790 833 q 742 569 790 640 q 615 469 693 499 m 499 806 q 367 760 414 806 q 321 635 321 714 q 440 538 321 538 q 571 588 522 538 q 619 715 619 639 q 499 806 619 806 z "},"9":{"ha":800,"x_min":39,"x_max":769,"o":"m 614 533 l 583 389 q 483 356 540 371 q 371 342 426 342 q 185 397 249 342 q 121 556 121 453 q 165 753 121 667 q 292 890 210 840 q 486 940 374 940 q 697 867 624 940 q 769 631 769 793 q 752 447 769 539 q 698 271 735 354 q 603 123 661 188 q 461 21 544 58 q 268 -17 378 -17 q 190 -14 232 -17 q 108 -6 147 -11 q 39 7 68 0 l 86 150 q 179 134 131 140 q 269 128 228 128 q 429 174 365 128 q 532 294 493 219 q 588 458 571 368 q 604 635 604 547 q 575 755 604 715 q 472 794 546 794 q 376 767 418 794 q 312 694 335 740 q 289 588 289 647 q 319 512 289 538 q 411 486 350 486 q 513 500 460 486 q 614 533 567 514 z "},"\u0000":{"ha":0,"x_min":0,"x_max":0,"o":""},"\r":{"ha":374,"x_min":0,"x_max":0,"o":""}," ":{"ha":329,"x_min":0,"x_max":0,"o":""}," ":{"ha":329,"x_min":0,"x_max":0,"o":""},"A":{"ha":885,"x_min":18,"x_max":864,"o":"m 258 321 l 190 0 l 18 0 l 146 600 q 217 783 168 707 q 347 899 265 858 q 550 940 429 940 q 715 914 650 940 q 815 841 781 888 q 857 732 850 794 q 849 597 864 669 l 719 0 l 544 0 l 614 321 l 258 321 m 289 460 l 644 460 l 676 613 q 665 747 694 699 q 539 796 636 796 q 322 613 363 796 l 289 460 z "},"B":{"ha":842,"x_min":35,"x_max":824,"o":"m 290 400 l 232 128 q 292 120 258 122 q 364 118 325 118 q 485 138 439 118 q 554 198 532 158 q 576 294 576 238 q 542 372 576 343 q 435 400 508 400 l 290 400 m 375 792 l 318 532 l 461 532 q 592 573 539 532 q 644 703 644 614 q 613 769 644 747 q 514 792 582 792 l 375 792 m 231 924 l 529 924 q 743 876 665 924 q 822 725 821 828 q 769 557 824 619 q 629 469 714 494 q 726 412 686 456 q 767 296 767 368 q 735 153 767 213 q 647 57 703 94 q 517 1 590 19 q 361 -17 444 -17 q 205 -8 289 -17 q 35 21 121 0 l 231 924 z "},"C":{"ha":760,"x_min":75,"x_max":806,"o":"m 806 914 l 769 767 q 686 786 732 778 q 583 794 640 794 q 440 756 501 794 q 337 651 378 718 q 275 494 296 583 q 254 303 254 406 q 293 172 254 214 q 431 131 332 131 q 541 142 486 131 q 636 163 596 153 l 621 18 q 517 -6 578 4 q 400 -17 457 -17 q 157 65 239 -17 q 75 301 75 147 q 106 547 75 432 q 201 751 138 663 q 360 890 264 839 q 588 940 457 940 q 713 931 658 940 q 806 914 767 922 z "},"D":{"ha":901,"x_min":35,"x_max":876,"o":"m 231 924 l 526 924 q 784 841 692 924 q 876 601 876 758 q 859 431 876 518 q 803 265 842 344 q 704 121 765 185 q 556 20 643 57 q 354 -17 469 -17 q 203 -8 286 -17 q 35 19 119 0 l 231 924 m 375 783 l 233 139 q 297 131 260 133 q 367 128 333 128 q 520 172 457 128 q 622 288 583 217 q 680 442 661 358 q 699 601 699 525 q 650 742 699 700 q 506 783 601 783 l 375 783 z "},"E":{"ha":721,"x_min":58,"x_max":768,"o":"m 221 924 l 768 924 l 738 783 l 365 783 l 314 543 l 657 543 l 626 401 l 283 401 l 250 243 q 265 165 239 189 q 349 142 290 142 l 619 142 l 590 0 l 315 0 q 165 25 225 0 q 82 104 106 50 q 76 246 58 158 l 221 924 z "},"F":{"ha":711,"x_min":32,"x_max":788,"o":"m 228 924 l 788 924 l 758 783 l 374 783 l 317 524 l 653 524 l 625 382 l 288 382 l 206 0 l 32 0 l 228 924 z "},"G":{"ha":869,"x_min":75,"x_max":881,"o":"m 881 913 l 849 768 q 744 787 806 779 q 618 794 682 794 q 452 756 521 794 q 340 652 383 718 q 276 500 296 586 q 256 318 256 414 q 298 170 256 213 q 433 128 340 128 q 508 131 472 128 q 578 143 544 135 l 628 379 l 454 379 l 483 517 l 822 517 l 718 35 q 581 -1 661 15 q 424 -17 501 -17 q 236 17 314 -17 q 117 125 158 51 q 75 317 75 199 q 111 563 75 450 q 217 761 147 676 q 387 893 286 846 q 617 940 488 940 q 760 933 694 940 q 881 913 825 926 z "},"H":{"ha":953,"x_min":33,"x_max":968,"o":"m 229 924 l 403 924 l 324 549 l 715 549 l 794 924 l 968 924 l 772 0 l 599 0 l 683 401 l 292 401 l 207 0 l 33 0 l 229 924 z "},"I":{"ha":381,"x_min":29,"x_max":399,"o":"m 225 924 l 399 924 l 203 0 l 29 0 l 225 924 z "},"J":{"ha":385,"x_min":-185,"x_max":401,"o":"m 226 924 l 401 924 l 229 114 q 190 -4 215 47 q 125 -99 165 -56 q 26 -185 85 -143 q -114 -274 -32 -228 l -185 -153 q -47 -53 -96 -96 q 25 33 1 -11 q 60 136 49 76 l 226 924 z "},"K":{"ha":879,"x_min":26,"x_max":958,"o":"m 222 924 l 397 924 l 303 478 l 758 924 l 958 924 l 553 531 q 633 485 601 515 q 687 402 665 456 q 722 260 708 349 l 763 0 l 582 0 l 550 214 q 524 328 540 288 q 481 388 507 369 q 415 411 456 407 l 257 264 l 200 0 l 26 0 l 222 924 z "},"L":{"ha":682,"x_min":32,"x_max":596,"o":"m 229 924 l 403 924 l 236 142 l 596 142 l 567 0 l 32 0 l 229 924 z "},"M":{"ha":1136,"x_min":26,"x_max":1157,"o":"m 613 269 l 489 269 l 340 647 l 200 0 l 26 0 l 222 924 l 393 924 l 578 454 l 975 924 l 1157 924 l 961 0 l 786 0 l 925 647 l 613 269 z "},"N":{"ha":960,"x_min":32,"x_max":976,"o":"m 229 924 l 361 924 l 694 388 l 806 924 l 976 924 l 781 0 l 610 0 l 647 181 l 343 671 l 201 0 l 32 0 l 229 924 z "},"O":{"ha":933,"x_min":83,"x_max":903,"o":"m 579 940 q 819 860 735 940 q 903 613 903 779 q 872 379 903 492 q 778 177 840 267 q 622 35 715 88 q 406 -17 529 -17 q 167 63 250 -17 q 83 311 83 143 q 115 544 83 432 q 208 747 146 657 q 364 888 271 836 q 579 940 457 940 m 419 129 q 544 171 489 129 q 640 282 600 213 q 700 437 679 351 q 721 610 721 522 q 683 753 721 713 q 567 794 644 794 q 440 753 496 794 q 346 642 385 711 q 286 487 307 572 q 265 314 265 401 q 304 170 265 211 q 419 129 343 129 z "},"P":{"ha":801,"x_min":31,"x_max":815,"o":"m 374 783 l 306 472 q 366 465 335 467 q 428 463 397 463 q 519 476 479 463 q 585 517 558 490 q 626 581 613 543 q 640 664 640 618 q 624 737 642 711 q 574 773 607 763 q 490 783 540 783 l 374 783 m 229 924 l 510 924 q 676 900 608 924 q 780 822 744 876 q 815 672 815 767 q 768 489 815 568 q 633 365 721 410 q 422 319 546 319 q 349 322 386 319 q 275 331 313 325 l 204 0 l 31 0 l 229 924 z "},"Q":{"ha":933,"x_min":83,"x_max":903,"o":"m 276 -203 l 304 -74 q 414 -91 354 -74 q 533 -126 474 -108 q 638 -143 593 -143 q 697 -132 671 -143 q 747 -101 722 -121 l 789 -219 q 713 -265 757 -250 q 613 -281 669 -281 q 524 -269 569 -281 q 434 -242 478 -257 q 350 -215 390 -226 q 276 -203 310 -203 m 579 940 q 819 860 735 940 q 903 613 903 779 q 872 379 903 492 q 778 177 840 267 q 622 35 715 88 q 406 -17 529 -17 q 167 63 250 -17 q 83 311 83 143 q 115 544 83 432 q 208 747 146 657 q 364 888 271 836 q 579 940 457 940 m 419 129 q 544 171 489 129 q 640 282 600 213 q 700 437 679 351 q 721 610 721 522 q 683 753 721 713 q 567 794 644 794 q 440 753 496 794 q 346 642 385 711 q 286 487 307 572 q 265 314 265 401 q 304 170 265 211 q 419 129 343 129 z "},"R":{"ha":836,"x_min":32,"x_max":817,"o":"m 228 924 l 518 924 q 741 869 665 924 q 817 692 817 814 q 788 556 817 617 q 709 456 758 496 q 597 399 660 415 q 659 344 636 383 q 692 231 682 306 l 719 0 l 544 0 l 522 193 q 502 282 515 250 q 462 327 489 314 q 386 340 435 340 l 278 340 l 206 0 l 32 0 l 228 924 m 644 676 q 609 759 644 735 q 501 783 574 783 l 371 783 l 307 482 l 425 482 q 547 506 499 482 q 620 575 596 531 q 644 676 644 619 z "},"S":{"ha":721,"x_min":11,"x_max":735,"o":"m 735 917 l 693 781 q 603 795 653 789 q 507 801 553 801 q 363 773 410 801 q 317 693 317 744 q 340 625 317 656 q 401 567 364 594 q 481 511 439 540 q 561 447 524 482 q 622 365 599 411 q 646 257 646 319 q 603 100 646 160 q 480 12 560 40 q 290 -17 400 -17 q 134 -3 203 -17 q 11 29 65 11 l 54 165 q 166 135 110 147 q 293 122 222 122 q 428 154 388 122 q 468 239 468 186 q 444 312 468 279 q 383 374 421 344 q 303 433 344 403 q 223 498 261 463 q 161 578 185 533 q 138 683 138 624 q 183 828 138 771 q 313 913 229 885 q 507 940 396 940 q 627 933 567 940 q 735 917 688 926 z "},"T":{"ha":817,"x_min":133,"x_max":897,"o":"m 164 924 l 897 924 l 867 783 l 590 783 l 424 0 l 250 0 l 415 783 l 133 783 l 164 924 z "},"U":{"ha":911,"x_min":74,"x_max":928,"o":"m 215 924 l 390 924 l 263 324 q 260 217 250 261 q 310 150 271 174 q 419 126 349 126 q 513 134 468 126 q 589 151 558 142 l 754 924 l 928 924 l 740 40 q 578 -1 663 14 q 403 -17 494 -17 q 228 9 297 -17 q 124 82 160 35 q 81 192 89 129 q 89 331 74 256 l 215 924 z "},"V":{"ha":904,"x_min":157,"x_max":983,"o":"m 469 0 l 288 0 l 157 924 l 331 924 l 424 190 q 628 519 526 339 q 813 924 729 699 l 983 924 q 835 585 919 744 q 658 280 751 425 q 469 0 564 135 z "},"W":{"ha":1240,"x_min":164,"x_max":1311,"o":"m 353 0 l 182 0 l 164 924 l 336 924 l 332 228 l 631 749 l 776 749 l 853 218 q 1007 540 933 365 q 1149 924 1081 714 l 1311 924 q 1219 667 1267 789 q 1121 432 1172 544 q 1013 213 1069 319 q 894 0 957 106 l 738 0 l 667 556 l 353 0 z "},"X":{"ha":876,"x_min":-37,"x_max":957,"o":"m 364 924 l 510 558 l 549 511 l 757 0 l 574 0 l 422 385 l 383 426 l 181 924 l 364 924 m 372 476 l 449 357 l 149 0 l -37 0 l 372 476 m 554 461 l 478 581 l 771 924 l 957 924 l 554 461 z "},"Y":{"ha":865,"x_min":153,"x_max":949,"o":"m 272 0 l 342 326 l 153 924 l 329 924 l 465 478 q 546 562 503 511 q 632 674 589 613 q 711 799 675 735 q 769 924 747 863 l 949 924 q 829 702 899 813 q 680 496 760 592 q 515 332 600 400 l 446 0 l 272 0 z "},"Z":{"ha":799,"x_min":-19,"x_max":853,"o":"m 192 924 l 853 924 l 824 790 l 228 143 l 699 143 l 669 0 l -19 0 l 8 135 l 606 783 l 161 783 l 192 924 z "},"Æ":{"ha":1229,"x_min":18,"x_max":1279,"o":"m 743 924 l 1279 924 l 1249 783 l 878 783 l 824 536 l 1165 536 l 1136 394 l 794 394 l 761 244 q 776 163 749 185 q 857 142 804 142 l 1128 142 l 1099 0 l 836 0 q 683 24 746 0 q 593 100 619 47 q 585 239 567 153 l 619 394 l 274 394 l 189 0 l 18 0 l 149 613 q 272 857 182 774 q 526 940 363 940 q 658 917 606 940 q 726 849 710 894 l 743 924 m 303 535 l 647 535 l 664 611 q 652 749 683 701 q 531 796 621 796 q 390 749 442 796 q 319 611 339 701 l 303 535 z "},"Œ":{"ha":1283,"x_min":72,"x_max":1332,"o":"m 565 940 q 771 860 699 940 q 843 613 843 779 q 815 379 843 492 q 729 177 786 267 q 588 35 672 88 q 392 -17 504 -17 q 156 64 239 -17 q 72 311 72 144 q 103 544 72 432 q 197 747 135 657 q 351 888 258 836 q 565 940 443 940 m 404 129 q 529 171 474 129 q 624 282 585 213 q 683 437 663 351 q 704 610 704 522 q 667 753 704 713 q 553 794 629 794 q 428 753 483 794 q 333 641 372 711 q 274 486 294 571 q 254 314 254 401 q 292 170 254 211 q 404 129 329 129 m 804 924 l 1332 924 l 1303 783 l 931 783 l 879 543 l 1222 543 l 1193 401 l 850 401 l 817 244 q 833 164 804 186 q 913 142 861 142 l 1183 142 l 1153 0 l 874 0 q 792 11 832 0 q 722 47 753 22 q 677 110 692 71 q 672 203 663 149 l 804 924 z "},"Ł":{"ha":735,"x_min":32,"x_max":649,"o":"m 283 924 l 457 924 l 378 553 l 638 653 l 606 503 l 346 403 l 290 142 l 649 142 l 619 0 l 86 0 l 158 339 l 32 289 l 64 439 l 190 488 l 283 924 z "},"Ø":{"ha":922,"x_min":-8,"x_max":975,"o":"m 975 944 l 92 -103 l -8 -26 l 876 1021 l 975 944 m 572 940 q 811 860 728 940 q 894 613 894 779 q 863 379 894 492 q 769 177 832 267 q 615 35 707 88 q 399 -17 522 -17 q 159 64 243 -17 q 75 311 75 144 q 106 544 75 432 q 200 747 138 657 q 356 888 263 836 q 572 940 449 940 m 411 121 q 538 163 482 121 q 635 276 594 206 q 696 434 675 347 q 717 610 717 521 q 678 760 717 717 q 560 803 639 803 q 432 760 489 803 q 335 647 375 718 q 275 490 296 576 q 254 314 254 403 q 294 163 254 206 q 411 121 333 121 z "},"Ð":{"ha":944,"x_min":56,"x_max":922,"o":"m 56 404 l 85 542 l 572 542 l 543 404 l 56 404 m 276 924 l 572 924 q 830 840 738 924 q 922 600 922 757 q 905 430 922 517 q 849 263 888 343 q 750 120 811 183 q 603 20 689 57 q 401 -17 517 -17 q 249 -8 332 -17 q 79 19 165 0 l 276 924 m 421 783 l 279 139 q 342 131 306 133 q 413 128 379 128 q 566 172 503 128 q 668 288 629 217 q 726 442 707 358 q 744 601 744 525 q 696 742 744 700 q 551 783 647 783 l 421 783 z "},"Þ":{"ha":792,"x_min":31,"x_max":782,"o":"m 339 631 l 272 319 q 333 312 301 314 q 394 310 364 310 q 485 324 446 310 q 552 365 525 338 q 593 428 579 392 q 607 511 607 465 q 591 584 608 558 q 540 620 574 610 q 457 631 507 631 l 339 631 m 231 924 l 400 924 l 365 771 l 476 771 q 643 747 575 771 q 747 669 711 724 q 782 519 782 614 q 735 336 782 415 q 600 212 688 257 q 389 167 513 167 q 317 169 353 167 q 242 178 281 172 l 204 0 l 31 0 l 231 924 z "},"a":{"ha":813,"x_min":39,"x_max":747,"o":"m 281 -17 q 158 10 213 -17 q 71 94 103 36 q 39 249 39 153 q 88 490 39 383 q 231 657 138 596 q 454 718 324 718 q 597 702 524 718 q 729 660 669 686 l 633 210 q 628 168 628 188 q 642 130 628 140 q 681 119 656 119 q 713 122 696 119 q 747 131 729 125 l 725 1 q 673 -12 699 -7 q 622 -17 647 -17 q 536 2 569 -17 q 490 58 503 21 q 403 7 456 31 q 281 -17 350 -17 m 546 567 q 495 581 524 575 q 438 586 467 586 q 313 541 365 586 q 231 421 260 496 q 203 253 203 346 q 233 148 203 181 q 314 115 263 115 q 392 131 353 115 q 463 171 432 147 l 546 567 z "},"b":{"ha":753,"x_min":18,"x_max":708,"o":"m 225 1014 l 388 1014 l 317 681 q 385 706 344 693 q 472 718 425 718 q 593 691 540 718 q 677 606 646 664 q 708 456 708 547 q 659 211 708 318 q 519 44 610 104 q 303 -17 428 -17 q 155 0 231 -17 q 18 39 79 17 l 225 1014 m 201 138 q 253 122 225 128 q 311 115 282 115 q 436 160 383 115 q 517 281 489 206 q 546 449 546 357 q 516 554 546 522 q 433 586 486 586 q 356 571 394 586 q 285 532 317 556 l 201 138 z "},"c":{"ha":597,"x_min":39,"x_max":628,"o":"m 628 696 l 585 568 q 516 581 550 576 q 444 586 482 586 q 339 560 385 586 q 263 488 293 533 q 217 382 232 442 q 201 254 201 322 q 233 147 201 182 q 350 113 265 113 q 424 118 385 113 q 501 133 464 124 l 488 6 q 407 -10 449 -4 q 321 -17 365 -17 q 109 47 179 -17 q 39 250 39 111 q 66 433 39 349 q 146 582 93 518 q 274 682 199 646 q 446 718 350 718 q 540 713 494 718 q 628 696 586 708 z "},"d":{"ha":790,"x_min":40,"x_max":806,"o":"m 281 -17 q 158 10 213 -17 q 72 95 104 36 q 40 249 40 154 q 89 490 40 383 q 229 657 138 596 q 450 718 321 718 q 512 714 481 718 q 574 701 543 710 l 640 1014 l 806 1014 l 635 210 q 629 168 629 188 q 643 130 629 140 q 682 119 657 119 q 713 122 696 119 q 749 131 731 125 l 726 1 q 674 -12 700 -7 q 622 -17 649 -17 q 538 2 571 -17 q 492 58 504 21 q 403 7 457 31 q 281 -17 350 -17 m 547 567 q 495 581 524 576 q 439 586 467 586 q 313 541 367 586 q 231 421 260 496 q 203 253 203 346 q 233 148 203 181 q 315 115 263 115 q 393 131 354 115 q 463 171 432 147 l 547 567 z "},"e":{"ha":694,"x_min":42,"x_max":674,"o":"m 199 296 l 215 404 q 253 401 232 403 q 299 398 275 399 q 347 397 324 397 q 465 428 425 397 q 504 514 504 458 q 481 572 504 551 q 413 592 457 592 q 309 556 356 592 q 235 445 263 521 q 207 250 207 369 q 244 156 207 190 q 374 121 281 121 q 480 130 422 121 q 575 149 538 139 l 561 14 q 460 -8 513 1 q 344 -17 407 -17 q 185 13 254 -17 q 79 101 117 42 q 42 250 42 160 q 67 438 42 351 q 140 586 92 524 q 260 683 189 649 q 425 718 332 718 q 610 663 547 717 q 674 526 674 610 q 633 387 674 440 q 519 310 592 333 q 353 286 447 286 q 268 290 310 286 q 199 296 226 293 z "},"f":{"ha":507,"x_min":-121,"x_max":658,"o":"m 96 701 l 199 701 l 215 778 q 322 969 243 911 q 524 1028 401 1028 q 594 1024 558 1028 q 658 1015 629 1021 l 618 889 q 524 897 568 897 q 432 872 469 897 q 379 778 394 847 l 363 701 l 557 701 l 531 572 l 336 572 l 232 83 q 199 -28 219 21 q 144 -117 178 -76 q 63 -197 111 -158 q -56 -275 14 -235 l -121 -172 q -47 -116 -78 -144 q 7 -56 -15 -87 q 44 15 29 -24 q 69 99 60 53 l 171 572 l 68 572 l 96 701 z "},"g":{"ha":747,"x_min":-11,"x_max":733,"o":"m 282 -7 q 161 20 215 -7 q 75 103 107 47 q 43 247 43 158 q 92 491 43 385 q 233 658 142 597 q 449 718 324 718 q 598 702 522 718 q 733 663 674 686 l 594 6 q 524 -164 572 -103 q 402 -251 476 -225 q 221 -276 328 -276 q 91 -265 153 -276 q -11 -240 29 -254 l 31 -112 q 124 -137 68 -126 q 236 -147 181 -147 q 367 -116 321 -147 q 428 -17 413 -85 l 442 42 l 449 35 q 376 6 419 18 q 282 -7 333 -7 m 550 565 q 499 581 528 575 q 440 586 469 586 q 316 541 368 586 q 235 421 264 496 q 207 253 207 346 q 237 155 207 185 q 321 125 267 125 q 399 141 360 125 q 468 181 438 157 l 550 565 z "},"h":{"ha":751,"x_min":11,"x_max":718,"o":"m 174 0 l 11 0 l 226 1014 l 388 1014 l 322 700 q 393 713 356 708 q 465 718 431 718 q 604 694 544 718 q 691 613 664 669 q 699 460 718 556 l 600 0 l 438 0 l 532 451 q 532 532 543 503 q 493 574 521 561 q 424 586 465 586 q 356 581 390 586 q 294 568 322 575 l 174 0 z "},"i":{"ha":394,"x_min":26,"x_max":385,"o":"m 160 701 l 322 701 l 215 204 q 217 140 206 160 q 263 119 229 119 q 297 122 281 119 q 329 131 314 125 l 301 -3 q 254 -13 279 -10 q 206 -17 229 -17 q 71 37 115 -17 q 51 204 26 90 l 160 701 m 304 1001 q 363 985 342 1001 q 385 935 385 968 q 351 854 385 883 q 267 825 318 825 q 208 842 229 825 q 186 893 186 860 q 219 973 186 944 q 304 1001 253 1001 z "},"j":{"ha":333,"x_min":-158,"x_max":385,"o":"m 161 701 l 324 701 l 194 97 q 159 -22 181 31 q 104 -116 138 -74 q 22 -197 71 -158 q -97 -275 -28 -235 l -158 -172 q -84 -116 -115 -144 q -31 -56 -53 -87 q 7 15 -8 -24 q 32 99 22 53 l 161 701 m 304 1001 q 363 985 342 1001 q 385 935 385 968 q 351 854 385 883 q 267 825 318 825 q 208 842 229 825 q 186 893 186 860 q 219 973 186 944 q 304 1001 253 1001 z "},"k":{"ha":717,"x_min":11,"x_max":750,"o":"m 226 1014 l 389 1014 l 254 382 l 579 701 l 750 701 l 449 403 q 547 326 514 381 q 596 182 579 272 l 631 0 l 468 0 l 436 158 q 397 267 422 231 q 324 313 371 304 l 222 226 l 174 0 l 11 0 l 226 1014 z "},"l":{"ha":432,"x_min":38,"x_max":388,"o":"m 225 1014 l 388 1014 l 215 210 q 222 140 206 161 q 274 119 238 119 q 325 124 300 119 q 368 133 350 128 l 342 1 q 281 -12 311 -8 q 219 -17 250 -17 q 112 8 156 -17 q 53 82 68 32 q 54 210 38 132 l 225 1014 z "},"m":{"ha":1126,"x_min":10,"x_max":1097,"o":"m 172 0 l 10 0 l 151 667 q 297 704 225 690 q 439 718 368 718 q 584 694 524 718 q 669 617 644 671 q 675 471 694 564 l 574 0 l 411 0 l 508 463 q 499 559 524 532 q 417 586 474 586 q 351 581 383 586 q 294 568 319 575 l 172 0 m 676 554 l 568 649 q 708 699 639 681 q 849 718 776 718 q 988 694 931 718 q 1072 617 1046 671 q 1078 471 1097 564 l 976 0 l 814 0 l 911 463 q 901 559 926 532 q 819 586 876 586 q 743 577 781 586 q 676 554 706 568 z "},"n":{"ha":751,"x_min":11,"x_max":719,"o":"m 174 0 l 11 0 l 151 667 q 301 704 229 690 q 446 718 374 718 q 598 694 533 718 q 691 613 663 669 q 699 460 719 557 l 600 0 l 438 0 l 532 451 q 532 532 543 503 q 493 574 521 561 q 425 586 465 586 q 358 581 392 586 q 296 568 324 575 l 174 0 z "},"o":{"ha":753,"x_min":38,"x_max":717,"o":"m 433 718 q 643 654 569 718 q 717 456 717 590 q 692 285 717 369 q 619 133 668 201 q 495 24 569 65 q 321 -17 421 -17 q 112 48 186 -17 q 38 247 38 113 q 62 417 38 333 q 135 568 86 500 q 259 677 185 636 q 433 718 333 718 m 328 115 q 424 142 382 115 q 495 216 467 168 q 539 326 524 264 q 554 458 554 388 q 523 556 554 525 q 426 588 492 588 q 330 560 372 588 q 259 486 288 533 q 215 376 231 439 q 200 243 200 314 q 232 147 200 178 q 328 115 264 115 z "},"p":{"ha":753,"x_min":-44,"x_max":710,"o":"m 438 718 q 577 691 515 718 q 674 606 639 664 q 710 456 710 547 q 661 211 710 318 q 524 44 613 104 q 314 -17 435 -17 q 176 6 243 -17 q 56 63 108 29 l 196 138 q 251 122 219 128 q 313 115 282 115 q 438 160 385 115 q 519 281 490 206 q 547 449 547 357 q 514 553 547 522 q 422 585 481 585 q 358 581 392 585 q 293 568 325 576 l 117 -261 l -44 -261 l 151 667 q 293 703 218 688 q 438 718 368 718 z "},"q":{"ha":747,"x_min":40,"x_max":731,"o":"m 535 -261 l 371 -261 l 431 22 q 364 -4 404 8 q 276 -17 324 -17 q 156 11 210 -17 q 72 97 103 39 q 40 247 40 156 q 90 491 40 385 q 230 658 139 597 q 446 718 321 718 q 595 702 519 718 q 731 663 671 686 l 535 -261 m 547 565 q 495 581 524 575 q 436 586 467 586 q 312 541 364 586 q 231 421 260 496 q 203 253 203 346 q 233 148 203 181 q 315 115 263 115 q 393 131 354 115 q 463 171 432 147 l 547 565 z "},"r":{"ha":476,"x_min":8,"x_max":532,"o":"m 532 718 l 504 588 q 393 583 447 588 q 290 568 339 578 l 171 0 l 8 0 l 149 667 q 343 706 246 694 q 532 718 440 718 z "},"s":{"ha":597,"x_min":-10,"x_max":597,"o":"m 597 696 l 560 571 q 480 586 521 581 q 386 592 439 592 q 285 573 319 592 q 251 519 251 554 q 279 465 251 488 q 349 419 307 442 q 431 369 390 397 q 500 301 472 342 q 528 200 528 261 q 490 78 528 126 q 383 7 453 31 q 218 -17 314 -17 q 92 -5 154 -17 q -10 21 29 7 l 32 146 q 120 123 68 133 q 219 113 172 113 q 324 137 296 113 q 351 196 351 161 q 332 246 351 225 q 282 285 313 267 q 217 323 251 303 q 151 369 182 343 q 101 431 121 394 q 82 518 82 467 q 119 634 82 590 q 226 698 157 678 q 390 718 296 718 q 498 713 446 718 q 597 696 550 707 z "},"t":{"ha":522,"x_min":72,"x_max":549,"o":"m 265 858 l 396 858 l 363 701 l 549 701 l 521 574 l 336 574 l 260 211 q 268 140 249 160 q 328 119 288 119 q 381 124 353 119 q 431 135 410 129 l 410 4 q 342 -12 378 -7 q 275 -17 307 -17 q 162 8 208 -17 q 97 82 115 32 q 96 208 79 132 l 172 574 l 72 574 l 100 701 l 200 701 l 265 858 z "},"u":{"ha":756,"x_min":36,"x_max":736,"o":"m 714 1 q 611 -17 664 -17 q 526 1 560 -17 q 481 54 492 19 q 394 5 447 26 q 274 -17 340 -17 q 141 12 197 -17 q 60 100 85 40 q 54 251 36 160 l 150 701 l 313 701 l 218 251 q 217 172 207 201 q 251 128 226 142 q 311 115 276 115 q 388 132 351 115 q 451 174 424 149 l 564 701 l 726 701 l 622 207 q 625 140 613 160 q 668 119 638 119 q 700 122 682 119 q 736 131 718 125 l 714 1 z "},"v":{"ha":710,"x_min":94,"x_max":757,"o":"m 261 701 l 318 150 q 412 310 364 226 q 506 490 460 393 q 594 701 553 586 l 757 701 q 591 348 692 525 q 369 0 490 171 l 183 0 l 94 701 l 261 701 z "},"w":{"ha":1050,"x_min":101,"x_max":1086,"o":"m 678 701 l 715 172 q 829 411 776 283 q 928 701 882 539 l 1086 701 q 1007 467 1051 582 q 906 236 963 351 q 778 0 850 121 l 601 0 l 567 529 l 306 0 l 114 0 l 101 701 l 271 701 l 260 176 l 518 701 l 678 701 z "},"x":{"ha":692,"x_min":-54,"x_max":740,"o":"m 286 701 l 386 453 l 433 372 l 585 0 l 417 0 l 307 275 l 265 342 l 118 701 l 286 701 m 442 342 l 375 451 l 574 701 l 740 701 l 442 342 m 260 381 l 329 272 l 110 0 l -54 0 l 260 381 z "},"y":{"ha":736,"x_min":-24,"x_max":726,"o":"m 278 -3 q 143 26 200 -3 q 61 110 86 54 q 54 249 36 165 l 150 701 l 313 701 l 221 265 q 220 185 210 215 q 256 142 231 156 q 315 129 281 129 q 392 145 356 129 q 456 188 428 161 l 564 701 l 726 701 l 576 -7 q 507 -167 556 -108 q 383 -251 458 -226 q 203 -276 307 -276 q 76 -265 139 -276 q -24 -240 14 -254 l 17 -119 q 107 -144 53 -133 q 213 -156 161 -156 q 313 -140 272 -156 q 377 -92 353 -124 q 414 -17 401 -61 l 433 61 l 471 67 q 396 21 444 44 q 278 -3 347 -3 z "},"z":{"ha":640,"x_min":-35,"x_max":663,"o":"m 128 701 l 663 701 l 639 588 l 203 128 l 554 128 l 528 0 l -35 0 l -11 114 l 431 574 l 100 574 l 128 701 z "},"æ":{"ha":1064,"x_min":4,"x_max":1054,"o":"m 579 297 l 596 404 q 634 401 613 403 q 680 398 656 399 q 728 397 704 397 q 845 428 806 397 q 885 514 885 458 q 861 572 885 551 q 793 592 838 592 q 692 556 738 592 q 618 446 646 521 q 590 250 590 371 q 626 155 590 189 q 754 121 661 121 q 860 129 803 121 q 956 149 918 138 l 942 15 q 840 -7 893 3 q 725 -17 788 -17 q 567 13 635 -17 q 460 101 499 42 q 422 250 422 160 q 447 438 422 351 q 521 586 472 524 q 641 683 569 649 q 806 718 713 718 q 990 665 926 718 q 1054 526 1054 611 q 1013 387 1054 440 q 900 310 972 333 q 733 286 828 286 q 648 290 689 286 q 579 297 607 294 m 433 301 q 374 310 407 307 q 317 313 340 313 q 204 282 247 313 q 161 189 161 251 q 190 122 161 142 q 267 103 218 103 q 362 115 319 103 q 443 144 404 126 l 532 56 q 451 19 497 35 q 358 -6 406 3 q 268 -15 310 -15 q 76 31 147 -15 q 4 181 4 76 q 28 292 4 246 q 94 368 53 339 q 190 411 136 397 q 304 425 244 425 q 375 422 342 425 q 440 411 408 418 l 454 482 q 440 567 468 543 q 343 592 413 592 q 242 585 296 592 q 144 568 189 578 l 163 692 q 267 710 210 703 q 378 717 325 717 q 501 694 451 717 q 572 624 550 672 l 433 301 z "},"œ":{"ha":1168,"x_min":38,"x_max":1149,"o":"m 422 718 q 615 654 547 718 q 683 456 683 590 q 660 285 683 369 q 591 133 638 201 q 475 24 544 65 q 311 -17 406 -17 q 109 47 181 -17 q 38 246 38 111 q 61 416 38 332 q 133 568 85 500 q 253 677 181 636 q 422 718 325 718 m 317 115 q 410 142 369 115 q 477 216 450 168 q 519 326 504 264 q 533 458 533 388 q 504 556 533 524 q 417 588 475 588 q 325 560 365 588 q 257 486 285 533 q 215 376 229 439 q 200 243 200 314 q 229 147 200 178 q 317 115 258 115 m 674 297 l 690 404 q 729 401 708 403 q 774 398 750 399 q 822 397 799 397 q 940 428 900 397 q 979 514 979 458 q 956 572 979 551 q 888 592 932 592 q 786 556 832 592 q 713 446 740 521 q 685 250 685 371 q 720 155 685 189 q 849 121 756 121 q 955 129 897 121 q 1050 149 1013 138 l 1036 15 q 935 -7 988 3 q 819 -17 882 -17 q 667 13 733 -17 q 565 101 601 42 q 529 250 529 160 q 553 438 529 351 q 625 586 578 524 q 742 683 672 649 q 900 718 811 718 q 1085 665 1022 718 q 1149 526 1149 611 q 1108 387 1149 440 q 994 310 1067 333 q 828 286 922 286 q 743 290 785 286 q 674 297 701 294 z "},"ł":{"ha":476,"x_min":32,"x_max":479,"o":"m 63 499 l 479 653 l 449 514 l 32 360 l 63 499 m 269 1014 l 432 1014 l 260 210 q 266 140 250 161 q 318 119 282 119 q 369 124 344 119 q 413 133 394 128 l 386 1 q 326 -12 356 -7 q 264 -17 296 -17 q 157 8 200 -17 q 98 82 114 32 q 99 210 82 132 l 269 1014 z "},"ø":{"ha":746,"x_min":-32,"x_max":778,"o":"m 65 -114 l -32 -53 l 681 814 l 778 753 l 65 -114 m 429 718 q 639 654 565 718 q 713 456 713 590 q 688 285 713 369 q 615 133 664 201 q 492 24 565 65 q 318 -17 418 -17 q 109 47 183 -17 q 35 246 35 111 q 59 416 35 332 q 133 568 83 500 q 256 677 182 636 q 429 718 329 718 m 324 114 q 421 141 378 114 q 494 215 464 168 q 539 325 524 263 q 554 458 554 388 q 522 556 554 525 q 424 588 489 588 q 326 560 368 588 q 253 486 283 533 q 208 376 224 439 q 193 243 193 314 q 226 145 193 176 q 324 114 258 114 z "},"ð":{"ha":729,"x_min":40,"x_max":800,"o":"m 800 972 l 778 861 l 325 747 l 349 858 l 800 972 m 597 1014 q 675 831 647 925 q 703 621 703 736 q 692 449 703 538 q 654 277 681 360 q 581 128 628 194 q 465 24 535 63 q 296 -15 394 -15 q 107 51 174 -15 q 40 242 40 118 q 63 423 40 339 q 131 571 86 507 q 244 670 176 635 q 399 706 311 706 q 500 688 456 706 q 565 636 544 671 q 551 731 564 679 q 519 835 538 782 q 477 935 500 889 q 431 1014 454 982 l 597 1014 m 514 464 q 501 533 514 508 q 465 569 489 558 q 407 579 440 579 q 327 555 361 579 q 269 491 293 531 q 229 404 244 451 q 207 310 214 357 q 200 228 200 264 q 213 160 200 185 q 249 124 225 135 q 307 114 274 114 q 387 139 353 114 q 445 203 421 164 q 485 290 469 243 q 507 383 500 338 q 514 464 514 429 z "},"þ":{"ha":742,"x_min":-44,"x_max":710,"o":"m 438 718 q 577 691 515 718 q 674 606 639 664 q 710 456 710 547 q 661 211 710 318 q 524 44 613 104 q 314 -17 435 -17 q 176 6 243 -17 q 56 63 108 29 l 196 136 q 251 122 219 128 q 313 115 282 115 q 438 160 385 115 q 519 281 490 206 q 547 449 547 357 q 514 553 547 522 q 422 585 481 585 q 358 581 392 585 q 293 568 325 576 l 117 -261 l -44 -261 l 226 1014 l 386 1014 l 321 707 q 382 715 353 713 q 438 718 411 718 z "},"ß":{"ha":742,"x_min":-164,"x_max":728,"o":"m 383 479 q 401 558 383 524 q 444 621 418 592 q 497 678 471 650 q 541 740 524 707 q 558 817 558 774 q 535 879 558 858 q 469 900 513 900 q 384 872 419 900 q 335 778 349 843 l 189 97 q 153 -22 175 31 q 99 -116 132 -74 q 16 -197 65 -158 q -103 -275 -33 -235 l -164 -172 q -89 -116 -121 -144 q -35 -56 -57 -87 q 3 15 -12 -24 q 28 99 18 53 l 174 788 q 280 974 201 918 q 479 1031 358 1031 q 663 977 599 1031 q 728 831 728 924 q 709 738 728 778 q 663 668 690 699 q 609 611 636 638 q 563 560 582 585 q 544 504 544 535 q 558 453 544 478 q 591 403 571 429 q 631 349 611 378 q 663 287 650 321 q 676 211 676 253 q 606 44 676 104 q 401 -17 536 -17 q 326 -12 367 -17 q 257 0 285 -7 l 288 121 q 343 113 314 117 q 394 108 372 108 q 484 135 453 108 q 515 203 515 161 q 502 258 515 233 q 469 307 489 283 q 430 356 450 331 q 397 410 410 381 q 383 479 383 440 z "},"ı":{"ha":394,"x_min":26,"x_max":329,"o":"m 160 701 l 322 701 l 214 204 q 217 139 204 158 q 263 119 229 119 q 297 122 281 119 q 329 129 314 124 l 301 -3 q 254 -13 279 -10 q 206 -17 229 -17 q 71 37 115 -17 q 51 204 26 90 l 160 701 z "},"ȷ":{"ha":332,"x_min":-158,"x_max":324,"o":"m 161 701 l 324 701 l 194 97 q 159 -22 181 31 q 103 -116 138 -74 q 20 -197 69 -158 q -99 -275 -29 -235 l -158 -172 q -83 -116 -115 -144 q -29 -56 -51 -87 q 8 15 -7 -24 q 33 99 24 53 l 161 701 z "},"Á":{"ha":885,"x_min":18,"x_max":864,"o":"m 258 321 l 190 0 l 18 0 l 146 600 q 217 783 168 707 q 347 899 265 858 q 550 940 429 940 q 715 914 650 940 q 815 841 781 888 q 857 732 850 794 q 849 597 864 669 l 719 0 l 544 0 l 614 321 l 258 321 m 289 460 l 644 460 l 676 613 q 665 747 694 699 q 539 796 636 796 q 322 613 363 796 l 289 460 m 639 1235 l 821 1235 l 610 1011 l 478 1011 l 639 1235 z "},"Â":{"ha":885,"x_min":18,"x_max":864,"o":"m 258 321 l 190 0 l 18 0 l 146 600 q 217 783 168 707 q 347 899 265 858 q 550 940 429 940 q 715 914 650 940 q 815 841 781 888 q 857 732 850 794 q 849 597 864 669 l 719 0 l 544 0 l 614 321 l 258 321 m 289 460 l 644 460 l 676 613 q 665 747 694 699 q 539 796 636 796 q 322 613 363 796 l 289 460 m 561 1235 l 704 1235 l 797 1011 l 660 1011 l 618 1149 l 519 1011 l 372 1011 l 561 1235 z "},"Ä":{"ha":885,"x_min":18,"x_max":864,"o":"m 258 321 l 190 0 l 18 0 l 146 600 q 217 783 168 707 q 347 899 265 858 q 550 940 429 940 q 715 914 650 940 q 815 841 781 888 q 857 732 850 794 q 849 597 864 669 l 719 0 l 544 0 l 614 321 l 258 321 m 289 460 l 644 460 l 676 613 q 665 747 694 699 q 539 796 636 796 q 322 613 363 796 l 289 460 m 508 1215 q 559 1199 540 1215 q 578 1151 578 1182 q 547 1075 578 1104 q 472 1046 517 1046 q 423 1063 442 1046 q 404 1110 404 1079 q 434 1186 404 1157 q 508 1215 464 1215 m 749 1215 q 799 1199 781 1215 q 817 1151 817 1182 q 787 1075 817 1104 q 713 1046 757 1046 q 663 1063 681 1046 q 644 1110 644 1079 q 674 1186 644 1157 q 749 1215 704 1215 z "},"À":{"ha":885,"x_min":18,"x_max":864,"o":"m 258 321 l 190 0 l 18 0 l 146 600 q 217 783 168 707 q 347 899 265 858 q 550 940 429 940 q 715 914 650 940 q 815 841 781 888 q 857 732 850 794 q 849 597 864 669 l 719 0 l 544 0 l 614 321 l 258 321 m 289 460 l 644 460 l 676 613 q 665 747 694 699 q 539 796 636 796 q 322 613 363 796 l 289 460 m 428 1235 l 601 1235 l 665 1011 l 544 1011 l 428 1235 z "},"Å":{"ha":885,"x_min":18,"x_max":864,"o":"m 258 321 l 190 0 l 18 0 l 146 600 q 217 783 168 707 q 347 899 265 858 q 550 940 429 940 q 715 914 650 940 q 815 841 781 888 q 857 732 850 794 q 849 597 864 669 l 719 0 l 544 0 l 614 321 l 258 321 m 289 460 l 644 460 l 676 613 q 665 747 694 699 q 539 796 636 796 q 322 613 363 796 l 289 460 m 597 1074 q 644 1092 625 1074 q 664 1140 664 1110 q 652 1173 664 1164 q 621 1182 640 1182 q 574 1165 593 1182 q 554 1115 554 1147 q 566 1083 554 1092 q 597 1074 578 1074 m 625 1258 q 726 1229 686 1258 q 765 1142 765 1200 q 717 1035 765 1074 q 593 996 669 996 q 492 1026 533 996 q 451 1114 451 1056 q 500 1220 451 1182 q 625 1258 549 1258 z "},"Ã":{"ha":885,"x_min":18,"x_max":864,"o":"m 258 321 l 190 0 l 18 0 l 146 600 q 217 783 168 707 q 347 899 265 858 q 550 940 429 940 q 715 914 650 940 q 815 841 781 888 q 857 732 850 794 q 849 597 864 669 l 719 0 l 544 0 l 614 321 l 258 321 m 289 460 l 644 460 l 676 613 q 665 747 694 699 q 539 796 636 796 q 322 613 363 796 l 289 460 m 468 1036 l 367 1078 q 427 1167 390 1129 q 519 1204 464 1204 q 583 1190 554 1204 q 635 1162 611 1176 q 679 1147 660 1147 q 720 1164 707 1147 q 747 1207 733 1181 l 849 1167 q 781 1073 818 1110 q 693 1036 744 1036 q 631 1051 660 1036 q 579 1082 603 1067 q 536 1097 556 1097 q 494 1078 510 1097 q 468 1036 479 1060 z "},"Ă":{"ha":885,"x_min":18,"x_max":864,"o":"m 258 321 l 190 0 l 18 0 l 146 600 q 217 783 168 707 q 347 899 265 858 q 550 940 429 940 q 715 914 650 940 q 815 841 781 888 q 857 732 850 794 q 849 597 864 669 l 719 0 l 544 0 l 614 321 l 258 321 m 289 460 l 644 460 l 676 613 q 665 747 694 699 q 539 796 636 796 q 322 613 363 796 l 289 460 m 419 1217 l 549 1217 q 557 1149 540 1169 q 610 1128 574 1128 q 672 1149 646 1128 q 708 1217 697 1169 l 838 1217 q 754 1069 811 1113 q 604 1026 697 1026 q 497 1045 543 1026 q 430 1106 451 1064 q 419 1217 408 1147 z "},"Ā":{"ha":885,"x_min":18,"x_max":864,"o":"m 258 321 l 190 0 l 18 0 l 146 600 q 217 783 168 707 q 347 899 265 858 q 550 940 429 940 q 715 914 650 940 q 815 841 781 888 q 857 732 850 794 q 849 597 864 669 l 719 0 l 544 0 l 614 321 l 258 321 m 289 460 l 644 460 l 676 613 q 665 747 694 699 q 539 796 636 796 q 322 613 363 796 l 289 460 m 429 1163 l 806 1163 l 782 1053 l 406 1053 l 429 1163 z "},"Ą":{"ha":885,"x_min":18,"x_max":864,"o":"m 258 321 l 190 0 l 18 0 l 146 600 q 217 783 168 707 q 347 899 265 858 q 550 940 429 940 q 715 914 650 940 q 815 841 781 888 q 857 732 850 794 q 849 597 864 669 l 719 0 l 544 0 l 614 321 l 258 321 m 289 460 l 644 460 l 676 613 q 665 747 694 699 q 539 796 636 796 q 322 613 363 796 l 289 460 m 689 -149 l 685 -237 q 635 -253 663 -247 q 581 -260 608 -260 q 483 -233 517 -260 q 450 -161 450 -207 q 474 -91 450 -124 q 533 -32 497 -58 q 607 13 569 -6 l 719 0 q 656 -38 688 -17 q 603 -83 624 -60 q 582 -131 582 -107 q 592 -156 582 -149 q 622 -162 603 -162 q 654 -159 638 -162 q 689 -149 671 -156 z "},"Ǻ":{"ha":885,"x_min":18,"x_max":864,"o":"m 258 321 l 189 0 l 18 0 l 146 600 q 217 783 169 707 q 347 900 265 860 q 550 940 428 940 q 715 915 650 940 q 815 842 781 889 q 857 733 850 794 q 849 597 864 671 l 719 0 l 544 0 l 614 321 l 258 321 m 289 461 l 644 461 l 676 613 q 666 747 696 697 q 538 796 636 796 q 322 613 364 796 l 289 461 m 600 1081 q 647 1099 628 1081 q 667 1147 667 1117 q 655 1180 667 1171 q 622 1189 643 1189 q 575 1172 594 1189 q 556 1122 556 1154 q 567 1090 556 1100 q 600 1081 579 1081 m 626 1267 q 728 1237 688 1267 q 768 1149 768 1207 q 720 1042 768 1081 q 596 1004 672 1004 q 495 1033 536 1004 q 454 1121 454 1063 q 502 1228 454 1190 q 626 1267 550 1267 m 664 1376 l 846 1376 l 664 1192 l 532 1192 l 664 1376 z "},"Ç":{"ha":758,"x_min":75,"x_max":806,"o":"m 806 914 l 769 767 q 686 786 732 778 q 583 794 640 794 q 440 756 501 794 q 337 651 378 718 q 275 494 296 583 q 254 303 254 406 q 293 172 254 214 q 431 131 332 131 q 541 142 486 131 q 636 163 596 153 l 621 18 q 517 -6 578 4 q 400 -17 457 -17 q 157 65 239 -17 q 75 301 75 147 q 106 547 75 432 q 201 751 138 663 q 360 890 264 839 q 588 940 457 940 q 713 931 658 940 q 806 914 767 922 m 313 -51 l 426 -51 q 444 -97 438 -71 q 450 -150 450 -124 q 410 -242 450 -207 q 283 -276 369 -276 q 224 -272 254 -276 q 169 -257 194 -267 l 207 -168 q 235 -176 218 -172 q 267 -179 253 -179 q 314 -163 300 -179 q 328 -119 328 -147 q 324 -85 328 -103 q 313 -51 319 -68 z "},"Ć":{"ha":758,"x_min":75,"x_max":849,"o":"m 806 914 l 769 767 q 686 786 732 778 q 583 794 640 794 q 440 756 501 794 q 337 651 378 718 q 275 494 296 583 q 254 303 254 406 q 293 172 254 214 q 431 131 332 131 q 541 142 486 131 q 636 163 596 153 l 621 18 q 517 -6 578 4 q 400 -17 457 -17 q 157 65 239 -17 q 75 301 75 147 q 106 547 75 432 q 201 751 138 663 q 360 890 264 839 q 588 940 457 940 q 713 931 658 940 q 806 914 767 922 m 667 1235 l 849 1235 l 638 1011 l 506 1011 l 667 1235 z "},"Č":{"ha":758,"x_min":75,"x_max":861,"o":"m 806 914 l 769 767 q 686 786 732 778 q 583 794 640 794 q 440 756 501 794 q 337 651 378 718 q 275 494 296 583 q 254 303 254 406 q 293 172 254 214 q 431 131 332 131 q 541 142 486 131 q 636 163 596 153 l 621 18 q 517 -6 578 4 q 400 -17 457 -17 q 157 65 239 -17 q 75 301 75 147 q 106 547 75 432 q 201 751 138 663 q 360 890 264 839 q 588 940 457 940 q 713 931 658 940 q 806 914 767 922 m 529 1043 l 436 1267 l 574 1267 l 615 1131 l 714 1267 l 861 1267 l 672 1043 l 529 1043 z "},"Ĉ":{"ha":758,"x_min":75,"x_max":824,"o":"m 806 914 l 769 767 q 686 786 732 778 q 583 794 640 794 q 440 756 501 794 q 337 651 378 718 q 275 494 296 583 q 254 303 254 406 q 293 172 254 214 q 431 131 332 131 q 541 142 486 131 q 636 163 596 153 l 621 18 q 517 -6 578 4 q 400 -17 457 -17 q 157 65 239 -17 q 75 301 75 147 q 106 547 75 432 q 201 751 138 663 q 360 890 264 839 q 588 940 457 940 q 713 931 658 940 q 806 914 767 922 m 588 1235 l 731 1235 l 824 1011 l 686 1011 l 644 1149 l 546 1011 l 399 1011 l 588 1235 z "},"Ċ":{"ha":758,"x_min":75,"x_max":806,"o":"m 806 914 l 769 767 q 686 786 732 778 q 583 794 640 794 q 440 756 501 794 q 337 651 378 718 q 275 494 296 583 q 254 303 254 406 q 293 172 254 214 q 431 131 332 131 q 541 142 486 131 q 636 163 596 153 l 621 18 q 517 -6 578 4 q 400 -17 457 -17 q 157 65 239 -17 q 75 301 75 147 q 106 547 75 432 q 201 751 138 663 q 360 890 264 839 q 588 940 457 940 q 713 931 658 940 q 806 914 767 922 m 653 1215 q 713 1197 690 1215 q 735 1144 735 1178 q 703 1066 735 1092 q 621 1040 672 1040 q 560 1060 582 1040 q 538 1113 538 1079 q 569 1190 538 1165 q 653 1215 601 1215 z "},"Ď":{"ha":901,"x_min":35,"x_max":876,"o":"m 231 924 l 526 924 q 784 841 692 924 q 876 601 876 758 q 859 431 876 518 q 803 265 842 344 q 704 121 765 185 q 556 20 643 57 q 354 -17 469 -17 q 203 -8 286 -17 q 35 19 119 0 l 231 924 m 375 783 l 233 139 q 297 131 260 133 q 367 128 333 128 q 520 172 457 128 q 622 288 583 217 q 680 442 661 358 q 699 601 699 525 q 650 742 699 700 q 506 783 601 783 l 375 783 m 478 1011 l 385 1235 l 522 1235 l 564 1099 l 663 1235 l 810 1235 l 621 1011 l 478 1011 z "},"Đ":{"ha":944,"x_min":56,"x_max":922,"o":"m 56 404 l 85 542 l 572 542 l 543 404 l 56 404 m 276 924 l 572 924 q 830 840 738 924 q 922 600 922 757 q 905 430 922 517 q 849 263 888 343 q 750 120 811 183 q 603 20 689 57 q 401 -17 517 -17 q 249 -8 332 -17 q 79 19 165 0 l 276 924 m 421 783 l 279 139 q 342 131 306 133 q 413 128 379 128 q 566 172 503 128 q 668 288 629 217 q 726 442 707 358 q 744 601 744 525 q 696 742 744 700 q 551 783 647 783 l 421 783 z "},"É":{"ha":721,"x_min":58,"x_max":782,"o":"m 221 924 l 768 924 l 738 783 l 365 783 l 314 543 l 657 543 l 626 401 l 283 401 l 250 243 q 265 165 239 189 q 349 142 290 142 l 619 142 l 590 0 l 315 0 q 165 25 225 0 q 82 104 106 50 q 76 246 58 158 l 221 924 m 600 1235 l 782 1235 l 571 1011 l 439 1011 l 600 1235 z "},"Ê":{"ha":721,"x_min":58,"x_max":768,"o":"m 221 924 l 768 924 l 738 783 l 365 783 l 314 543 l 657 543 l 626 401 l 283 401 l 250 243 q 265 165 239 189 q 349 142 290 142 l 619 142 l 590 0 l 315 0 q 165 25 225 0 q 82 104 106 50 q 76 246 58 158 l 221 924 m 521 1235 l 664 1235 l 757 1011 l 619 1011 l 578 1149 l 479 1011 l 332 1011 l 521 1235 z "},"Ë":{"ha":721,"x_min":58,"x_max":776,"o":"m 221 924 l 768 924 l 738 783 l 365 783 l 314 543 l 657 543 l 626 401 l 283 401 l 250 243 q 265 165 239 189 q 349 142 290 142 l 619 142 l 590 0 l 315 0 q 165 25 225 0 q 82 104 106 50 q 76 246 58 158 l 221 924 m 468 1215 q 519 1199 500 1215 q 538 1151 538 1182 q 507 1075 538 1104 q 432 1046 476 1046 q 383 1063 401 1046 q 364 1110 364 1079 q 394 1186 364 1157 q 468 1215 424 1215 m 708 1215 q 758 1199 740 1215 q 776 1151 776 1182 q 747 1075 776 1104 q 672 1046 717 1046 q 622 1063 640 1046 q 604 1110 604 1079 q 634 1186 604 1157 q 708 1215 664 1215 z "},"È":{"ha":721,"x_min":58,"x_max":768,"o":"m 221 924 l 768 924 l 738 783 l 365 783 l 314 543 l 657 543 l 626 401 l 283 401 l 250 243 q 265 165 239 189 q 349 142 290 142 l 619 142 l 590 0 l 315 0 q 165 25 225 0 q 82 104 106 50 q 76 246 58 158 l 221 924 m 388 1235 l 561 1235 l 625 1011 l 504 1011 l 388 1235 z "},"Ĕ":{"ha":721,"x_min":58,"x_max":797,"o":"m 221 924 l 768 924 l 738 783 l 365 783 l 314 543 l 657 543 l 626 401 l 283 401 l 250 243 q 265 165 239 189 q 349 142 290 142 l 619 142 l 590 0 l 315 0 q 165 25 225 0 q 82 104 106 50 q 76 246 58 158 l 221 924 m 379 1217 l 508 1217 q 517 1149 500 1169 q 569 1128 533 1128 q 631 1149 606 1128 q 668 1217 657 1169 l 797 1217 q 714 1069 771 1113 q 564 1026 657 1026 q 457 1045 503 1026 q 390 1106 411 1064 q 379 1217 368 1147 z "},"Ě":{"ha":721,"x_min":58,"x_max":804,"o":"m 221 924 l 768 924 l 738 783 l 365 783 l 314 543 l 657 543 l 626 401 l 283 401 l 250 243 q 265 165 239 189 q 349 142 290 142 l 619 142 l 590 0 l 315 0 q 165 25 225 0 q 82 104 106 50 q 76 246 58 158 l 221 924 m 472 1011 l 379 1235 l 517 1235 l 558 1099 l 657 1235 l 804 1235 l 615 1011 l 472 1011 z "},"Ė":{"ha":721,"x_min":58,"x_max":768,"o":"m 221 924 l 768 924 l 738 783 l 365 783 l 314 543 l 657 543 l 626 401 l 283 401 l 250 243 q 265 165 239 189 q 349 142 290 142 l 619 142 l 590 0 l 315 0 q 165 25 225 0 q 82 104 106 50 q 76 246 58 158 l 221 924 m 586 1215 q 646 1197 624 1215 q 668 1144 668 1178 q 637 1066 668 1092 q 554 1040 606 1040 q 493 1060 515 1040 q 471 1113 471 1079 q 503 1190 471 1165 q 586 1215 535 1215 z "},"Ē":{"ha":721,"x_min":58,"x_max":768,"o":"m 221 924 l 768 924 l 738 783 l 365 783 l 314 543 l 657 543 l 626 401 l 283 401 l 250 243 q 265 165 239 189 q 349 142 290 142 l 619 142 l 590 0 l 315 0 q 165 25 225 0 q 82 104 106 50 q 76 246 58 158 l 221 924 m 389 1163 l 765 1163 l 742 1053 l 365 1053 l 389 1163 z "},"Ę":{"ha":721,"x_min":58,"x_max":768,"o":"m 221 924 l 768 924 l 738 783 l 365 783 l 314 543 l 657 543 l 626 401 l 283 401 l 250 243 q 265 165 239 189 q 349 142 290 142 l 619 142 l 590 0 l 315 0 q 165 25 225 0 q 82 104 106 50 q 76 246 58 158 l 221 924 m 560 -149 l 556 -237 q 506 -253 533 -247 q 451 -260 479 -260 q 354 -233 388 -260 q 321 -161 321 -207 q 344 -91 321 -124 q 404 -32 368 -58 q 478 13 440 -6 l 590 0 q 526 -38 558 -17 q 474 -83 494 -60 q 453 -131 453 -107 q 463 -156 453 -149 q 493 -162 474 -162 q 525 -159 508 -162 q 560 -149 542 -156 z "},"Ǽ":{"ha":1231,"x_min":18,"x_max":1279,"o":"m 957 1235 l 1139 1235 l 928 1011 l 796 1011 l 957 1235 m 743 924 l 1279 924 l 1249 783 l 878 783 l 824 536 l 1165 536 l 1136 394 l 794 394 l 761 244 q 776 163 749 185 q 857 142 804 142 l 1128 142 l 1099 0 l 836 0 q 683 24 746 0 q 593 100 619 47 q 585 239 567 153 l 619 394 l 274 394 l 189 0 l 18 0 l 149 613 q 272 857 182 774 q 526 940 363 940 q 658 917 606 940 q 726 849 710 894 l 743 924 m 303 535 l 647 535 l 664 611 q 652 749 683 701 q 531 796 621 796 q 390 749 442 796 q 319 611 339 701 l 303 535 z "},"Ğ":{"ha":868,"x_min":75,"x_max":881,"o":"m 881 913 l 849 768 q 744 787 806 779 q 618 794 682 794 q 452 756 521 794 q 340 652 383 718 q 276 500 296 586 q 256 318 256 414 q 298 170 256 213 q 433 128 340 128 q 508 131 472 128 q 578 143 544 135 l 628 379 l 454 379 l 483 517 l 822 517 l 718 35 q 581 -1 661 15 q 424 -17 501 -17 q 236 17 314 -17 q 117 125 158 51 q 75 317 75 199 q 111 563 75 450 q 217 761 147 676 q 387 893 286 846 q 617 940 488 940 q 760 933 694 940 q 881 913 825 926 m 458 1217 l 588 1217 q 596 1149 579 1169 q 649 1128 613 1128 q 710 1149 685 1128 q 747 1217 736 1169 l 876 1217 q 793 1069 850 1113 q 643 1026 736 1026 q 536 1045 582 1026 q 469 1106 490 1064 q 458 1217 447 1147 z "},"Ĝ":{"ha":868,"x_min":75,"x_max":881,"o":"m 881 913 l 849 768 q 744 787 806 779 q 618 794 682 794 q 452 756 521 794 q 340 652 383 718 q 276 500 296 586 q 256 318 256 414 q 298 170 256 213 q 433 128 340 128 q 508 131 472 128 q 578 143 544 135 l 628 379 l 454 379 l 483 517 l 822 517 l 718 35 q 581 -1 661 15 q 424 -17 501 -17 q 236 17 314 -17 q 117 125 158 51 q 75 317 75 199 q 111 563 75 450 q 217 761 147 676 q 387 893 286 846 q 617 940 488 940 q 760 933 694 940 q 881 913 825 926 m 600 1235 l 743 1235 l 836 1011 l 699 1011 l 657 1149 l 558 1011 l 411 1011 l 600 1235 z "},"Ģ":{"ha":868,"x_min":75,"x_max":881,"o":"m 881 913 l 849 768 q 744 787 806 779 q 618 794 682 794 q 452 756 521 794 q 340 652 383 718 q 276 500 296 586 q 256 318 256 414 q 298 170 256 213 q 433 128 340 128 q 508 131 472 128 q 578 143 544 135 l 628 379 l 454 379 l 483 517 l 822 517 l 718 35 q 581 -1 661 15 q 424 -17 501 -17 q 236 17 314 -17 q 117 125 158 51 q 75 317 75 199 q 111 563 75 450 q 217 761 147 676 q 387 893 286 846 q 617 940 488 940 q 760 933 694 940 q 881 913 825 926 m 296 -64 l 467 -64 l 293 -261 l 168 -261 l 296 -64 z "},"Ġ":{"ha":868,"x_min":75,"x_max":881,"o":"m 881 913 l 849 768 q 744 787 806 779 q 618 794 682 794 q 452 756 521 794 q 340 652 383 718 q 276 500 296 586 q 256 318 256 414 q 298 170 256 213 q 433 128 340 128 q 508 131 472 128 q 578 143 544 135 l 628 379 l 454 379 l 483 517 l 822 517 l 718 35 q 581 -1 661 15 q 424 -17 501 -17 q 236 17 314 -17 q 117 125 158 51 q 75 317 75 199 q 111 563 75 450 q 217 761 147 676 q 387 893 286 846 q 617 940 488 940 q 760 933 694 940 q 881 913 825 926 m 665 1215 q 725 1197 703 1215 q 747 1144 747 1178 q 716 1066 747 1092 q 633 1040 685 1040 q 572 1060 594 1040 q 550 1113 550 1079 q 582 1190 550 1165 q 665 1215 614 1215 z "},"Ħ":{"ha":953,"x_min":29,"x_max":1051,"o":"m 225 924 l 399 924 l 313 521 l 701 521 l 788 924 l 963 924 l 767 0 l 592 0 l 671 376 l 282 376 l 203 0 l 29 0 l 225 924 m 63 665 l 89 789 l 1051 789 l 1025 665 l 63 665 z "},"Ĥ":{"ha":953,"x_min":33,"x_max":968,"o":"m 229 924 l 403 924 l 324 549 l 715 549 l 794 924 l 968 924 l 772 0 l 599 0 l 683 401 l 292 401 l 207 0 l 33 0 l 229 924 m 593 1235 l 736 1235 l 829 1011 l 692 1011 l 650 1149 l 551 1011 l 404 1011 l 593 1235 z "},"Í":{"ha":381,"x_min":29,"x_max":606,"o":"m 225 924 l 399 924 l 203 0 l 29 0 l 225 924 m 424 1235 l 606 1235 l 394 1011 l 263 1011 l 424 1235 z "},"Î":{"ha":381,"x_min":29,"x_max":557,"o":"m 225 924 l 399 924 l 203 0 l 29 0 l 225 924 m 321 1235 l 464 1235 l 557 1011 l 419 1011 l 378 1149 l 279 1011 l 132 1011 l 321 1235 z "},"Ï":{"ha":381,"x_min":29,"x_max":576,"o":"m 225 924 l 399 924 l 203 0 l 29 0 l 225 924 m 268 1215 q 319 1199 300 1215 q 338 1151 338 1182 q 307 1075 338 1104 q 232 1046 276 1046 q 183 1063 201 1046 q 164 1110 164 1079 q 194 1186 164 1157 q 268 1215 224 1215 m 508 1215 q 558 1199 540 1215 q 576 1151 576 1182 q 547 1075 576 1104 q 472 1046 517 1046 q 422 1063 440 1046 q 404 1110 404 1079 q 434 1186 404 1157 q 508 1215 464 1215 z "},"Ì":{"ha":381,"x_min":29,"x_max":425,"o":"m 225 924 l 399 924 l 203 0 l 29 0 l 225 924 m 188 1235 l 361 1235 l 425 1011 l 304 1011 l 188 1235 z "},"Ĭ":{"ha":381,"x_min":29,"x_max":597,"o":"m 225 924 l 399 924 l 203 0 l 29 0 l 225 924 m 179 1217 l 308 1217 q 317 1149 300 1169 q 369 1128 333 1128 q 431 1149 406 1128 q 468 1217 457 1169 l 597 1217 q 514 1069 571 1113 q 364 1026 457 1026 q 257 1045 303 1026 q 190 1106 211 1064 q 179 1217 168 1147 z "},"İ":{"ha":381,"x_min":29,"x_max":468,"o":"m 225 924 l 399 924 l 203 0 l 29 0 l 225 924 m 386 1215 q 446 1197 424 1215 q 468 1144 468 1178 q 437 1066 468 1092 q 354 1040 406 1040 q 293 1060 315 1040 q 271 1113 271 1079 q 303 1190 271 1165 q 386 1215 335 1215 z "},"Ī":{"ha":381,"x_min":29,"x_max":565,"o":"m 225 924 l 399 924 l 203 0 l 29 0 l 225 924 m 189 1163 l 565 1163 l 542 1053 l 165 1053 l 189 1163 z "},"Į":{"ha":381,"x_min":-67,"x_max":399,"o":"m 225 924 l 399 924 l 203 0 l 29 0 l 225 924 m 172 -149 l 168 -237 q 119 -253 146 -247 q 64 -260 92 -260 q -33 -233 0 -260 q -67 -161 -67 -207 q -43 -91 -67 -124 q 17 -32 -19 -58 q 90 13 53 -6 l 203 0 q 139 -38 171 -17 q 86 -83 107 -60 q 65 -131 65 -107 q 76 -156 65 -149 q 106 -162 86 -162 q 138 -159 121 -162 q 172 -149 154 -156 z "},"Ĩ":{"ha":381,"x_min":29,"x_max":608,"o":"m 225 924 l 399 924 l 203 0 l 29 0 l 225 924 m 228 1036 l 126 1078 q 187 1167 150 1129 q 279 1204 224 1204 q 342 1190 314 1204 q 395 1162 371 1176 q 439 1147 419 1147 q 480 1164 467 1147 q 507 1207 493 1181 l 608 1167 q 541 1073 578 1110 q 453 1036 504 1036 q 391 1051 419 1036 q 339 1082 363 1067 q 296 1097 315 1097 q 254 1078 269 1097 q 228 1036 239 1060 z "},"Ĵ":{"ha":383,"x_min":-185,"x_max":563,"o":"m 226 924 l 401 924 l 229 114 q 190 -4 215 47 q 125 -99 165 -56 q 26 -185 85 -143 q -114 -274 -32 -228 l -185 -153 q -47 -53 -96 -96 q 25 33 1 -11 q 60 136 49 76 l 226 924 m 326 1267 l 469 1267 l 563 1043 l 425 1043 l 383 1181 l 285 1043 l 138 1043 l 326 1267 z "},"Ķ":{"ha":878,"x_min":26,"x_max":958,"o":"m 222 924 l 397 924 l 303 478 l 758 924 l 958 924 l 553 531 q 633 485 601 515 q 687 402 665 456 q 722 260 708 349 l 763 0 l 582 0 l 550 214 q 524 328 540 288 q 481 388 507 369 q 415 411 456 407 l 257 264 l 200 0 l 26 0 l 222 924 m 301 -64 l 472 -64 l 299 -261 l 174 -261 l 301 -64 z "},"Ĺ":{"ha":682,"x_min":32,"x_max":607,"o":"m 229 924 l 403 924 l 236 142 l 596 142 l 567 0 l 32 0 l 229 924 m 425 1239 l 607 1239 l 396 1015 l 264 1015 l 425 1239 z "},"Ľ":{"ha":682,"x_min":32,"x_max":738,"o":"m 229 924 l 403 924 l 236 142 l 596 142 l 567 0 l 32 0 l 229 924 m 557 924 l 738 924 l 567 628 l 435 628 l 557 924 z "},"Ļ":{"ha":682,"x_min":32,"x_max":596,"o":"m 229 924 l 403 924 l 236 142 l 596 142 l 567 0 l 32 0 l 229 924 m 203 -64 l 374 -64 l 200 -261 l 75 -261 l 203 -64 z "},"Ŀ":{"ha":682,"x_min":32,"x_max":667,"o":"m 229 924 l 403 924 l 236 142 l 596 142 l 567 0 l 32 0 l 229 924 m 585 567 q 644 548 622 567 q 667 496 667 529 q 635 417 667 443 q 553 392 604 392 q 492 411 514 392 q 469 464 469 431 q 501 542 469 517 q 585 567 533 567 z "},"Ñ":{"ha":960,"x_min":32,"x_max":976,"o":"m 229 924 l 361 924 l 694 388 l 806 924 l 976 924 l 781 0 l 610 0 l 647 181 l 343 671 l 201 0 l 32 0 l 229 924 m 503 1036 l 401 1078 q 462 1167 425 1129 q 554 1204 499 1204 q 617 1190 589 1204 q 670 1162 646 1176 q 714 1147 694 1147 q 755 1164 742 1147 q 782 1207 768 1181 l 883 1167 q 816 1073 853 1110 q 728 1036 779 1036 q 666 1051 694 1036 q 614 1082 638 1067 q 571 1097 590 1097 q 529 1078 544 1097 q 503 1036 514 1060 z "},"Ń":{"ha":960,"x_min":32,"x_max":976,"o":"m 229 924 l 361 924 l 694 388 l 806 924 l 976 924 l 781 0 l 610 0 l 647 181 l 343 671 l 201 0 l 32 0 l 229 924 m 675 1235 l 857 1235 l 646 1011 l 514 1011 l 675 1235 z "},"Ň":{"ha":960,"x_min":32,"x_max":976,"o":"m 229 924 l 361 924 l 694 388 l 806 924 l 976 924 l 781 0 l 610 0 l 647 181 l 343 671 l 201 0 l 32 0 l 229 924 m 547 1011 l 454 1235 l 592 1235 l 633 1099 l 732 1235 l 879 1235 l 690 1011 l 547 1011 z "},"Ņ":{"ha":960,"x_min":32,"x_max":976,"o":"m 229 924 l 361 924 l 694 388 l 806 924 l 976 924 l 781 0 l 610 0 l 647 181 l 343 671 l 201 0 l 32 0 l 229 924 m 322 -64 l 493 -64 l 319 -261 l 194 -261 l 322 -64 z "},"Ŋ":{"ha":960,"x_min":29,"x_max":968,"o":"m 225 924 l 361 924 l 688 403 l 799 924 l 968 924 l 831 271 l 660 271 l 640 181 l 339 671 l 197 0 l 29 0 l 225 924 m 797 924 l 968 924 l 796 114 q 757 -4 782 47 q 692 -99 732 -56 q 594 -185 653 -143 q 454 -274 536 -228 l 383 -153 q 495 -76 451 -110 q 565 -11 539 -43 q 606 56 592 21 q 631 135 621 90 l 797 924 z "},"Ó":{"ha":933,"x_min":83,"x_max":903,"o":"m 579 940 q 819 860 735 940 q 903 613 903 779 q 872 379 903 492 q 778 177 840 267 q 622 35 715 88 q 406 -17 529 -17 q 167 63 250 -17 q 83 311 83 143 q 115 544 83 432 q 208 747 146 657 q 364 888 271 836 q 579 940 457 940 m 419 129 q 544 171 489 129 q 640 282 600 213 q 700 437 679 351 q 721 610 721 522 q 683 753 721 713 q 567 794 644 794 q 440 753 496 794 q 346 642 385 711 q 286 487 307 572 q 265 314 265 401 q 304 170 265 211 q 419 129 343 129 m 669 1235 l 851 1235 l 640 1011 l 508 1011 l 669 1235 z "},"Ô":{"ha":933,"x_min":83,"x_max":903,"o":"m 579 940 q 819 860 735 940 q 903 613 903 779 q 872 379 903 492 q 778 177 840 267 q 622 35 715 88 q 406 -17 529 -17 q 167 63 250 -17 q 83 311 83 143 q 115 544 83 432 q 208 747 146 657 q 364 888 271 836 q 579 940 457 940 m 419 129 q 544 171 489 129 q 640 282 600 213 q 700 437 679 351 q 721 610 721 522 q 683 753 721 713 q 567 794 644 794 q 440 753 496 794 q 346 642 385 711 q 286 487 307 572 q 265 314 265 401 q 304 170 265 211 q 419 129 343 129 m 590 1235 l 733 1235 l 826 1011 l 689 1011 l 647 1149 l 549 1011 l 401 1011 l 590 1235 z "},"Ö":{"ha":933,"x_min":83,"x_max":903,"o":"m 579 940 q 819 860 735 940 q 903 613 903 779 q 872 379 903 492 q 778 177 840 267 q 622 35 715 88 q 406 -17 529 -17 q 167 63 250 -17 q 83 311 83 143 q 115 544 83 432 q 208 747 146 657 q 364 888 271 836 q 579 940 457 940 m 419 129 q 544 171 489 129 q 640 282 600 213 q 700 437 679 351 q 721 610 721 522 q 683 753 721 713 q 567 794 644 794 q 440 753 496 794 q 346 642 385 711 q 286 487 307 572 q 265 314 265 401 q 304 170 265 211 q 419 129 343 129 m 538 1215 q 588 1199 569 1215 q 607 1151 607 1182 q 576 1075 607 1104 q 501 1046 546 1046 q 452 1063 471 1046 q 433 1110 433 1079 q 463 1186 433 1157 q 538 1215 493 1215 m 778 1215 q 828 1199 810 1215 q 846 1151 846 1182 q 816 1075 846 1104 q 742 1046 786 1046 q 692 1063 710 1046 q 674 1110 674 1079 q 703 1186 674 1157 q 778 1215 733 1215 z "},"Ò":{"ha":933,"x_min":83,"x_max":903,"o":"m 579 940 q 819 860 735 940 q 903 613 903 779 q 872 379 903 492 q 778 177 840 267 q 622 35 715 88 q 406 -17 529 -17 q 167 63 250 -17 q 83 311 83 143 q 115 544 83 432 q 208 747 146 657 q 364 888 271 836 q 579 940 457 940 m 419 129 q 544 171 489 129 q 640 282 600 213 q 700 437 679 351 q 721 610 721 522 q 683 753 721 713 q 567 794 644 794 q 440 753 496 794 q 346 642 385 711 q 286 487 307 572 q 265 314 265 401 q 304 170 265 211 q 419 129 343 129 m 457 1235 l 631 1235 l 694 1011 l 574 1011 l 457 1235 z "},"Õ":{"ha":933,"x_min":83,"x_max":903,"o":"m 579 940 q 819 860 735 940 q 903 613 903 779 q 872 379 903 492 q 778 177 840 267 q 622 35 715 88 q 406 -17 529 -17 q 167 63 250 -17 q 83 311 83 143 q 115 544 83 432 q 208 747 146 657 q 364 888 271 836 q 579 940 457 940 m 419 129 q 544 171 489 129 q 640 282 600 213 q 700 437 679 351 q 721 610 721 522 q 683 753 721 713 q 567 794 644 794 q 440 753 496 794 q 346 642 385 711 q 286 487 307 572 q 265 314 265 401 q 304 170 265 211 q 419 129 343 129 m 497 1036 l 396 1078 q 456 1167 419 1129 q 549 1204 493 1204 q 612 1190 583 1204 q 665 1162 640 1176 q 708 1147 689 1147 q 749 1164 736 1147 q 776 1207 763 1181 l 878 1167 q 810 1073 847 1110 q 722 1036 774 1036 q 660 1051 689 1036 q 608 1082 632 1067 q 565 1097 585 1097 q 524 1078 539 1097 q 497 1036 508 1060 z "},"Ŏ":{"ha":933,"x_min":83,"x_max":903,"o":"m 579 940 q 819 860 735 940 q 903 613 903 779 q 872 379 903 492 q 778 177 840 267 q 622 35 715 88 q 406 -17 529 -17 q 167 63 250 -17 q 83 311 83 143 q 115 544 83 432 q 208 747 146 657 q 364 888 271 836 q 579 940 457 940 m 419 129 q 544 171 489 129 q 640 282 600 213 q 700 437 679 351 q 721 610 721 522 q 683 753 721 713 q 567 794 644 794 q 440 753 496 794 q 346 642 385 711 q 286 487 307 572 q 265 314 265 401 q 304 170 265 211 q 419 129 343 129 m 449 1217 l 578 1217 q 586 1149 569 1169 q 639 1128 603 1128 q 701 1149 675 1128 q 738 1217 726 1169 l 867 1217 q 783 1069 840 1113 q 633 1026 726 1026 q 526 1045 572 1026 q 459 1106 481 1064 q 449 1217 438 1147 z "},"Ő":{"ha":933,"x_min":83,"x_max":903,"o":"m 579 940 q 819 860 735 940 q 903 613 903 779 q 872 379 903 492 q 778 177 840 267 q 622 35 715 88 q 406 -17 529 -17 q 167 63 250 -17 q 83 311 83 143 q 115 544 83 432 q 208 747 146 657 q 364 888 271 836 q 579 940 457 940 m 419 129 q 544 171 489 129 q 640 282 600 213 q 700 437 679 351 q 721 610 721 522 q 683 753 721 713 q 567 794 644 794 q 440 753 496 794 q 346 642 385 711 q 286 487 307 572 q 265 314 265 401 q 304 170 265 211 q 419 129 343 129 m 543 1235 l 686 1235 l 560 1011 l 451 1011 l 543 1235 m 744 1235 l 899 1235 l 743 1011 l 632 1011 l 744 1235 z "},"Ō":{"ha":933,"x_min":83,"x_max":903,"o":"m 579 940 q 819 860 735 940 q 903 613 903 779 q 872 379 903 492 q 778 177 840 267 q 622 35 715 88 q 406 -17 529 -17 q 167 63 250 -17 q 83 311 83 143 q 115 544 83 432 q 208 747 146 657 q 364 888 271 836 q 579 940 457 940 m 419 129 q 544 171 489 129 q 640 282 600 213 q 700 437 679 351 q 721 610 721 522 q 683 753 721 713 q 567 794 644 794 q 440 753 496 794 q 346 642 385 711 q 286 487 307 572 q 265 314 265 401 q 304 170 265 211 q 419 129 343 129 m 458 1163 l 835 1163 l 811 1053 l 435 1053 l 458 1163 z "},"Ǿ":{"ha":933,"x_min":-8,"x_max":975,"o":"m 975 944 l 92 -103 l -8 -26 l 876 1021 l 975 944 m 572 940 q 811 860 728 940 q 894 613 894 779 q 863 379 894 492 q 769 177 832 267 q 615 35 707 88 q 399 -17 522 -17 q 159 64 243 -17 q 75 311 75 144 q 106 544 75 432 q 200 747 138 657 q 356 888 263 836 q 572 940 449 940 m 411 121 q 538 163 482 121 q 635 276 594 206 q 696 434 675 347 q 717 610 717 521 q 678 760 717 717 q 560 803 639 803 q 432 760 489 803 q 335 647 375 718 q 275 490 296 576 q 254 314 254 403 q 294 163 254 206 q 411 121 333 121 m 669 1235 l 851 1235 l 640 1011 l 508 1011 l 669 1235 z "},"Ŕ":{"ha":836,"x_min":32,"x_max":817,"o":"m 228 924 l 518 924 q 741 869 665 924 q 817 692 817 814 q 788 556 817 617 q 709 456 758 496 q 597 399 660 415 q 659 344 636 383 q 692 231 682 306 l 719 0 l 544 0 l 522 193 q 502 282 515 250 q 462 327 489 314 q 386 340 435 340 l 278 340 l 206 0 l 32 0 l 228 924 m 644 676 q 609 759 644 735 q 501 783 574 783 l 371 783 l 307 482 l 425 482 q 547 506 499 482 q 620 575 596 531 q 644 676 644 619 m 606 1235 l 788 1235 l 576 1011 l 444 1011 l 606 1235 z "},"Ř":{"ha":836,"x_min":32,"x_max":817,"o":"m 228 924 l 518 924 q 741 869 665 924 q 817 692 817 814 q 788 556 817 617 q 709 456 758 496 q 597 399 660 415 q 659 344 636 383 q 692 231 682 306 l 719 0 l 544 0 l 522 193 q 502 282 515 250 q 462 327 489 314 q 386 340 435 340 l 278 340 l 206 0 l 32 0 l 228 924 m 644 676 q 609 759 644 735 q 501 783 574 783 l 371 783 l 307 482 l 425 482 q 547 506 499 482 q 620 575 596 531 q 644 676 644 619 m 474 1011 l 381 1235 l 518 1235 l 560 1099 l 658 1235 l 806 1235 l 617 1011 l 474 1011 z "},"Ŗ":{"ha":836,"x_min":32,"x_max":817,"o":"m 228 924 l 518 924 q 741 869 665 924 q 817 692 817 814 q 788 556 817 617 q 709 456 758 496 q 597 399 660 415 q 659 344 636 383 q 692 231 682 306 l 719 0 l 544 0 l 522 193 q 502 282 515 250 q 462 327 489 314 q 386 340 435 340 l 278 340 l 206 0 l 32 0 l 228 924 m 644 676 q 609 759 644 735 q 501 783 574 783 l 371 783 l 307 482 l 425 482 q 547 506 499 482 q 620 575 596 531 q 644 676 644 619 m 271 -64 l 442 -64 l 268 -261 l 143 -261 l 271 -64 z "},"Š":{"ha":721,"x_min":11,"x_max":790,"o":"m 735 917 l 693 781 q 603 795 653 789 q 507 801 553 801 q 363 773 410 801 q 317 693 317 744 q 340 625 317 656 q 401 567 364 594 q 481 511 439 540 q 561 447 524 482 q 622 365 599 411 q 646 257 646 319 q 603 100 646 160 q 480 12 560 40 q 290 -17 400 -17 q 134 -3 203 -17 q 11 29 65 11 l 54 165 q 166 135 110 147 q 293 122 222 122 q 428 154 388 122 q 468 239 468 186 q 444 312 468 279 q 383 374 421 344 q 303 433 344 403 q 223 498 261 463 q 161 578 185 533 q 138 683 138 624 q 183 828 138 771 q 313 913 229 885 q 507 940 396 940 q 627 933 567 940 q 735 917 688 926 m 458 1011 l 365 1235 l 503 1235 l 544 1099 l 643 1235 l 790 1235 l 601 1011 l 458 1011 z "},"Ś":{"ha":721,"x_min":11,"x_max":768,"o":"m 735 917 l 693 781 q 603 795 653 789 q 507 801 553 801 q 363 773 410 801 q 317 693 317 744 q 340 625 317 656 q 401 567 364 594 q 481 511 439 540 q 561 447 524 482 q 622 365 599 411 q 646 257 646 319 q 603 100 646 160 q 480 12 560 40 q 290 -17 400 -17 q 134 -3 203 -17 q 11 29 65 11 l 54 165 q 166 135 110 147 q 293 122 222 122 q 428 154 388 122 q 468 239 468 186 q 444 312 468 279 q 383 374 421 344 q 303 433 344 403 q 223 498 261 463 q 161 578 185 533 q 138 683 138 624 q 183 828 138 771 q 313 913 229 885 q 507 940 396 940 q 627 933 567 940 q 735 917 688 926 m 586 1235 l 768 1235 l 557 1011 l 425 1011 l 586 1235 z "},"Ş":{"ha":721,"x_min":11,"x_max":735,"o":"m 735 917 l 693 781 q 603 795 653 789 q 507 801 553 801 q 363 773 410 801 q 317 693 317 744 q 340 625 317 656 q 401 567 364 594 q 481 511 439 540 q 561 447 524 482 q 622 365 599 411 q 646 257 646 319 q 603 100 646 160 q 480 12 560 40 q 290 -17 400 -17 q 134 -3 203 -17 q 11 29 65 11 l 54 165 q 166 135 110 147 q 293 122 222 122 q 428 154 388 122 q 468 239 468 186 q 444 312 468 279 q 383 374 421 344 q 303 433 344 403 q 223 498 261 463 q 161 578 185 533 q 138 683 138 624 q 183 828 138 771 q 313 913 229 885 q 507 940 396 940 q 627 933 567 940 q 735 917 688 926 m 231 -51 l 344 -51 q 362 -97 356 -71 q 368 -150 368 -124 q 328 -242 368 -207 q 201 -276 288 -276 q 142 -272 172 -276 q 88 -257 113 -267 l 125 -168 q 153 -176 136 -172 q 185 -179 171 -179 q 232 -163 218 -179 q 246 -119 246 -147 q 242 -85 246 -103 q 231 -51 238 -68 z "},"Ŝ":{"ha":721,"x_min":11,"x_max":743,"o":"m 735 917 l 693 781 q 603 795 653 789 q 507 801 553 801 q 363 773 410 801 q 317 693 317 744 q 340 625 317 656 q 401 567 364 594 q 481 511 439 540 q 561 447 524 482 q 622 365 599 411 q 646 257 646 319 q 603 100 646 160 q 480 12 560 40 q 290 -17 400 -17 q 134 -3 203 -17 q 11 29 65 11 l 54 165 q 166 135 110 147 q 293 122 222 122 q 428 154 388 122 q 468 239 468 186 q 444 312 468 279 q 383 374 421 344 q 303 433 344 403 q 223 498 261 463 q 161 578 185 533 q 138 683 138 624 q 183 828 138 771 q 313 913 229 885 q 507 940 396 940 q 627 933 567 940 q 735 917 688 926 m 507 1235 l 650 1235 l 743 1011 l 606 1011 l 564 1149 l 465 1011 l 318 1011 l 507 1235 z "},"Ș":{"ha":721,"x_min":11,"x_max":735,"o":"m 735 917 l 693 781 q 603 795 653 789 q 507 801 553 801 q 363 773 410 801 q 317 693 317 744 q 340 625 317 656 q 401 567 364 594 q 481 511 439 540 q 561 447 524 482 q 622 365 599 411 q 646 257 646 319 q 603 100 646 160 q 480 12 560 40 q 290 -17 400 -17 q 134 -3 203 -17 q 11 29 65 11 l 54 165 q 166 135 110 147 q 293 122 222 122 q 428 154 388 122 q 468 239 468 186 q 444 312 468 279 q 383 374 421 344 q 303 433 344 403 q 223 498 261 463 q 161 578 185 533 q 138 683 138 624 q 183 828 138 771 q 313 913 229 885 q 507 940 396 940 q 627 933 567 940 q 735 917 688 926 m 174 -64 l 344 -64 l 171 -261 l 46 -261 l 174 -64 z "},"Ţ":{"ha":817,"x_min":101,"x_max":897,"o":"m 164 924 l 897 924 l 867 783 l 590 783 l 424 0 l 250 0 l 415 783 l 133 783 l 164 924 m 229 -64 l 400 -64 l 226 -261 l 101 -261 l 229 -64 z "},"Ŧ":{"ha":817,"x_min":121,"x_max":899,"o":"m 164 924 l 899 924 l 869 789 l 597 789 l 431 0 l 239 0 l 407 789 l 135 789 l 164 924 m 711 385 l 121 385 l 149 515 l 739 515 l 711 385 z "},"Ť":{"ha":817,"x_min":133,"x_max":897,"o":"m 164 924 l 897 924 l 867 783 l 590 783 l 424 0 l 250 0 l 415 783 l 133 783 l 164 924 m 488 1015 l 394 1239 l 532 1239 l 574 1103 l 672 1239 l 819 1239 l 631 1015 l 488 1015 z "},"Ú":{"ha":911,"x_min":74,"x_max":928,"o":"m 215 924 l 390 924 l 263 324 q 260 217 250 261 q 310 150 271 174 q 419 126 349 126 q 513 134 468 126 q 589 151 558 142 l 754 924 l 928 924 l 740 40 q 578 -1 663 14 q 403 -17 494 -17 q 228 9 297 -17 q 124 82 160 35 q 81 192 89 129 q 89 331 74 256 l 215 924 m 656 1235 l 838 1235 l 626 1011 l 494 1011 l 656 1235 z "},"Û":{"ha":911,"x_min":74,"x_max":928,"o":"m 215 924 l 390 924 l 263 324 q 260 217 250 261 q 310 150 271 174 q 419 126 349 126 q 513 134 468 126 q 589 151 558 142 l 754 924 l 928 924 l 740 40 q 578 -1 663 14 q 403 -17 494 -17 q 228 9 297 -17 q 124 82 160 35 q 81 192 89 129 q 89 331 74 256 l 215 924 m 576 1235 l 719 1235 l 813 1011 l 675 1011 l 633 1149 l 535 1011 l 388 1011 l 576 1235 z "},"Ü":{"ha":911,"x_min":74,"x_max":928,"o":"m 215 924 l 390 924 l 263 324 q 260 217 250 261 q 310 150 271 174 q 419 126 349 126 q 513 134 468 126 q 589 151 558 142 l 754 924 l 928 924 l 740 40 q 578 -1 663 14 q 403 -17 494 -17 q 228 9 297 -17 q 124 82 160 35 q 81 192 89 129 q 89 331 74 256 l 215 924 m 524 1215 q 574 1199 556 1215 q 593 1151 593 1182 q 563 1075 593 1104 q 488 1046 532 1046 q 438 1063 457 1046 q 419 1110 419 1079 q 449 1186 419 1157 q 524 1215 479 1215 m 764 1215 q 814 1199 796 1215 q 832 1151 832 1182 q 802 1075 832 1104 q 728 1046 772 1046 q 678 1063 696 1046 q 660 1110 660 1079 q 690 1186 660 1157 q 764 1215 719 1215 z "},"Ù":{"ha":911,"x_min":74,"x_max":928,"o":"m 215 924 l 390 924 l 263 324 q 260 217 250 261 q 310 150 271 174 q 419 126 349 126 q 513 134 468 126 q 589 151 558 142 l 754 924 l 928 924 l 740 40 q 578 -1 663 14 q 403 -17 494 -17 q 228 9 297 -17 q 124 82 160 35 q 81 192 89 129 q 89 331 74 256 l 215 924 m 443 1235 l 617 1235 l 681 1011 l 560 1011 l 443 1235 z "},"Ŭ":{"ha":911,"x_min":74,"x_max":928,"o":"m 215 924 l 390 924 l 263 324 q 260 217 250 261 q 310 150 271 174 q 419 126 349 126 q 513 134 468 126 q 589 151 558 142 l 754 924 l 928 924 l 740 40 q 578 -1 663 14 q 403 -17 494 -17 q 228 9 297 -17 q 124 82 160 35 q 81 192 89 129 q 89 331 74 256 l 215 924 m 435 1217 l 564 1217 q 572 1149 556 1169 q 625 1128 589 1128 q 687 1149 661 1128 q 724 1217 713 1169 l 853 1217 q 769 1069 826 1113 q 619 1026 713 1026 q 513 1045 558 1026 q 445 1106 467 1064 q 435 1217 424 1147 z "},"Ű":{"ha":911,"x_min":74,"x_max":928,"o":"m 215 924 l 390 924 l 263 324 q 260 217 250 261 q 310 150 271 174 q 419 126 349 126 q 513 134 468 126 q 589 151 558 142 l 754 924 l 928 924 l 740 40 q 578 -1 663 14 q 403 -17 494 -17 q 228 9 297 -17 q 124 82 160 35 q 81 192 89 129 q 89 331 74 256 l 215 924 m 529 1235 l 672 1235 l 546 1011 l 438 1011 l 529 1235 m 731 1235 l 885 1235 l 729 1011 l 618 1011 l 731 1235 z "},"Ū":{"ha":911,"x_min":74,"x_max":928,"o":"m 215 924 l 390 924 l 263 324 q 260 217 250 261 q 310 150 271 174 q 419 126 349 126 q 513 134 468 126 q 589 151 558 142 l 754 924 l 928 924 l 740 40 q 578 -1 663 14 q 403 -17 494 -17 q 228 9 297 -17 q 124 82 160 35 q 81 192 89 129 q 89 331 74 256 l 215 924 m 444 1163 l 821 1163 l 797 1053 l 421 1053 l 444 1163 z "},"Ų":{"ha":911,"x_min":74,"x_max":928,"o":"m 215 924 l 390 924 l 263 324 q 260 217 250 261 q 310 150 271 174 q 419 126 349 126 q 513 133 468 126 q 589 150 558 140 l 754 924 l 928 924 l 740 39 q 578 -1 663 14 q 403 -17 494 -17 q 228 9 297 -17 q 124 82 160 35 q 81 192 89 129 q 89 331 74 256 l 215 924 m 700 -149 l 696 -237 q 647 -253 674 -247 q 593 -260 619 -260 q 494 -233 528 -260 q 461 -161 461 -207 q 485 -83 461 -119 q 547 -18 510 -47 q 621 31 583 11 l 740 39 q 668 -15 701 13 q 614 -72 635 -43 q 593 -131 593 -100 q 604 -156 593 -149 q 633 -162 615 -162 q 700 -149 664 -162 z "},"Ů":{"ha":911,"x_min":74,"x_max":928,"o":"m 215 924 l 390 924 l 263 324 q 260 217 250 261 q 310 150 271 174 q 419 126 349 126 q 513 134 468 126 q 589 151 558 142 l 754 924 l 928 924 l 740 40 q 578 -1 663 14 q 403 -17 494 -17 q 228 9 297 -17 q 124 82 160 35 q 81 192 89 129 q 89 331 74 256 l 215 924 m 613 1074 q 660 1092 640 1074 q 679 1140 679 1110 q 667 1173 679 1164 q 636 1182 656 1182 q 589 1165 608 1182 q 569 1115 569 1147 q 581 1083 569 1092 q 613 1074 593 1074 m 640 1258 q 741 1229 701 1258 q 781 1142 781 1200 q 733 1035 781 1074 q 608 996 685 996 q 508 1026 549 996 q 467 1114 467 1056 q 515 1220 467 1182 q 640 1258 564 1258 z "},"Ũ":{"ha":911,"x_min":74,"x_max":928,"o":"m 215 924 l 390 924 l 263 324 q 260 217 250 261 q 310 150 271 174 q 419 126 349 126 q 513 134 468 126 q 589 151 558 142 l 754 924 l 928 924 l 740 40 q 578 -1 663 14 q 403 -17 494 -17 q 228 9 297 -17 q 124 82 160 35 q 81 192 89 129 q 89 331 74 256 l 215 924 m 483 1036 l 382 1078 q 442 1167 406 1129 q 535 1204 479 1204 q 598 1190 569 1204 q 651 1162 626 1176 q 694 1147 675 1147 q 735 1164 722 1147 q 763 1207 749 1181 l 864 1167 q 797 1073 833 1110 q 708 1036 760 1036 q 647 1051 675 1036 q 594 1082 618 1067 q 551 1097 571 1097 q 510 1078 525 1097 q 483 1036 494 1060 z "},"Ẃ":{"ha":1240,"x_min":164,"x_max":1311,"o":"m 353 0 l 182 0 l 164 924 l 336 924 l 332 228 l 631 749 l 776 749 l 853 218 q 1007 540 933 365 q 1149 924 1081 714 l 1311 924 q 1219 667 1267 789 q 1121 432 1172 544 q 1013 213 1069 319 q 894 0 957 106 l 738 0 l 667 556 l 353 0 m 826 1235 l 1008 1235 l 797 1011 l 665 1011 l 826 1235 z "},"Ŵ":{"ha":1240,"x_min":164,"x_max":1311,"o":"m 353 0 l 182 0 l 164 924 l 336 924 l 332 228 l 631 749 l 776 749 l 853 218 q 1007 540 933 365 q 1149 924 1081 714 l 1311 924 q 1219 667 1267 789 q 1121 432 1172 544 q 1013 213 1069 319 q 894 0 957 106 l 738 0 l 667 556 l 353 0 m 747 1235 l 890 1235 l 983 1011 l 846 1011 l 804 1149 l 706 1011 l 558 1011 l 747 1235 z "},"Ẅ":{"ha":1240,"x_min":164,"x_max":1311,"o":"m 353 0 l 182 0 l 164 924 l 336 924 l 332 228 l 631 749 l 776 749 l 853 218 q 1007 540 933 365 q 1149 924 1081 714 l 1311 924 q 1219 667 1267 789 q 1121 432 1172 544 q 1013 213 1069 319 q 894 0 957 106 l 738 0 l 667 556 l 353 0 m 694 1215 q 745 1199 726 1215 q 764 1151 764 1182 q 733 1075 764 1104 q 658 1046 703 1046 q 609 1063 628 1046 q 590 1110 590 1079 q 620 1186 590 1157 q 694 1215 650 1215 m 935 1215 q 985 1199 967 1215 q 1003 1151 1003 1182 q 973 1075 1003 1104 q 899 1046 943 1046 q 849 1063 867 1046 q 831 1110 831 1079 q 860 1186 831 1157 q 935 1215 890 1215 z "},"Ẁ":{"ha":1240,"x_min":164,"x_max":1311,"o":"m 353 0 l 182 0 l 164 924 l 336 924 l 332 228 l 631 749 l 776 749 l 853 218 q 1007 540 933 365 q 1149 924 1081 714 l 1311 924 q 1219 667 1267 789 q 1121 432 1172 544 q 1013 213 1069 319 q 894 0 957 106 l 738 0 l 667 556 l 353 0 m 614 1235 l 788 1235 l 851 1011 l 731 1011 l 614 1235 z "},"Ý":{"ha":864,"x_min":153,"x_max":949,"o":"m 272 0 l 342 326 l 153 924 l 329 924 l 465 478 q 546 562 503 511 q 632 674 589 613 q 711 799 675 735 q 769 924 747 863 l 949 924 q 829 702 899 813 q 680 496 760 592 q 515 332 600 400 l 446 0 l 272 0 m 640 1235 l 822 1235 l 611 1011 l 479 1011 l 640 1235 z "},"Ÿ":{"ha":864,"x_min":153,"x_max":949,"o":"m 272 0 l 342 326 l 153 924 l 329 924 l 465 478 q 546 562 503 511 q 632 674 589 613 q 711 799 675 735 q 769 924 747 863 l 949 924 q 829 702 899 813 q 680 496 760 592 q 515 332 600 400 l 446 0 l 272 0 m 508 1215 q 559 1199 540 1215 q 578 1151 578 1182 q 547 1075 578 1104 q 472 1046 517 1046 q 423 1063 442 1046 q 404 1110 404 1079 q 434 1186 404 1157 q 508 1215 464 1215 m 749 1215 q 799 1199 781 1215 q 817 1151 817 1182 q 787 1075 817 1104 q 713 1046 757 1046 q 663 1063 681 1046 q 644 1110 644 1079 q 674 1186 644 1157 q 749 1215 704 1215 z "},"Ŷ":{"ha":864,"x_min":153,"x_max":949,"o":"m 272 0 l 342 326 l 153 924 l 329 924 l 465 478 q 546 562 503 511 q 632 674 589 613 q 711 799 675 735 q 769 924 747 863 l 949 924 q 829 702 899 813 q 680 496 760 592 q 515 332 600 400 l 446 0 l 272 0 m 561 1235 l 704 1235 l 797 1011 l 660 1011 l 618 1149 l 519 1011 l 372 1011 l 561 1235 z "},"Ỳ":{"ha":864,"x_min":153,"x_max":949,"o":"m 272 0 l 342 326 l 153 924 l 329 924 l 465 478 q 546 562 503 511 q 632 674 589 613 q 711 799 675 735 q 769 924 747 863 l 949 924 q 829 702 899 813 q 680 496 760 592 q 515 332 600 400 l 446 0 l 272 0 m 428 1235 l 601 1235 l 665 1011 l 544 1011 l 428 1235 z "},"Ž":{"ha":797,"x_min":-19,"x_max":853,"o":"m 192 924 l 853 924 l 824 790 l 228 143 l 699 143 l 669 0 l -19 0 l 8 135 l 606 783 l 161 783 l 192 924 m 476 1011 l 383 1235 l 521 1235 l 563 1099 l 661 1235 l 808 1235 l 619 1011 l 476 1011 z "},"Ź":{"ha":797,"x_min":-19,"x_max":853,"o":"m 192 924 l 853 924 l 824 790 l 228 143 l 699 143 l 669 0 l -19 0 l 8 135 l 606 783 l 161 783 l 192 924 m 604 1235 l 786 1235 l 575 1011 l 443 1011 l 604 1235 z "},"Ż":{"ha":797,"x_min":-19,"x_max":853,"o":"m 192 924 l 853 924 l 824 790 l 228 143 l 699 143 l 669 0 l -19 0 l 8 135 l 606 783 l 161 783 l 192 924 m 590 1215 q 650 1197 628 1215 q 672 1144 672 1178 q 641 1066 672 1092 q 558 1040 610 1040 q 497 1060 519 1040 q 475 1113 475 1079 q 507 1190 475 1165 q 590 1215 539 1215 z "},"á":{"ha":813,"x_min":39,"x_max":747,"o":"m 281 -17 q 158 10 213 -17 q 71 94 103 36 q 39 249 39 153 q 88 490 39 383 q 231 657 138 596 q 454 718 324 718 q 597 702 524 718 q 729 660 669 686 l 633 210 q 628 168 628 188 q 642 130 628 140 q 681 119 656 119 q 713 122 696 119 q 747 131 729 125 l 725 1 q 673 -12 699 -7 q 622 -17 647 -17 q 536 2 569 -17 q 490 58 503 21 q 403 7 456 31 q 281 -17 350 -17 m 546 567 q 495 581 524 575 q 438 586 467 586 q 313 541 365 586 q 231 421 260 496 q 203 253 203 346 q 233 148 203 181 q 314 115 263 115 q 392 131 353 115 q 463 171 432 147 l 546 567 m 532 1014 l 714 1014 l 503 790 l 371 790 l 532 1014 z "},"â":{"ha":813,"x_min":39,"x_max":747,"o":"m 281 -17 q 158 10 213 -17 q 71 94 103 36 q 39 249 39 153 q 88 490 39 383 q 231 657 138 596 q 454 718 324 718 q 597 702 524 718 q 729 660 669 686 l 633 210 q 628 168 628 188 q 642 130 628 140 q 681 119 656 119 q 713 122 696 119 q 747 131 729 125 l 725 1 q 673 -12 699 -7 q 622 -17 647 -17 q 536 2 569 -17 q 490 58 503 21 q 403 7 456 31 q 281 -17 350 -17 m 546 567 q 495 581 524 575 q 438 586 467 586 q 313 541 365 586 q 231 421 260 496 q 203 253 203 346 q 233 148 203 181 q 314 115 263 115 q 392 131 353 115 q 463 171 432 147 l 546 567 m 453 1014 l 596 1014 l 689 790 l 551 790 l 510 928 l 411 790 l 264 790 l 453 1014 z "},"ä":{"ha":813,"x_min":39,"x_max":747,"o":"m 281 -17 q 158 10 213 -17 q 71 94 103 36 q 39 249 39 153 q 88 490 39 383 q 231 657 138 596 q 454 718 324 718 q 597 702 524 718 q 729 660 669 686 l 633 210 q 628 168 628 188 q 642 130 628 140 q 681 119 656 119 q 713 122 696 119 q 747 131 729 125 l 725 1 q 673 -12 699 -7 q 622 -17 647 -17 q 536 2 569 -17 q 490 58 503 21 q 403 7 456 31 q 281 -17 350 -17 m 546 567 q 495 581 524 575 q 438 586 467 586 q 313 541 365 586 q 231 421 260 496 q 203 253 203 346 q 233 148 203 181 q 314 115 263 115 q 392 131 353 115 q 463 171 432 147 l 546 567 m 400 994 q 451 978 432 994 q 469 931 469 961 q 439 854 469 883 q 364 825 408 825 q 315 842 333 825 q 296 889 296 858 q 326 965 296 936 q 400 994 356 994 m 640 994 q 690 978 672 994 q 708 931 708 961 q 678 854 708 883 q 604 825 649 825 q 554 842 572 825 q 536 889 536 858 q 566 965 536 936 q 640 994 596 994 z "},"à":{"ha":813,"x_min":39,"x_max":747,"o":"m 281 -17 q 158 10 213 -17 q 71 94 103 36 q 39 249 39 153 q 88 490 39 383 q 231 657 138 596 q 454 718 324 718 q 597 702 524 718 q 729 660 669 686 l 633 210 q 628 168 628 188 q 642 130 628 140 q 681 119 656 119 q 713 122 696 119 q 747 131 729 125 l 725 1 q 673 -12 699 -7 q 622 -17 647 -17 q 536 2 569 -17 q 490 58 503 21 q 403 7 456 31 q 281 -17 350 -17 m 546 567 q 495 581 524 575 q 438 586 467 586 q 313 541 365 586 q 231 421 260 496 q 203 253 203 346 q 233 148 203 181 q 314 115 263 115 q 392 131 353 115 q 463 171 432 147 l 546 567 m 319 1014 l 493 1014 l 557 790 l 436 790 l 319 1014 z "},"å":{"ha":813,"x_min":39,"x_max":747,"o":"m 281 -17 q 158 10 213 -17 q 71 94 103 36 q 39 249 39 153 q 88 490 39 383 q 231 657 138 596 q 454 718 324 718 q 597 702 524 718 q 729 660 669 686 l 633 210 q 628 168 628 188 q 642 130 628 140 q 681 119 656 119 q 713 122 696 119 q 747 131 729 125 l 725 1 q 673 -12 699 -7 q 622 -17 647 -17 q 536 2 569 -17 q 490 58 503 21 q 403 7 456 31 q 281 -17 350 -17 m 546 567 q 495 581 524 575 q 438 586 467 586 q 313 541 365 586 q 231 421 260 496 q 203 253 203 346 q 233 148 203 181 q 314 115 263 115 q 392 131 353 115 q 463 171 432 147 l 546 567 m 489 853 q 536 871 517 853 q 556 919 556 889 q 544 952 556 943 q 513 961 532 961 q 465 944 485 961 q 446 894 446 926 q 458 862 446 871 q 489 853 469 853 m 517 1038 q 617 1008 578 1038 q 657 921 657 979 q 609 814 657 853 q 485 775 561 775 q 384 805 425 775 q 343 893 343 835 q 392 999 343 961 q 517 1038 440 1038 z "},"ã":{"ha":813,"x_min":39,"x_max":747,"o":"m 281 -17 q 158 10 213 -17 q 71 94 103 36 q 39 249 39 153 q 88 490 39 383 q 231 657 138 596 q 454 718 324 718 q 597 702 524 718 q 729 660 669 686 l 633 210 q 628 168 628 188 q 642 130 628 140 q 681 119 656 119 q 713 122 696 119 q 747 131 729 125 l 725 1 q 673 -12 699 -7 q 622 -17 647 -17 q 536 2 569 -17 q 490 58 503 21 q 403 7 456 31 q 281 -17 350 -17 m 546 567 q 495 581 524 575 q 438 586 467 586 q 313 541 365 586 q 231 421 260 496 q 203 253 203 346 q 233 148 203 181 q 314 115 263 115 q 392 131 353 115 q 463 171 432 147 l 546 567 m 360 815 l 258 857 q 319 946 282 908 q 411 983 356 983 q 474 969 446 983 q 527 941 503 956 q 571 926 551 926 q 612 943 599 926 q 639 986 625 960 l 740 946 q 673 852 710 889 q 585 815 636 815 q 523 831 551 815 q 471 861 494 846 q 428 876 447 876 q 386 858 401 876 q 360 815 371 839 z "},"ă":{"ha":813,"x_min":39,"x_max":747,"o":"m 281 -17 q 158 10 213 -17 q 71 94 103 36 q 39 249 39 153 q 88 490 39 383 q 231 657 138 596 q 454 718 324 718 q 597 702 524 718 q 729 660 669 686 l 633 210 q 628 168 628 188 q 642 130 628 140 q 681 119 656 119 q 713 122 696 119 q 747 131 729 125 l 725 1 q 673 -12 699 -7 q 622 -17 647 -17 q 536 2 569 -17 q 490 58 503 21 q 403 7 456 31 q 281 -17 350 -17 m 546 567 q 495 581 524 575 q 438 586 467 586 q 313 541 365 586 q 231 421 260 496 q 203 253 203 346 q 233 148 203 181 q 314 115 263 115 q 392 131 353 115 q 463 171 432 147 l 546 567 m 311 996 l 440 996 q 449 928 432 949 q 501 907 465 907 q 563 928 538 907 q 600 996 589 949 l 729 996 q 646 849 703 892 q 496 806 589 806 q 389 824 435 806 q 322 885 343 843 q 311 996 300 926 z "},"ā":{"ha":813,"x_min":39,"x_max":747,"o":"m 281 -17 q 158 10 213 -17 q 71 94 103 36 q 39 249 39 153 q 88 490 39 383 q 231 657 138 596 q 454 718 324 718 q 597 702 524 718 q 729 660 669 686 l 633 210 q 628 168 628 188 q 642 130 628 140 q 681 119 656 119 q 713 122 696 119 q 747 131 729 125 l 725 1 q 673 -12 699 -7 q 622 -17 647 -17 q 536 2 569 -17 q 490 58 503 21 q 403 7 456 31 q 281 -17 350 -17 m 546 567 q 495 581 524 575 q 438 586 467 586 q 313 541 365 586 q 231 421 260 496 q 203 253 203 346 q 233 148 203 181 q 314 115 263 115 q 392 131 353 115 q 463 171 432 147 l 546 567 m 321 942 l 697 942 l 674 832 l 297 832 l 321 942 z "},"ą":{"ha":813,"x_min":39,"x_max":747,"o":"m 694 -149 l 690 -237 q 641 -253 668 -247 q 586 -260 614 -260 q 489 -233 522 -260 q 456 -161 456 -207 q 479 -90 456 -122 q 540 -31 503 -57 q 613 14 576 -4 l 725 1 q 661 -37 693 -15 q 608 -83 629 -58 q 588 -131 588 -107 q 598 -156 588 -149 q 628 -162 608 -162 q 660 -159 643 -162 q 694 -149 676 -156 m 281 -17 q 158 10 213 -17 q 71 94 103 36 q 39 249 39 153 q 88 490 39 383 q 231 657 138 596 q 454 718 324 718 q 597 702 524 718 q 729 660 669 686 l 633 210 q 628 168 628 188 q 642 130 628 140 q 681 119 656 119 q 713 122 696 119 q 747 131 729 125 l 725 1 q 673 -12 699 -7 q 622 -17 647 -17 q 536 2 569 -17 q 490 58 503 21 q 403 7 456 31 q 281 -17 350 -17 m 546 567 q 495 581 524 575 q 438 586 467 586 q 313 541 365 586 q 231 421 260 496 q 203 253 203 346 q 233 148 203 181 q 314 115 263 115 q 392 131 353 115 q 463 171 432 147 l 546 567 z "},"ǻ":{"ha":813,"x_min":39,"x_max":758,"o":"m 513 856 q 560 874 540 856 q 579 922 579 892 q 567 955 579 946 q 535 964 556 964 q 488 947 508 964 q 468 897 468 929 q 481 865 468 875 q 513 856 493 856 m 540 1042 q 641 1012 601 1042 q 681 924 681 982 q 633 817 681 856 q 508 779 585 779 q 408 808 449 779 q 367 896 367 838 q 415 1003 367 965 q 540 1042 464 1042 m 576 1151 l 758 1151 l 576 967 l 446 967 l 576 1151 m 281 -17 q 158 10 213 -17 q 71 94 103 36 q 39 249 39 153 q 88 490 39 383 q 231 657 138 596 q 454 718 324 718 q 597 702 524 718 q 729 660 669 686 l 633 210 q 628 168 628 188 q 642 130 628 140 q 681 119 656 119 q 713 122 696 119 q 747 131 729 125 l 725 1 q 673 -12 699 -7 q 622 -17 647 -17 q 536 2 569 -17 q 490 58 503 21 q 403 7 456 31 q 281 -17 350 -17 m 546 567 q 495 581 524 575 q 438 586 467 586 q 313 541 365 586 q 231 421 260 496 q 203 253 203 346 q 233 148 203 181 q 314 115 263 115 q 392 131 353 115 q 463 171 432 147 l 546 567 z "},"ç":{"ha":590,"x_min":39,"x_max":628,"o":"m 628 696 l 585 568 q 516 581 550 576 q 444 586 482 586 q 339 560 385 586 q 263 488 293 533 q 217 382 232 442 q 201 254 201 322 q 233 147 201 182 q 350 113 265 113 q 424 118 385 113 q 501 133 464 124 l 488 6 q 407 -10 449 -4 q 321 -17 365 -17 q 109 47 179 -17 q 39 250 39 111 q 66 433 39 349 q 146 582 93 518 q 274 682 199 646 q 446 718 350 718 q 540 713 494 718 q 628 696 586 708 m 208 -49 l 322 -49 q 340 -94 333 -68 q 346 -147 346 -121 q 306 -239 346 -204 q 179 -274 265 -274 q 120 -269 150 -274 q 65 -254 90 -264 l 103 -165 q 131 -173 114 -169 q 163 -176 149 -176 q 210 -160 196 -176 q 224 -117 224 -144 q 219 -83 224 -100 q 208 -49 215 -65 z "},"ć":{"ha":590,"x_min":39,"x_max":692,"o":"m 628 696 l 585 568 q 516 581 550 576 q 444 586 482 586 q 339 560 385 586 q 263 488 293 533 q 217 382 232 442 q 201 254 201 322 q 233 147 201 182 q 350 113 265 113 q 424 118 385 113 q 501 133 464 124 l 488 6 q 407 -10 449 -4 q 321 -17 365 -17 q 109 47 179 -17 q 39 250 39 111 q 66 433 39 349 q 146 582 93 518 q 274 682 199 646 q 446 718 350 718 q 540 713 494 718 q 628 696 586 708 m 510 1014 l 692 1014 l 481 790 l 349 790 l 510 1014 z "},"č":{"ha":590,"x_min":39,"x_max":714,"o":"m 628 696 l 585 568 q 516 581 550 576 q 444 586 482 586 q 339 560 385 586 q 263 488 293 533 q 217 382 232 442 q 201 254 201 322 q 233 147 201 182 q 350 113 265 113 q 424 118 385 113 q 501 133 464 124 l 488 6 q 407 -10 449 -4 q 321 -17 365 -17 q 109 47 179 -17 q 39 250 39 111 q 66 433 39 349 q 146 582 93 518 q 274 682 199 646 q 446 718 350 718 q 540 713 494 718 q 628 696 586 708 m 382 790 l 289 1014 l 426 1014 l 468 878 l 567 1014 l 714 1014 l 525 790 l 382 790 z "},"ĉ":{"ha":590,"x_min":39,"x_max":667,"o":"m 628 696 l 585 568 q 516 581 550 576 q 444 586 482 586 q 339 560 385 586 q 263 488 293 533 q 217 382 232 442 q 201 254 201 322 q 233 147 201 182 q 350 113 265 113 q 424 118 385 113 q 501 133 464 124 l 488 6 q 407 -10 449 -4 q 321 -17 365 -17 q 109 47 179 -17 q 39 250 39 111 q 66 433 39 349 q 146 582 93 518 q 274 682 199 646 q 446 718 350 718 q 540 713 494 718 q 628 696 586 708 m 431 1014 l 574 1014 l 667 790 l 529 790 l 488 928 l 389 790 l 242 790 l 431 1014 z "},"ċ":{"ha":590,"x_min":39,"x_max":628,"o":"m 628 696 l 585 568 q 516 581 550 576 q 444 586 482 586 q 339 560 385 586 q 263 488 293 533 q 217 382 232 442 q 201 254 201 322 q 233 147 201 182 q 350 113 265 113 q 424 118 385 113 q 501 133 464 124 l 488 6 q 407 -10 449 -4 q 321 -17 365 -17 q 109 47 179 -17 q 39 250 39 111 q 66 433 39 349 q 146 582 93 518 q 274 682 199 646 q 446 718 350 718 q 540 713 494 718 q 628 696 586 708 m 496 994 q 556 976 533 994 q 578 924 578 957 q 547 845 578 871 q 464 819 515 819 q 403 839 425 819 q 381 892 381 858 q 413 969 381 944 q 496 994 444 994 z "},"ď":{"ha":944,"x_min":40,"x_max":1100,"o":"m 281 -17 q 158 10 213 -17 q 72 95 104 36 q 40 249 40 154 q 89 490 40 383 q 229 657 138 596 q 450 718 321 718 q 512 714 481 718 q 574 701 543 710 l 640 1014 l 806 1014 l 635 210 q 629 168 629 188 q 643 130 629 140 q 682 119 657 119 q 713 122 696 119 q 749 131 731 125 l 726 1 q 674 -12 700 -7 q 622 -17 649 -17 q 538 2 571 -17 q 492 58 504 21 q 403 7 457 31 q 281 -17 350 -17 m 547 567 q 495 581 524 576 q 439 586 467 586 q 313 541 367 586 q 231 421 260 496 q 203 253 203 346 q 233 148 203 181 q 315 115 263 115 q 393 131 354 115 q 463 171 432 147 l 547 567 m 919 1014 l 1100 1014 l 929 718 l 797 718 l 919 1014 z "},"đ":{"ha":835,"x_min":39,"x_max":894,"o":"m 390 810 l 413 915 l 894 915 l 872 810 l 390 810 m 279 -17 q 156 10 211 -17 q 70 95 101 36 q 39 249 39 154 q 88 490 39 383 q 228 657 136 596 q 449 718 319 718 q 510 714 479 718 q 572 701 540 710 l 639 1014 l 803 1014 l 632 210 q 628 187 629 197 q 626 168 626 176 q 640 130 626 140 q 679 119 654 119 q 712 122 694 119 q 747 131 729 125 l 724 1 q 672 -12 699 -7 q 621 -17 646 -17 q 535 3 568 -17 q 490 58 501 22 q 402 7 456 31 q 279 -17 349 -17 m 544 567 q 494 581 522 575 q 436 586 465 586 q 311 541 364 586 q 230 421 258 496 q 201 253 201 346 q 231 148 201 181 q 314 115 261 115 q 391 131 351 115 q 461 171 431 146 l 544 567 z "},"é":{"ha":699,"x_min":42,"x_max":683,"o":"m 199 296 l 215 404 q 253 401 232 403 q 299 398 275 399 q 347 397 324 397 q 465 428 425 397 q 504 514 504 458 q 481 572 504 551 q 413 592 457 592 q 309 556 356 592 q 235 445 263 521 q 207 250 207 369 q 244 156 207 190 q 374 121 281 121 q 480 130 422 121 q 575 149 538 139 l 561 14 q 460 -8 513 1 q 344 -17 407 -17 q 185 13 254 -17 q 79 101 117 42 q 42 250 42 160 q 67 438 42 351 q 140 586 92 524 q 260 683 189 649 q 425 718 332 718 q 610 663 547 717 q 674 526 674 610 q 633 387 674 440 q 519 310 592 333 q 353 286 447 286 q 268 290 310 286 q 199 296 226 293 m 501 1014 l 683 1014 l 472 790 l 340 790 l 501 1014 z "},"ê":{"ha":699,"x_min":42,"x_max":674,"o":"m 199 296 l 215 404 q 253 401 232 403 q 299 398 275 399 q 347 397 324 397 q 465 428 425 397 q 504 514 504 458 q 481 572 504 551 q 413 592 457 592 q 309 556 356 592 q 235 445 263 521 q 207 250 207 369 q 244 156 207 190 q 374 121 281 121 q 480 130 422 121 q 575 149 538 139 l 561 14 q 460 -8 513 1 q 344 -17 407 -17 q 185 13 254 -17 q 79 101 117 42 q 42 250 42 160 q 67 438 42 351 q 140 586 92 524 q 260 683 189 649 q 425 718 332 718 q 610 663 547 717 q 674 526 674 610 q 633 387 674 440 q 519 310 592 333 q 353 286 447 286 q 268 290 310 286 q 199 296 226 293 m 422 1014 l 565 1014 l 658 790 l 521 790 l 479 928 l 381 790 l 233 790 l 422 1014 z "},"ë":{"ha":699,"x_min":42,"x_max":678,"o":"m 199 296 l 215 404 q 253 401 232 403 q 299 398 275 399 q 347 397 324 397 q 465 428 425 397 q 504 514 504 458 q 481 572 504 551 q 413 592 457 592 q 309 556 356 592 q 235 445 263 521 q 207 250 207 369 q 244 156 207 190 q 374 121 281 121 q 480 130 422 121 q 575 149 538 139 l 561 14 q 460 -8 513 1 q 344 -17 407 -17 q 185 13 254 -17 q 79 101 117 42 q 42 250 42 160 q 67 438 42 351 q 140 586 92 524 q 260 683 189 649 q 425 718 332 718 q 610 663 547 717 q 674 526 674 610 q 633 387 674 440 q 519 310 592 333 q 353 286 447 286 q 268 290 310 286 q 199 296 226 293 m 369 994 q 420 978 401 994 q 439 931 439 961 q 408 854 439 883 q 333 825 378 825 q 284 842 303 825 q 265 889 265 858 q 295 965 265 936 q 369 994 325 994 m 610 994 q 660 978 642 994 q 678 931 678 961 q 648 854 678 883 q 574 825 618 825 q 524 842 542 825 q 506 889 506 858 q 535 965 506 936 q 610 994 565 994 z "},"è":{"ha":699,"x_min":42,"x_max":674,"o":"m 199 296 l 215 404 q 253 401 232 403 q 299 398 275 399 q 347 397 324 397 q 465 428 425 397 q 504 514 504 458 q 481 572 504 551 q 413 592 457 592 q 309 556 356 592 q 235 445 263 521 q 207 250 207 369 q 244 156 207 190 q 374 121 281 121 q 480 130 422 121 q 575 149 538 139 l 561 14 q 460 -8 513 1 q 344 -17 407 -17 q 185 13 254 -17 q 79 101 117 42 q 42 250 42 160 q 67 438 42 351 q 140 586 92 524 q 260 683 189 649 q 425 718 332 718 q 610 663 547 717 q 674 526 674 610 q 633 387 674 440 q 519 310 592 333 q 353 286 447 286 q 268 290 310 286 q 199 296 226 293 m 289 1014 l 463 1014 l 526 790 l 406 790 l 289 1014 z "},"ĕ":{"ha":699,"x_min":42,"x_max":699,"o":"m 199 296 l 215 404 q 253 401 232 403 q 299 398 275 399 q 347 397 324 397 q 465 428 425 397 q 504 514 504 458 q 481 572 504 551 q 413 592 457 592 q 309 556 356 592 q 235 445 263 521 q 207 250 207 369 q 244 156 207 190 q 374 121 281 121 q 480 130 422 121 q 575 149 538 139 l 561 14 q 460 -8 513 1 q 344 -17 407 -17 q 185 13 254 -17 q 79 101 117 42 q 42 250 42 160 q 67 438 42 351 q 140 586 92 524 q 260 683 189 649 q 425 718 332 718 q 610 663 547 717 q 674 526 674 610 q 633 387 674 440 q 519 310 592 333 q 353 286 447 286 q 268 290 310 286 q 199 296 226 293 m 281 996 l 410 996 q 418 928 401 949 q 471 907 435 907 q 533 928 507 907 q 569 996 558 949 l 699 996 q 615 849 672 892 q 465 806 558 806 q 358 824 404 806 q 291 885 313 843 q 281 996 269 926 z "},"ě":{"ha":699,"x_min":42,"x_max":706,"o":"m 199 296 l 215 404 q 253 401 232 403 q 299 398 275 399 q 347 397 324 397 q 465 428 425 397 q 504 514 504 458 q 481 572 504 551 q 413 592 457 592 q 309 556 356 592 q 235 445 263 521 q 207 250 207 369 q 244 156 207 190 q 374 121 281 121 q 480 130 422 121 q 575 149 538 139 l 561 14 q 460 -8 513 1 q 344 -17 407 -17 q 185 13 254 -17 q 79 101 117 42 q 42 250 42 160 q 67 438 42 351 q 140 586 92 524 q 260 683 189 649 q 425 718 332 718 q 610 663 547 717 q 674 526 674 610 q 633 387 674 440 q 519 310 592 333 q 353 286 447 286 q 268 290 310 286 q 199 296 226 293 m 374 790 l 281 1014 l 418 1014 l 460 878 l 558 1014 l 706 1014 l 517 790 l 374 790 z "},"ė":{"ha":699,"x_min":42,"x_max":674,"o":"m 199 296 l 215 404 q 253 401 232 403 q 299 398 275 399 q 347 397 324 397 q 465 428 425 397 q 504 514 504 458 q 481 572 504 551 q 413 592 457 592 q 309 556 356 592 q 235 445 263 521 q 207 250 207 369 q 244 156 207 190 q 374 121 281 121 q 480 130 422 121 q 575 149 538 139 l 561 14 q 460 -8 513 1 q 344 -17 407 -17 q 185 13 254 -17 q 79 101 117 42 q 42 250 42 160 q 67 438 42 351 q 140 586 92 524 q 260 683 189 649 q 425 718 332 718 q 610 663 547 717 q 674 526 674 610 q 633 387 674 440 q 519 310 592 333 q 353 286 447 286 q 268 290 310 286 q 199 296 226 293 m 488 994 q 547 976 525 994 q 569 924 569 957 q 538 845 569 871 q 456 819 507 819 q 394 839 417 819 q 372 892 372 858 q 404 969 372 944 q 488 994 436 994 z "},"ē":{"ha":699,"x_min":42,"x_max":674,"o":"m 199 296 l 215 404 q 253 401 232 403 q 299 398 275 399 q 347 397 324 397 q 465 428 425 397 q 504 514 504 458 q 481 572 504 551 q 413 592 457 592 q 309 556 356 592 q 235 445 263 521 q 207 250 207 369 q 244 156 207 190 q 374 121 281 121 q 480 130 422 121 q 575 149 538 139 l 561 14 q 460 -8 513 1 q 344 -17 407 -17 q 185 13 254 -17 q 79 101 117 42 q 42 250 42 160 q 67 438 42 351 q 140 586 92 524 q 260 683 189 649 q 425 718 332 718 q 610 663 547 717 q 674 526 674 610 q 633 387 674 440 q 519 310 592 333 q 353 286 447 286 q 268 290 310 286 q 199 296 226 293 m 290 942 l 667 942 l 643 832 l 267 832 l 290 942 z "},"ę":{"ha":699,"x_min":42,"x_max":674,"o":"m 199 296 l 215 404 q 253 401 232 403 q 299 398 275 399 q 347 397 324 397 q 465 428 425 397 q 504 514 504 458 q 480 572 504 551 q 413 592 456 592 q 310 556 357 592 q 235 446 263 521 q 207 250 207 371 q 243 155 207 189 q 374 121 279 121 q 480 129 422 121 q 575 149 538 138 l 561 15 q 460 -7 513 3 q 344 -17 407 -17 q 185 13 254 -17 q 79 101 117 42 q 42 250 42 160 q 67 438 42 351 q 140 586 92 524 q 260 683 189 649 q 425 718 332 718 q 610 665 547 718 q 674 526 674 611 q 633 387 674 440 q 519 310 592 333 q 353 286 447 286 q 267 290 308 286 q 199 296 226 293 m 528 -149 l 524 -237 q 474 -253 501 -247 q 419 -260 447 -260 q 322 -233 356 -260 q 289 -161 289 -207 q 313 -89 289 -122 q 374 -28 338 -56 q 447 17 410 -1 l 561 15 q 497 -27 529 -3 q 442 -78 464 -51 q 421 -131 421 -104 q 432 -156 421 -149 q 461 -162 443 -162 q 493 -159 476 -162 q 528 -149 510 -156 z "},"ǽ":{"ha":1065,"x_min":4,"x_max":1054,"o":"m 579 297 l 596 404 q 634 401 613 403 q 680 398 656 399 q 728 397 704 397 q 845 428 806 397 q 885 514 885 458 q 861 572 885 551 q 793 592 838 592 q 692 556 738 592 q 618 446 646 521 q 590 250 590 371 q 626 155 590 189 q 754 121 661 121 q 860 129 803 121 q 956 149 918 138 l 942 15 q 840 -7 893 3 q 725 -17 788 -17 q 567 13 635 -17 q 460 101 499 42 q 422 250 422 160 q 447 438 422 351 q 521 586 472 524 q 641 683 569 649 q 806 718 713 718 q 990 665 926 718 q 1054 526 1054 611 q 1013 387 1054 440 q 900 310 972 333 q 733 286 828 286 q 648 290 689 286 q 579 297 607 294 m 433 301 q 374 310 407 307 q 317 313 340 313 q 204 282 247 313 q 161 189 161 251 q 190 122 161 142 q 267 103 218 103 q 362 115 319 103 q 443 144 404 126 l 532 56 q 451 19 497 35 q 358 -6 406 3 q 268 -15 310 -15 q 76 31 147 -15 q 4 181 4 76 q 28 292 4 246 q 94 368 53 339 q 190 411 136 397 q 304 425 244 425 q 375 422 342 425 q 440 411 408 418 l 454 482 q 440 567 468 543 q 343 592 413 592 q 242 585 296 592 q 144 568 189 578 l 163 692 q 267 710 210 703 q 378 717 325 717 q 501 694 451 717 q 572 624 550 672 l 433 301 m 693 1014 l 875 1014 l 664 790 l 532 790 l 693 1014 z "},"ğ":{"ha":747,"x_min":-11,"x_max":733,"o":"m 282 -7 q 161 20 215 -7 q 75 103 107 47 q 43 247 43 158 q 92 491 43 385 q 233 658 142 597 q 449 718 324 718 q 598 702 522 718 q 733 663 674 686 l 594 6 q 524 -164 572 -103 q 402 -251 476 -225 q 221 -276 328 -276 q 91 -265 153 -276 q -11 -240 29 -254 l 31 -112 q 124 -137 68 -126 q 236 -147 181 -147 q 367 -116 321 -147 q 428 -17 413 -85 l 442 42 l 449 35 q 376 6 419 18 q 282 -7 333 -7 m 550 565 q 499 581 528 575 q 440 586 469 586 q 316 541 368 586 q 235 421 264 496 q 207 253 207 346 q 237 155 207 185 q 321 125 267 125 q 399 141 360 125 q 468 181 438 157 l 550 565 m 308 996 l 438 996 q 446 928 429 949 q 499 907 463 907 q 560 928 535 907 q 597 996 586 949 l 726 996 q 643 849 700 892 q 493 806 586 806 q 386 824 432 806 q 319 885 340 843 q 308 996 297 926 z "},"ĝ":{"ha":747,"x_min":-11,"x_max":733,"o":"m 282 -7 q 161 20 215 -7 q 75 103 107 47 q 43 247 43 158 q 92 491 43 385 q 233 658 142 597 q 449 718 324 718 q 598 702 522 718 q 733 663 674 686 l 594 6 q 524 -164 572 -103 q 402 -251 476 -225 q 221 -276 328 -276 q 91 -265 153 -276 q -11 -240 29 -254 l 31 -112 q 124 -137 68 -126 q 236 -147 181 -147 q 367 -116 321 -147 q 428 -17 413 -85 l 442 42 l 449 35 q 376 6 419 18 q 282 -7 333 -7 m 550 565 q 499 581 528 575 q 440 586 469 586 q 316 541 368 586 q 235 421 264 496 q 207 253 207 346 q 237 155 207 185 q 321 125 267 125 q 399 141 360 125 q 468 181 438 157 l 550 565 m 450 1014 l 593 1014 l 686 790 l 549 790 l 507 928 l 408 790 l 261 790 l 450 1014 z "},"ģ":{"ha":747,"x_min":-11,"x_max":733,"o":"m 282 -7 q 161 20 215 -7 q 75 103 107 47 q 43 247 43 158 q 92 491 43 385 q 233 658 142 597 q 449 718 324 718 q 598 702 522 718 q 733 663 674 686 l 594 6 q 524 -164 572 -103 q 402 -251 476 -225 q 221 -276 328 -276 q 91 -265 153 -276 q -11 -240 29 -254 l 31 -112 q 124 -137 68 -126 q 236 -147 181 -147 q 367 -116 321 -147 q 428 -17 413 -85 l 442 42 l 449 35 q 376 6 419 18 q 282 -7 333 -7 m 550 565 q 499 581 528 575 q 440 586 469 586 q 316 541 368 586 q 235 421 264 496 q 207 253 207 346 q 237 155 207 185 q 321 125 267 125 q 399 141 360 125 q 468 181 438 157 l 550 565 m 557 1006 l 728 1006 l 554 808 l 429 808 l 557 1006 z "},"ġ":{"ha":747,"x_min":-11,"x_max":733,"o":"m 282 -7 q 161 20 215 -7 q 75 103 107 47 q 43 247 43 158 q 92 491 43 385 q 233 658 142 597 q 449 718 324 718 q 598 702 522 718 q 733 663 674 686 l 594 6 q 524 -164 572 -103 q 402 -251 476 -225 q 221 -276 328 -276 q 91 -265 153 -276 q -11 -240 29 -254 l 31 -112 q 124 -137 68 -126 q 236 -147 181 -147 q 367 -116 321 -147 q 428 -17 413 -85 l 442 42 l 449 35 q 376 6 419 18 q 282 -7 333 -7 m 550 565 q 499 581 528 575 q 440 586 469 586 q 316 541 368 586 q 235 421 264 496 q 207 253 207 346 q 237 155 207 185 q 321 125 267 125 q 399 141 360 125 q 468 181 438 157 l 550 565 m 515 994 q 575 976 553 994 q 597 924 597 957 q 566 845 597 871 q 483 819 535 819 q 422 839 444 819 q 400 892 400 858 q 432 969 400 944 q 515 994 464 994 z "},"ħ":{"ha":779,"x_min":40,"x_max":747,"o":"m 575 810 l 101 810 l 124 915 l 597 915 l 575 810 m 203 0 l 40 0 l 256 1014 l 417 1014 l 350 700 q 422 713 385 708 q 494 718 460 718 q 633 694 574 718 q 720 613 693 669 q 726 460 747 556 l 629 0 l 467 0 l 561 451 q 561 532 572 503 q 522 574 550 561 q 453 586 494 586 q 385 581 419 586 q 324 568 351 576 l 203 0 z "},"ĥ":{"ha":751,"x_min":11,"x_max":757,"o":"m 174 0 l 11 0 l 226 1014 l 388 1014 l 322 700 q 393 713 356 708 q 465 718 431 718 q 604 694 544 718 q 691 613 664 669 q 699 460 718 556 l 600 0 l 438 0 l 532 451 q 532 532 543 503 q 493 574 521 561 q 424 586 465 586 q 356 581 390 586 q 294 568 322 575 l 174 0 m 521 1299 l 664 1299 l 757 1075 l 619 1075 l 578 1213 l 479 1075 l 332 1075 l 521 1299 z "},"í":{"ha":394,"x_min":26,"x_max":508,"o":"m 160 701 l 322 701 l 214 204 q 217 139 204 158 q 263 119 229 119 q 297 122 281 119 q 329 129 314 124 l 301 -3 q 254 -13 279 -10 q 206 -17 229 -17 q 71 37 115 -17 q 51 204 26 90 l 160 701 m 326 1014 l 508 1014 l 297 790 l 165 790 l 326 1014 z "},"î":{"ha":394,"x_min":26,"x_max":472,"o":"m 160 701 l 322 701 l 214 204 q 217 139 204 158 q 263 119 229 119 q 297 122 281 119 q 329 129 314 124 l 301 -3 q 254 -13 279 -10 q 206 -17 229 -17 q 71 37 115 -17 q 51 204 26 90 l 160 701 m 236 1014 l 379 1014 l 472 790 l 335 790 l 293 928 l 194 790 l 47 790 l 236 1014 z "},"ï":{"ha":394,"x_min":26,"x_max":492,"o":"m 160 701 l 322 701 l 214 204 q 217 139 204 158 q 263 119 229 119 q 297 122 281 119 q 329 129 314 124 l 301 -3 q 254 -13 279 -10 q 206 -17 229 -17 q 71 37 115 -17 q 51 204 26 90 l 160 701 m 183 994 q 234 978 215 994 q 253 931 253 961 q 222 854 253 883 q 147 825 192 825 q 98 842 117 825 q 79 889 79 858 q 109 965 79 936 q 183 994 139 994 m 424 994 q 474 978 456 994 q 492 931 492 961 q 462 854 492 883 q 388 825 432 825 q 338 842 356 825 q 319 889 319 858 q 349 965 319 936 q 424 994 379 994 z "},"ì":{"ha":394,"x_min":26,"x_max":340,"o":"m 160 701 l 322 701 l 214 204 q 217 139 204 158 q 263 119 229 119 q 297 122 281 119 q 329 129 314 124 l 301 -3 q 254 -13 279 -10 q 206 -17 229 -17 q 71 37 115 -17 q 51 204 26 90 l 160 701 m 103 1014 l 276 1014 l 340 790 l 219 790 l 103 1014 z "},"ĭ":{"ha":394,"x_min":26,"x_max":513,"o":"m 160 701 l 322 701 l 214 204 q 217 139 204 158 q 263 119 229 119 q 297 122 281 119 q 329 129 314 124 l 301 -3 q 254 -13 279 -10 q 206 -17 229 -17 q 71 37 115 -17 q 51 204 26 90 l 160 701 m 94 996 l 224 996 q 232 928 215 949 q 285 907 249 907 q 347 928 321 907 q 383 996 372 949 l 513 996 q 429 849 486 892 q 279 806 372 806 q 172 824 218 806 q 105 885 126 843 q 94 996 83 926 z "},"ī":{"ha":394,"x_min":26,"x_max":481,"o":"m 160 701 l 322 701 l 214 204 q 217 139 204 158 q 263 119 229 119 q 297 122 281 119 q 329 129 314 124 l 301 -3 q 254 -13 279 -10 q 206 -17 229 -17 q 71 37 115 -17 q 51 204 26 90 l 160 701 m 104 942 l 481 942 l 457 832 l 81 832 l 104 942 z "},"į":{"ha":394,"x_min":26,"x_max":385,"o":"m 272 -149 l 268 -237 q 219 -253 246 -247 q 164 -260 192 -260 q 66 -233 99 -260 q 33 -161 33 -207 q 57 -90 33 -124 q 117 -31 81 -57 q 190 14 153 -4 l 301 -3 q 238 -40 269 -18 q 185 -84 206 -61 q 164 -131 164 -107 q 175 -156 164 -149 q 204 -162 186 -162 q 237 -159 221 -162 q 272 -149 253 -156 m 160 701 l 322 701 l 215 204 q 217 140 206 160 q 263 119 229 119 q 297 122 281 119 q 329 131 314 125 l 301 -3 q 254 -13 279 -10 q 206 -17 229 -17 q 71 37 115 -17 q 51 204 26 90 l 160 701 m 304 1001 q 363 985 342 1001 q 385 935 385 968 q 351 854 385 883 q 267 825 318 825 q 208 842 229 825 q 186 893 186 860 q 219 973 186 944 q 304 1001 253 1001 z "},"ĩ":{"ha":394,"x_min":26,"x_max":524,"o":"m 160 701 l 322 701 l 214 204 q 217 139 204 158 q 263 119 229 119 q 297 122 281 119 q 329 129 314 124 l 301 -3 q 254 -13 279 -10 q 206 -17 229 -17 q 71 37 115 -17 q 51 204 26 90 l 160 701 m 143 815 l 42 857 q 102 946 65 908 q 194 983 139 983 q 258 969 229 983 q 310 941 286 956 q 354 926 335 926 q 395 943 382 926 q 422 986 408 960 l 524 946 q 456 852 493 889 q 368 815 419 815 q 306 831 335 815 q 254 861 278 846 q 211 876 231 876 q 169 858 185 876 q 143 815 154 839 z "},"ĵ":{"ha":332,"x_min":-158,"x_max":464,"o":"m 161 701 l 324 701 l 194 97 q 159 -22 181 31 q 103 -116 138 -74 q 20 -197 69 -158 q -99 -275 -29 -235 l -158 -172 q -83 -116 -115 -144 q -29 -56 -51 -87 q 8 15 -7 -24 q 33 99 24 53 l 161 701 m 228 1014 l 371 1014 l 464 790 l 326 790 l 285 928 l 186 790 l 39 790 l 228 1014 z "},"ķ":{"ha":717,"x_min":11,"x_max":750,"o":"m 226 1014 l 389 1014 l 254 382 l 579 701 l 750 701 l 449 403 q 547 326 514 381 q 596 182 579 272 l 631 0 l 468 0 l 436 158 q 397 267 422 231 q 324 313 371 304 l 222 226 l 174 0 l 11 0 l 226 1014 m 214 -64 l 385 -64 l 211 -261 l 86 -261 l 214 -64 z "},"ĸ":{"ha":717,"x_min":11,"x_max":750,"o":"m 160 701 l 322 701 l 254 382 l 579 701 l 750 701 l 449 403 q 547 327 514 382 q 596 182 579 272 l 631 0 l 468 0 l 436 158 q 397 267 422 231 q 324 313 371 303 l 221 226 l 174 0 l 11 0 l 160 701 z "},"ĺ":{"ha":432,"x_min":38,"x_max":614,"o":"m 225 1014 l 388 1014 l 215 210 q 222 140 206 161 q 274 119 238 119 q 325 124 300 119 q 368 133 350 128 l 342 1 q 281 -12 311 -8 q 219 -17 250 -17 q 112 8 156 -17 q 53 82 68 32 q 54 210 38 132 l 225 1014 m 432 1289 l 614 1289 l 403 1065 l 271 1065 l 432 1289 z "},"ľ":{"ha":550,"x_min":38,"x_max":685,"o":"m 225 1014 l 388 1014 l 215 210 q 222 140 206 161 q 274 119 238 119 q 325 124 300 119 q 368 133 350 128 l 342 1 q 281 -12 311 -8 q 219 -17 250 -17 q 112 8 156 -17 q 53 82 68 32 q 54 210 38 132 l 225 1014 m 504 1014 l 685 1014 l 514 718 l 382 718 l 504 1014 z "},"ļ":{"ha":432,"x_min":-140,"x_max":388,"o":"m 225 1014 l 388 1014 l 215 210 q 222 140 206 161 q 274 119 238 119 q 325 124 300 119 q 368 133 350 128 l 342 1 q 281 -12 311 -8 q 219 -17 250 -17 q 112 8 156 -17 q 53 82 68 32 q 54 210 38 132 l 225 1014 m -12 -64 l 158 -64 l -15 -261 l -140 -261 l -12 -64 z "},"ŀ":{"ha":560,"x_min":38,"x_max":574,"o":"m 225 1014 l 388 1014 l 215 210 q 222 140 206 161 q 274 119 238 119 q 325 124 300 119 q 368 133 350 128 l 342 1 q 281 -12 311 -8 q 219 -17 250 -17 q 112 8 156 -17 q 53 82 68 32 q 54 210 38 132 l 225 1014 m 492 564 q 551 545 529 564 q 574 493 574 526 q 542 415 574 440 q 460 389 511 389 q 399 408 421 389 q 376 461 376 428 q 408 539 376 514 q 492 564 440 564 z "},"ñ":{"ha":751,"x_min":11,"x_max":724,"o":"m 174 0 l 11 0 l 151 667 q 301 704 229 690 q 446 718 374 718 q 598 694 533 718 q 691 613 663 669 q 699 460 719 557 l 600 0 l 438 0 l 532 451 q 532 532 543 503 q 493 574 521 561 q 425 586 465 586 q 358 581 392 586 q 296 568 324 575 l 174 0 m 343 815 l 242 857 q 302 946 265 908 q 394 983 339 983 q 458 969 429 983 q 510 941 486 956 q 554 926 535 926 q 595 943 582 926 q 622 986 608 960 l 724 946 q 656 852 693 889 q 568 815 619 815 q 506 831 535 815 q 454 861 478 846 q 411 876 431 876 q 369 858 385 876 q 343 815 354 839 z "},"ń":{"ha":751,"x_min":11,"x_max":719,"o":"m 174 0 l 11 0 l 151 667 q 301 704 229 690 q 446 718 374 718 q 598 694 533 718 q 691 613 663 669 q 699 460 719 557 l 600 0 l 438 0 l 532 451 q 532 532 543 503 q 493 574 521 561 q 425 586 465 586 q 358 581 392 586 q 296 568 324 575 l 174 0 m 515 1014 l 697 1014 l 486 790 l 354 790 l 515 1014 z "},"ň":{"ha":751,"x_min":11,"x_max":719,"o":"m 174 0 l 11 0 l 151 667 q 301 704 229 690 q 446 718 374 718 q 598 694 533 718 q 691 613 663 669 q 699 460 719 557 l 600 0 l 438 0 l 532 451 q 532 532 543 503 q 493 574 521 561 q 425 586 465 586 q 358 581 392 586 q 296 568 324 575 l 174 0 m 388 790 l 294 1014 l 432 1014 l 474 878 l 572 1014 l 719 1014 l 531 790 l 388 790 z "},"ņ":{"ha":751,"x_min":11,"x_max":719,"o":"m 174 0 l 11 0 l 151 667 q 301 704 229 690 q 446 718 374 718 q 598 694 533 718 q 691 613 663 669 q 699 460 719 557 l 600 0 l 438 0 l 532 451 q 532 532 543 503 q 493 574 521 561 q 425 586 465 586 q 358 581 392 586 q 296 568 324 575 l 174 0 m 217 -64 l 388 -64 l 214 -261 l 89 -261 l 217 -64 z "},"ŋ":{"ha":751,"x_min":8,"x_max":717,"o":"m 171 0 l 8 0 l 149 667 q 299 704 226 690 q 443 718 371 718 q 594 694 531 718 q 688 613 658 669 q 696 461 717 557 l 617 97 q 581 -22 603 29 q 526 -116 560 -74 q 442 -197 492 -158 q 324 -275 393 -235 l 264 -172 q 339 -115 307 -144 q 393 -54 371 -86 q 431 15 415 -22 q 456 99 446 53 l 531 451 q 530 532 542 503 q 490 574 518 561 q 421 586 463 586 q 353 581 388 586 q 292 568 319 576 l 171 0 z "},"ó":{"ha":753,"x_min":38,"x_max":718,"o":"m 433 718 q 643 654 569 718 q 717 456 717 590 q 692 285 717 369 q 619 133 668 201 q 495 24 569 65 q 321 -17 421 -17 q 112 48 186 -17 q 38 247 38 113 q 62 417 38 333 q 135 568 86 500 q 259 677 185 636 q 433 718 333 718 m 328 115 q 424 142 382 115 q 495 216 467 168 q 539 326 524 264 q 554 458 554 388 q 523 556 554 525 q 426 588 492 588 q 330 560 372 588 q 259 486 288 533 q 215 376 231 439 q 200 243 200 314 q 232 147 200 178 q 328 115 264 115 m 536 1014 l 718 1014 l 507 790 l 375 790 l 536 1014 z "},"ô":{"ha":753,"x_min":38,"x_max":717,"o":"m 433 718 q 643 654 569 718 q 717 456 717 590 q 692 285 717 369 q 619 133 668 201 q 495 24 569 65 q 321 -17 421 -17 q 112 48 186 -17 q 38 247 38 113 q 62 417 38 333 q 135 568 86 500 q 259 677 185 636 q 433 718 333 718 m 328 115 q 424 142 382 115 q 495 216 467 168 q 539 326 524 264 q 554 458 554 388 q 523 556 554 525 q 426 588 492 588 q 330 560 372 588 q 259 486 288 533 q 215 376 231 439 q 200 243 200 314 q 232 147 200 178 q 328 115 264 115 m 439 1014 l 582 1014 l 675 790 l 538 790 l 496 928 l 397 790 l 250 790 l 439 1014 z "},"ö":{"ha":753,"x_min":38,"x_max":717,"o":"m 433 718 q 643 654 569 718 q 717 456 717 590 q 692 285 717 369 q 619 133 668 201 q 495 24 569 65 q 321 -17 421 -17 q 112 48 186 -17 q 38 247 38 113 q 62 417 38 333 q 135 568 86 500 q 259 677 185 636 q 433 718 333 718 m 328 115 q 424 142 382 115 q 495 216 467 168 q 539 326 524 264 q 554 458 554 388 q 523 556 554 525 q 426 588 492 588 q 330 560 372 588 q 259 486 288 533 q 215 376 231 439 q 200 243 200 314 q 232 147 200 178 q 328 115 264 115 m 383 994 q 434 978 415 994 q 453 931 453 961 q 422 854 453 883 q 347 825 392 825 q 298 842 317 825 q 279 889 279 858 q 309 965 279 936 q 383 994 339 994 m 624 994 q 674 978 656 994 q 692 931 692 961 q 662 854 692 883 q 588 825 632 825 q 538 842 556 825 q 519 889 519 858 q 549 965 519 936 q 624 994 579 994 z "},"ò":{"ha":753,"x_min":38,"x_max":717,"o":"m 433 718 q 643 654 569 718 q 717 456 717 590 q 692 285 717 369 q 619 133 668 201 q 495 24 569 65 q 321 -17 421 -17 q 112 48 186 -17 q 38 247 38 113 q 62 417 38 333 q 135 568 86 500 q 259 677 185 636 q 433 718 333 718 m 328 115 q 424 142 382 115 q 495 216 467 168 q 539 326 524 264 q 554 458 554 388 q 523 556 554 525 q 426 588 492 588 q 330 560 372 588 q 259 486 288 533 q 215 376 231 439 q 200 243 200 314 q 232 147 200 178 q 328 115 264 115 m 307 1014 l 481 1014 l 544 790 l 424 790 l 307 1014 z "},"õ":{"ha":753,"x_min":38,"x_max":722,"o":"m 433 718 q 643 654 569 718 q 717 456 717 590 q 692 285 717 369 q 619 133 668 201 q 495 24 569 65 q 321 -17 421 -17 q 112 48 186 -17 q 38 247 38 113 q 62 417 38 333 q 135 568 86 500 q 259 677 185 636 q 433 718 333 718 m 328 115 q 424 142 382 115 q 495 216 467 168 q 539 326 524 264 q 554 458 554 388 q 523 556 554 525 q 426 588 492 588 q 330 560 372 588 q 259 486 288 533 q 215 376 231 439 q 200 243 200 314 q 232 147 200 178 q 328 115 264 115 m 342 815 l 240 857 q 301 946 264 908 q 393 983 338 983 q 456 969 428 983 q 509 941 485 956 q 553 926 533 926 q 594 943 581 926 q 621 986 607 960 l 722 946 q 655 852 692 889 q 567 815 618 815 q 505 831 533 815 q 453 861 476 846 q 410 876 429 876 q 368 858 383 876 q 342 815 353 839 z "},"ŏ":{"ha":753,"x_min":38,"x_max":717,"o":"m 433 718 q 643 654 569 718 q 717 456 717 590 q 692 285 717 369 q 619 133 668 201 q 495 24 569 65 q 321 -17 421 -17 q 112 48 186 -17 q 38 247 38 113 q 62 417 38 333 q 135 568 86 500 q 259 677 185 636 q 433 718 333 718 m 328 115 q 424 142 382 115 q 495 216 467 168 q 539 326 524 264 q 554 458 554 388 q 523 556 554 525 q 426 588 492 588 q 330 560 372 588 q 259 486 288 533 q 215 376 231 439 q 200 243 200 314 q 232 147 200 178 q 328 115 264 115 m 293 996 l 422 996 q 431 928 414 949 q 483 907 447 907 q 545 928 519 907 q 582 996 571 949 l 711 996 q 628 849 685 892 q 478 806 571 806 q 371 824 417 806 q 303 885 325 843 q 293 996 282 926 z "},"ő":{"ha":753,"x_min":38,"x_max":753,"o":"m 433 718 q 643 654 569 718 q 717 456 717 590 q 692 285 717 369 q 619 133 668 201 q 495 24 569 65 q 321 -17 421 -17 q 112 48 186 -17 q 38 247 38 113 q 62 417 38 333 q 135 568 86 500 q 259 677 185 636 q 433 718 333 718 m 328 115 q 424 142 382 115 q 495 216 467 168 q 539 326 524 264 q 554 458 554 388 q 523 556 554 525 q 426 588 492 588 q 330 560 372 588 q 259 486 288 533 q 215 376 231 439 q 200 243 200 314 q 232 147 200 178 q 328 115 264 115 m 397 1014 l 540 1014 l 414 790 l 306 790 l 397 1014 m 599 1014 l 753 1014 l 597 790 l 486 790 l 599 1014 z "},"ō":{"ha":753,"x_min":38,"x_max":717,"o":"m 433 718 q 643 654 569 718 q 717 456 717 590 q 692 285 717 369 q 619 133 668 201 q 495 24 569 65 q 321 -17 421 -17 q 112 48 186 -17 q 38 247 38 113 q 62 417 38 333 q 135 568 86 500 q 259 677 185 636 q 433 718 333 718 m 328 115 q 424 142 382 115 q 495 216 467 168 q 539 326 524 264 q 554 458 554 388 q 523 556 554 525 q 426 588 492 588 q 330 560 372 588 q 259 486 288 533 q 215 376 231 439 q 200 243 200 314 q 232 147 200 178 q 328 115 264 115 m 303 942 l 679 942 l 656 832 l 279 832 l 303 942 z "},"ǿ":{"ha":753,"x_min":-32,"x_max":778,"o":"m 65 -114 l -32 -53 l 681 814 l 778 753 l 65 -114 m 429 718 q 639 654 565 718 q 713 456 713 590 q 688 285 713 369 q 615 133 664 201 q 492 24 565 65 q 318 -17 418 -17 q 109 47 183 -17 q 35 246 35 111 q 59 416 35 332 q 133 568 83 500 q 256 677 182 636 q 429 718 329 718 m 324 114 q 421 141 378 114 q 494 215 464 168 q 539 325 524 263 q 554 458 554 388 q 522 556 554 525 q 424 588 489 588 q 326 560 368 588 q 253 486 283 533 q 208 376 224 439 q 193 243 193 314 q 226 145 193 176 q 324 114 258 114 m 544 1014 l 726 1014 l 515 790 l 383 790 l 544 1014 z "},"ŕ":{"ha":476,"x_min":8,"x_max":607,"o":"m 532 718 l 504 588 q 393 583 447 588 q 290 568 339 578 l 171 0 l 8 0 l 149 667 q 343 706 246 694 q 532 718 440 718 m 425 1014 l 607 1014 l 396 790 l 264 790 l 425 1014 z "},"ř":{"ha":476,"x_min":8,"x_max":629,"o":"m 532 718 l 504 588 q 393 583 447 588 q 290 568 339 578 l 171 0 l 8 0 l 149 667 q 343 706 246 694 q 532 718 440 718 m 297 790 l 204 1014 l 342 1014 l 383 878 l 482 1014 l 629 1014 l 440 790 l 297 790 z "},"ŗ":{"ha":476,"x_min":-142,"x_max":532,"o":"m 532 718 l 504 588 q 393 583 447 588 q 290 568 339 578 l 171 0 l 8 0 l 149 667 q 343 706 246 694 q 532 718 440 718 m -14 -64 l 157 -64 l -17 -261 l -142 -261 l -14 -64 z "},"š":{"ha":597,"x_min":-10,"x_max":663,"o":"m 597 696 l 560 571 q 480 586 521 581 q 386 592 439 592 q 285 573 319 592 q 251 519 251 554 q 279 465 251 488 q 349 419 307 442 q 431 369 390 397 q 500 301 472 342 q 528 200 528 261 q 490 78 528 126 q 383 7 453 31 q 218 -17 314 -17 q 92 -5 154 -17 q -10 21 29 7 l 32 146 q 120 123 68 133 q 219 113 172 113 q 324 137 296 113 q 351 196 351 161 q 332 246 351 225 q 282 285 313 267 q 217 323 251 303 q 151 369 182 343 q 101 431 121 394 q 82 518 82 467 q 119 634 82 590 q 226 698 157 678 q 390 718 296 718 q 498 713 446 718 q 597 696 550 707 m 331 790 l 238 1014 l 375 1014 l 417 878 l 515 1014 l 663 1014 l 474 790 l 331 790 z "},"ś":{"ha":597,"x_min":-10,"x_max":640,"o":"m 597 696 l 560 571 q 480 586 521 581 q 386 592 439 592 q 285 573 319 592 q 251 519 251 554 q 279 465 251 488 q 349 419 307 442 q 431 369 390 397 q 500 301 472 342 q 528 200 528 261 q 490 78 528 126 q 383 7 453 31 q 218 -17 314 -17 q 92 -5 154 -17 q -10 21 29 7 l 32 146 q 120 123 68 133 q 219 113 172 113 q 324 137 296 113 q 351 196 351 161 q 332 246 351 225 q 282 285 313 267 q 217 323 251 303 q 151 369 182 343 q 101 431 121 394 q 82 518 82 467 q 119 634 82 590 q 226 698 157 678 q 390 718 296 718 q 498 713 446 718 q 597 696 550 707 m 458 1014 l 640 1014 l 429 790 l 297 790 l 458 1014 z "},"ş":{"ha":597,"x_min":-10,"x_max":597,"o":"m 597 696 l 560 571 q 480 586 521 581 q 386 592 439 592 q 285 573 319 592 q 251 519 251 554 q 279 465 251 488 q 349 419 307 442 q 431 369 390 397 q 500 301 472 342 q 528 200 528 261 q 490 78 528 126 q 383 7 453 31 q 218 -17 314 -17 q 92 -5 154 -17 q -10 21 29 7 l 32 146 q 120 123 68 133 q 219 113 172 113 q 324 137 296 113 q 351 196 351 161 q 332 246 351 225 q 282 285 313 267 q 217 323 251 303 q 151 369 182 343 q 101 431 121 394 q 82 518 82 467 q 119 634 82 590 q 226 698 157 678 q 390 718 296 718 q 498 713 446 718 q 597 696 550 707 m 161 -54 l 275 -54 q 292 -100 286 -74 q 299 -153 299 -126 q 258 -244 299 -210 q 132 -279 218 -279 q 73 -274 103 -279 q 18 -260 43 -269 l 56 -171 q 84 -178 67 -175 q 115 -182 101 -182 q 163 -166 149 -182 q 176 -122 176 -150 q 172 -88 176 -106 q 161 -54 168 -71 z "},"ŝ":{"ha":597,"x_min":-10,"x_max":615,"o":"m 597 696 l 560 571 q 480 586 521 581 q 386 592 439 592 q 285 573 319 592 q 251 519 251 554 q 279 465 251 488 q 349 419 307 442 q 431 369 390 397 q 500 301 472 342 q 528 200 528 261 q 490 78 528 126 q 383 7 453 31 q 218 -17 314 -17 q 92 -5 154 -17 q -10 21 29 7 l 32 146 q 120 123 68 133 q 219 113 172 113 q 324 137 296 113 q 351 196 351 161 q 332 246 351 225 q 282 285 313 267 q 217 323 251 303 q 151 369 182 343 q 101 431 121 394 q 82 518 82 467 q 119 634 82 590 q 226 698 157 678 q 390 718 296 718 q 498 713 446 718 q 597 696 550 707 m 379 1014 l 522 1014 l 615 790 l 478 790 l 436 928 l 338 790 l 190 790 l 379 1014 z "},"ș":{"ha":597,"x_min":-12,"x_max":597,"o":"m 597 696 l 560 571 q 480 586 521 581 q 386 592 439 592 q 285 573 319 592 q 251 519 251 554 q 279 465 251 488 q 349 419 307 442 q 431 369 390 397 q 500 301 472 342 q 528 200 528 261 q 490 78 528 126 q 383 7 453 31 q 218 -17 314 -17 q 92 -5 154 -17 q -10 21 29 7 l 32 146 q 120 123 68 133 q 219 113 172 113 q 324 137 296 113 q 351 196 351 161 q 332 246 351 225 q 282 285 313 267 q 217 323 251 303 q 151 369 182 343 q 101 431 121 394 q 82 518 82 467 q 119 634 82 590 q 226 698 157 678 q 390 718 296 718 q 498 713 446 718 q 597 696 550 707 m 115 -64 l 286 -64 l 113 -261 l -12 -261 l 115 -64 z "},"ţ":{"ha":522,"x_min":-22,"x_max":549,"o":"m 265 858 l 396 858 l 363 701 l 549 701 l 521 574 l 336 574 l 260 211 q 268 140 249 160 q 328 119 288 119 q 381 124 353 119 q 431 135 410 129 l 410 4 q 342 -12 378 -7 q 275 -17 307 -17 q 162 8 208 -17 q 97 82 115 32 q 96 208 79 132 l 172 574 l 72 574 l 100 701 l 200 701 l 265 858 m 106 -64 l 276 -64 l 103 -261 l -22 -261 l 106 -64 z "},"ț":{"ha":522,"x_min":-22,"x_max":549,"o":"m 265 858 l 396 858 l 363 701 l 549 701 l 521 574 l 336 574 l 260 211 q 268 140 249 160 q 328 119 288 119 q 381 124 353 119 q 431 135 410 129 l 410 4 q 342 -12 378 -7 q 275 -17 307 -17 q 162 8 208 -17 q 97 82 115 32 q 96 208 79 132 l 172 574 l 72 574 l 100 701 l 200 701 l 265 858 m 106 -64 l 276 -64 l 103 -261 l -22 -261 l 106 -64 z "},"ŧ":{"ha":522,"x_min":15,"x_max":547,"o":"m 15 315 l 40 428 l 456 428 l 432 315 l 15 315 m 263 858 l 394 858 l 361 701 l 547 701 l 519 574 l 333 574 l 257 211 q 266 140 247 160 q 325 119 285 119 q 379 124 350 119 q 431 135 408 129 l 407 4 q 340 -12 375 -7 q 272 -17 304 -17 q 159 8 206 -17 q 94 82 113 32 q 93 208 76 132 l 171 574 l 71 574 l 97 701 l 199 701 l 263 858 z "},"ť":{"ha":528,"x_min":72,"x_max":699,"o":"m 547 1014 l 699 1014 l 543 778 l 439 778 l 547 1014 m 265 858 l 396 858 l 363 701 l 549 701 l 521 574 l 336 574 l 258 211 q 268 140 249 160 q 326 119 288 119 q 381 124 351 119 q 432 135 410 129 l 410 4 q 342 -12 376 -7 q 275 -17 307 -17 q 162 8 208 -17 q 97 82 115 32 q 96 208 79 132 l 174 574 l 72 574 l 100 701 l 200 701 l 265 858 z "},"ú":{"ha":756,"x_min":36,"x_max":736,"o":"m 714 1 q 611 -17 664 -17 q 526 1 560 -17 q 481 54 492 19 q 394 5 447 26 q 274 -17 340 -17 q 141 12 197 -17 q 60 100 85 40 q 54 251 36 160 l 150 701 l 313 701 l 218 251 q 217 172 207 201 q 251 128 226 142 q 311 115 276 115 q 388 132 351 115 q 451 174 424 149 l 564 701 l 726 701 l 622 207 q 625 140 613 160 q 668 119 638 119 q 700 122 682 119 q 736 131 718 125 l 714 1 m 519 1014 l 701 1014 l 490 790 l 358 790 l 519 1014 z "},"û":{"ha":756,"x_min":36,"x_max":736,"o":"m 714 1 q 611 -17 664 -17 q 526 1 560 -17 q 481 54 492 19 q 394 5 447 26 q 274 -17 340 -17 q 141 12 197 -17 q 60 100 85 40 q 54 251 36 160 l 150 701 l 313 701 l 218 251 q 217 172 207 201 q 251 128 226 142 q 311 115 276 115 q 388 132 351 115 q 451 174 424 149 l 564 701 l 726 701 l 622 207 q 625 140 613 160 q 668 119 638 119 q 700 122 682 119 q 736 131 718 125 l 714 1 m 433 1014 l 576 1014 l 669 790 l 532 790 l 490 928 l 392 790 l 244 790 l 433 1014 z "},"ü":{"ha":756,"x_min":36,"x_max":736,"o":"m 714 1 q 611 -17 664 -17 q 526 1 560 -17 q 481 54 492 19 q 394 5 447 26 q 274 -17 340 -17 q 141 12 197 -17 q 60 100 85 40 q 54 251 36 160 l 150 701 l 313 701 l 218 251 q 217 172 207 201 q 251 128 226 142 q 311 115 276 115 q 388 132 351 115 q 451 174 424 149 l 564 701 l 726 701 l 622 207 q 625 140 613 160 q 668 119 638 119 q 700 122 682 119 q 736 131 718 125 l 714 1 m 388 994 q 438 978 419 994 q 457 931 457 961 q 426 854 457 883 q 351 825 396 825 q 302 842 321 825 q 283 889 283 858 q 313 965 283 936 q 388 994 343 994 m 628 994 q 678 978 660 994 q 696 931 696 961 q 666 854 696 883 q 592 825 636 825 q 542 842 560 825 q 524 889 524 858 q 553 965 524 936 q 628 994 583 994 z "},"ù":{"ha":756,"x_min":36,"x_max":736,"o":"m 714 1 q 611 -17 664 -17 q 526 1 560 -17 q 481 54 492 19 q 394 5 447 26 q 274 -17 340 -17 q 141 12 197 -17 q 60 100 85 40 q 54 251 36 160 l 150 701 l 313 701 l 218 251 q 217 172 207 201 q 251 128 226 142 q 311 115 276 115 q 388 132 351 115 q 451 174 424 149 l 564 701 l 726 701 l 622 207 q 625 140 613 160 q 668 119 638 119 q 700 122 682 119 q 736 131 718 125 l 714 1 m 296 1014 l 469 1014 l 533 790 l 413 790 l 296 1014 z "},"ŭ":{"ha":756,"x_min":36,"x_max":736,"o":"m 714 1 q 611 -17 664 -17 q 526 1 560 -17 q 481 54 492 19 q 394 5 447 26 q 274 -17 340 -17 q 141 12 197 -17 q 60 100 85 40 q 54 251 36 160 l 150 701 l 313 701 l 218 251 q 217 172 207 201 q 251 128 226 142 q 311 115 276 115 q 388 132 351 115 q 451 174 424 149 l 564 701 l 726 701 l 622 207 q 625 140 613 160 q 668 119 638 119 q 700 122 682 119 q 736 131 718 125 l 714 1 m 294 996 l 424 996 q 432 928 415 949 q 485 907 449 907 q 547 928 521 907 q 583 996 572 949 l 713 996 q 629 849 686 892 q 479 806 572 806 q 372 824 418 806 q 305 885 326 843 q 294 996 283 926 z "},"ű":{"ha":756,"x_min":36,"x_max":757,"o":"m 714 1 q 611 -17 664 -17 q 526 1 560 -17 q 481 54 492 19 q 394 5 447 26 q 274 -17 340 -17 q 141 12 197 -17 q 60 100 85 40 q 54 251 36 160 l 150 701 l 313 701 l 218 251 q 217 172 207 201 q 251 128 226 142 q 311 115 276 115 q 388 132 351 115 q 451 174 424 149 l 564 701 l 726 701 l 622 207 q 625 140 613 160 q 668 119 638 119 q 700 122 682 119 q 736 131 718 125 l 714 1 m 401 1014 l 544 1014 l 418 790 l 310 790 l 401 1014 m 603 1014 l 757 1014 l 601 790 l 490 790 l 603 1014 z "},"ū":{"ha":756,"x_min":36,"x_max":736,"o":"m 714 1 q 611 -17 664 -17 q 526 1 560 -17 q 481 54 492 19 q 394 5 447 26 q 274 -17 340 -17 q 141 12 197 -17 q 60 100 85 40 q 54 251 36 160 l 150 701 l 313 701 l 218 251 q 217 172 207 201 q 251 128 226 142 q 311 115 276 115 q 388 132 351 115 q 451 174 424 149 l 564 701 l 726 701 l 622 207 q 625 140 613 160 q 668 119 638 119 q 700 122 682 119 q 736 131 718 125 l 714 1 m 303 942 l 679 942 l 656 832 l 279 832 l 303 942 z "},"ų":{"ha":756,"x_min":36,"x_max":736,"o":"m 714 1 q 662 -12 688 -8 q 610 -17 636 -17 q 525 1 558 -17 q 481 54 492 19 q 394 5 447 26 q 274 -17 340 -17 q 140 12 197 -17 q 60 100 83 40 q 56 251 36 160 l 151 701 l 313 701 l 217 251 q 217 172 207 201 q 251 128 226 142 q 311 115 276 115 q 388 131 351 115 q 451 174 425 147 l 564 701 l 726 701 l 622 207 q 625 140 613 160 q 668 119 638 119 q 701 122 683 119 q 736 131 718 125 l 714 1 m 683 -149 l 679 -237 q 630 -253 657 -247 q 575 -260 603 -260 q 477 -233 510 -260 q 444 -161 444 -207 q 468 -89 444 -122 q 528 -29 492 -56 q 601 15 564 -3 l 714 1 q 650 -37 682 -15 q 597 -83 618 -58 q 575 -131 575 -107 q 586 -156 575 -149 q 615 -162 597 -162 q 648 -159 632 -162 q 683 -149 664 -156 z "},"ů":{"ha":756,"x_min":36,"x_max":736,"o":"m 714 1 q 611 -17 664 -17 q 526 1 560 -17 q 481 54 492 19 q 394 5 447 26 q 274 -17 340 -17 q 141 12 197 -17 q 60 100 85 40 q 54 251 36 160 l 150 701 l 313 701 l 218 251 q 217 172 207 201 q 251 128 226 142 q 311 115 276 115 q 388 132 351 115 q 451 174 424 149 l 564 701 l 726 701 l 622 207 q 625 140 613 160 q 668 119 638 119 q 700 122 682 119 q 736 131 718 125 l 714 1 m 465 853 q 513 871 493 853 q 532 919 532 889 q 520 952 532 943 q 489 961 508 961 q 442 944 461 961 q 422 894 422 926 q 434 862 422 871 q 465 853 446 853 m 493 1038 q 594 1008 554 1038 q 633 921 633 979 q 585 814 633 853 q 461 775 538 775 q 360 805 401 775 q 319 893 319 835 q 368 999 319 961 q 493 1038 417 1038 z "},"ũ":{"ha":756,"x_min":36,"x_max":736,"o":"m 714 1 q 611 -17 664 -17 q 526 1 560 -17 q 481 54 492 19 q 394 5 447 26 q 274 -17 340 -17 q 141 12 197 -17 q 60 100 85 40 q 54 251 36 160 l 150 701 l 313 701 l 218 251 q 217 172 207 201 q 251 128 226 142 q 311 115 276 115 q 388 132 351 115 q 451 174 424 149 l 564 701 l 726 701 l 622 207 q 625 140 613 160 q 668 119 638 119 q 700 122 682 119 q 736 131 718 125 l 714 1 m 336 815 l 235 857 q 295 946 258 908 q 388 983 332 983 q 451 969 422 983 q 503 941 479 956 q 547 926 528 926 q 588 943 575 926 q 615 986 601 960 l 717 946 q 649 852 686 889 q 561 815 613 815 q 499 831 528 815 q 447 861 471 846 q 404 876 424 876 q 363 858 378 876 q 336 815 347 839 z "},"ẃ":{"ha":1049,"x_min":101,"x_max":1086,"o":"m 678 701 l 715 172 q 829 411 776 283 q 928 701 882 539 l 1086 701 q 1007 467 1051 582 q 906 236 963 351 q 778 0 850 121 l 601 0 l 567 529 l 306 0 l 114 0 l 101 701 l 271 701 l 260 176 l 518 701 l 678 701 m 674 1014 l 856 1014 l 644 790 l 513 790 l 674 1014 z "},"ŵ":{"ha":1049,"x_min":101,"x_max":1086,"o":"m 678 701 l 715 172 q 829 411 776 283 q 928 701 882 539 l 1086 701 q 1007 467 1051 582 q 906 236 963 351 q 778 0 850 121 l 601 0 l 567 529 l 306 0 l 114 0 l 101 701 l 271 701 l 260 176 l 518 701 l 678 701 m 594 1014 l 738 1014 l 831 790 l 693 790 l 651 928 l 553 790 l 406 790 l 594 1014 z "},"ẅ":{"ha":1040,"x_min":101,"x_max":1086,"o":"m 678 701 l 715 172 q 829 411 776 283 q 928 701 882 539 l 1086 701 q 1007 467 1051 582 q 906 236 963 351 q 778 0 850 121 l 601 0 l 567 529 l 306 0 l 114 0 l 101 701 l 271 701 l 260 176 l 518 701 l 678 701 m 542 994 q 592 978 574 994 q 611 931 611 961 q 581 854 611 883 q 506 825 550 825 q 456 842 475 825 q 438 889 438 858 q 467 965 438 936 q 542 994 497 994 m 782 994 q 832 978 814 994 q 850 931 850 961 q 820 854 850 883 q 746 825 790 825 q 696 842 714 825 q 678 889 678 858 q 708 965 678 936 q 782 994 738 994 z "},"ẁ":{"ha":1040,"x_min":101,"x_max":1086,"o":"m 678 701 l 715 172 q 829 411 776 283 q 928 701 882 539 l 1086 701 q 1007 467 1051 582 q 906 236 963 351 q 778 0 850 121 l 601 0 l 567 529 l 306 0 l 114 0 l 101 701 l 271 701 l 260 176 l 518 701 l 678 701 m 461 1014 l 635 1014 l 699 790 l 578 790 l 461 1014 z "},"ý":{"ha":736,"x_min":-24,"x_max":726,"o":"m 278 -3 q 143 26 200 -3 q 61 110 86 54 q 54 249 36 165 l 150 701 l 313 701 l 221 265 q 220 185 210 215 q 256 142 231 156 q 315 129 281 129 q 392 145 356 129 q 456 188 428 161 l 564 701 l 726 701 l 576 -7 q 507 -167 556 -108 q 383 -251 458 -226 q 203 -276 307 -276 q 76 -265 139 -276 q -24 -240 14 -254 l 17 -119 q 107 -144 53 -133 q 213 -156 161 -156 q 313 -140 272 -156 q 377 -92 353 -124 q 414 -17 401 -61 l 433 61 l 471 67 q 396 21 444 44 q 278 -3 347 -3 m 515 1014 l 697 1014 l 486 790 l 354 790 l 515 1014 z "},"ÿ":{"ha":736,"x_min":-24,"x_max":726,"o":"m 278 -3 q 143 26 200 -3 q 61 110 86 54 q 54 249 36 165 l 150 701 l 313 701 l 221 265 q 220 185 210 215 q 256 142 231 156 q 315 129 281 129 q 392 145 356 129 q 456 188 428 161 l 564 701 l 726 701 l 576 -7 q 507 -167 556 -108 q 383 -251 458 -226 q 203 -276 307 -276 q 76 -265 139 -276 q -24 -240 14 -254 l 17 -119 q 107 -144 53 -133 q 213 -156 161 -156 q 313 -140 272 -156 q 377 -92 353 -124 q 414 -17 401 -61 l 433 61 l 471 67 q 396 21 444 44 q 278 -3 347 -3 m 379 994 q 430 978 411 994 q 449 931 449 961 q 418 854 449 883 q 343 825 388 825 q 294 842 313 825 q 275 889 275 858 q 305 965 275 936 q 379 994 335 994 m 619 994 q 669 978 651 994 q 688 931 688 961 q 658 854 688 883 q 583 825 628 825 q 533 842 551 825 q 515 889 515 858 q 545 965 515 936 q 619 994 575 994 z "},"ŷ":{"ha":736,"x_min":-24,"x_max":726,"o":"m 278 -3 q 143 26 200 -3 q 61 110 86 54 q 54 249 36 165 l 150 701 l 313 701 l 221 265 q 220 185 210 215 q 256 142 231 156 q 315 129 281 129 q 392 145 356 129 q 456 188 428 161 l 564 701 l 726 701 l 576 -7 q 507 -167 556 -108 q 383 -251 458 -226 q 203 -276 307 -276 q 76 -265 139 -276 q -24 -240 14 -254 l 17 -119 q 107 -144 53 -133 q 213 -156 161 -156 q 313 -140 272 -156 q 377 -92 353 -124 q 414 -17 401 -61 l 433 61 l 471 67 q 396 21 444 44 q 278 -3 347 -3 m 429 1014 l 572 1014 l 665 790 l 528 790 l 486 928 l 388 790 l 240 790 l 429 1014 z "},"ỳ":{"ha":736,"x_min":-24,"x_max":726,"o":"m 278 -3 q 143 26 200 -3 q 61 110 86 54 q 54 249 36 165 l 150 701 l 313 701 l 221 265 q 220 185 210 215 q 256 142 231 156 q 315 129 281 129 q 392 145 356 129 q 456 188 428 161 l 564 701 l 726 701 l 576 -7 q 507 -167 556 -108 q 383 -251 458 -226 q 203 -276 307 -276 q 76 -265 139 -276 q -24 -240 14 -254 l 17 -119 q 107 -144 53 -133 q 213 -156 161 -156 q 313 -140 272 -156 q 377 -92 353 -124 q 414 -17 401 -61 l 433 61 l 471 67 q 396 21 444 44 q 278 -3 347 -3 m 292 1014 l 465 1014 l 529 790 l 408 790 l 292 1014 z "},"ž":{"ha":640,"x_min":-35,"x_max":674,"o":"m 128 701 l 663 701 l 639 588 l 203 128 l 554 128 l 528 0 l -35 0 l -11 114 l 431 574 l 100 574 l 128 701 m 342 790 l 249 1014 l 386 1014 l 428 878 l 526 1014 l 674 1014 l 485 790 l 342 790 z "},"ź":{"ha":640,"x_min":-35,"x_max":663,"o":"m 128 701 l 663 701 l 639 588 l 203 128 l 554 128 l 528 0 l -35 0 l -11 114 l 431 574 l 100 574 l 128 701 m 469 1014 l 651 1014 l 440 790 l 308 790 l 469 1014 z "},"ż":{"ha":640,"x_min":-35,"x_max":663,"o":"m 128 701 l 663 701 l 639 588 l 203 128 l 554 128 l 528 0 l -35 0 l -11 114 l 431 574 l 100 574 l 128 701 m 456 994 q 515 976 493 994 q 538 924 538 957 q 506 845 538 871 q 424 819 475 819 q 363 839 385 819 q 340 892 340 858 q 372 969 340 944 q 456 994 404 994 z "},"´":{"ha":728,"x_min":351,"x_max":694,"o":"m 513 1014 l 694 1014 l 483 790 l 351 790 l 513 1014 z "},"`":{"ha":728,"x_min":300,"x_max":538,"o":"m 300 1014 l 474 1014 l 538 790 l 417 790 l 300 1014 z "},"ˆ":{"ha":728,"x_min":244,"x_max":669,"o":"m 433 1014 l 576 1014 l 669 790 l 532 790 l 490 928 l 392 790 l 244 790 l 433 1014 z "},"ˇ":{"ha":728,"x_min":292,"x_max":717,"o":"m 385 790 l 292 1014 l 429 1014 l 471 878 l 569 1014 l 717 1014 l 528 790 l 385 790 z "},"˜":{"ha":728,"x_min":239,"x_max":721,"o":"m 340 815 l 239 857 q 299 946 263 908 q 392 983 336 983 q 455 969 426 983 q 508 941 483 956 q 551 926 532 926 q 592 943 579 926 q 619 986 606 960 l 721 946 q 653 852 690 889 q 565 815 617 815 q 503 831 532 815 q 451 861 475 846 q 408 876 428 876 q 367 858 382 876 q 340 815 351 839 z "},"¨":{"ha":728,"x_min":276,"x_max":689,"o":"m 381 994 q 431 978 413 994 q 450 931 450 961 q 419 854 450 883 q 344 825 389 825 q 295 842 314 825 q 276 889 276 858 q 306 965 276 936 q 381 994 336 994 m 621 994 q 671 978 653 994 q 689 931 689 961 q 659 854 689 883 q 585 825 629 825 q 535 842 553 825 q 517 889 517 858 q 547 965 517 936 q 621 994 576 994 z "},"˚":{"ha":728,"x_min":324,"x_max":638,"o":"m 469 853 q 517 871 497 853 q 536 919 536 889 q 524 952 536 943 q 493 961 513 961 q 446 944 465 961 q 426 894 426 926 q 438 862 426 871 q 469 853 450 853 m 497 1038 q 598 1008 558 1038 q 638 921 638 979 q 590 814 638 853 q 465 775 542 775 q 365 805 406 775 q 324 893 324 835 q 372 999 324 961 q 497 1038 421 1038 z "},"¸":{"ha":728,"x_min":93,"x_max":374,"o":"m 236 -53 l 350 -53 q 367 -99 361 -72 q 374 -151 374 -125 q 333 -243 374 -208 q 207 -278 293 -278 q 148 -273 178 -278 q 93 -258 118 -268 l 131 -169 q 159 -177 142 -174 q 190 -181 176 -181 q 238 -165 224 -181 q 251 -121 251 -149 q 247 -87 251 -104 q 236 -53 243 -69 z "},"˝":{"ha":728,"x_min":294,"x_max":742,"o":"m 386 1014 l 529 1014 l 403 790 l 294 790 l 386 1014 m 588 1014 l 742 1014 l 586 790 l 475 790 l 588 1014 z "},"˘":{"ha":728,"x_min":281,"x_max":710,"o":"m 292 996 l 421 996 q 429 928 413 949 q 482 907 446 907 q 544 928 518 907 q 581 996 569 949 l 710 996 q 626 849 683 892 q 476 806 569 806 q 369 824 415 806 q 302 885 324 843 q 292 996 281 926 z "},"¯":{"ha":728,"x_min":278,"x_max":678,"o":"m 301 942 l 678 942 l 654 832 l 278 832 l 301 942 z "},"˙":{"ha":728,"x_min":383,"x_max":581,"o":"m 499 994 q 558 976 536 994 q 581 924 581 957 q 549 845 581 871 q 467 819 518 819 q 406 839 428 819 q 383 892 383 858 q 415 969 383 944 q 499 994 447 994 z "},"·":{"ha":421,"x_min":117,"x_max":314,"o":"m 232 463 q 292 444 269 463 q 314 392 314 425 q 283 313 314 339 q 200 288 251 288 q 139 307 161 288 q 117 360 117 326 q 149 438 117 413 q 232 463 181 463 z "},"˛":{"ha":728,"x_min":89,"x_max":358,"o":"m 328 -149 l 324 -237 q 274 -253 301 -247 q 219 -260 247 -260 q 122 -233 156 -260 q 89 -161 89 -207 q 113 -91 89 -124 q 172 -32 136 -58 q 246 13 208 -6 l 358 0 q 294 -38 326 -17 q 242 -83 263 -60 q 221 -131 221 -107 q 231 -156 221 -149 q 261 -162 242 -162 q 293 -159 276 -162 q 328 -149 310 -156 z "},".":{"ha":364,"x_min":21,"x_max":224,"o":"m 142 160 q 202 140 181 160 q 224 88 224 121 q 190 12 224 40 q 103 -17 156 -17 q 42 3 64 -17 q 21 57 21 22 q 56 133 21 106 q 142 160 90 160 z "},",":{"ha":376,"x_min":-74,"x_max":263,"o":"m 88 154 l 263 154 l 49 -207 l -74 -207 l 88 154 z "},":":{"ha":364,"x_min":21,"x_max":343,"o":"m 142 160 q 202 140 181 160 q 224 88 224 121 q 190 12 224 40 q 103 -17 156 -17 q 42 3 64 -17 q 21 57 21 22 q 56 133 21 106 q 142 160 90 160 m 260 718 q 321 699 299 718 q 343 644 343 679 q 309 569 343 597 q 222 542 275 542 q 161 561 183 542 q 139 614 139 581 q 174 690 139 663 q 260 718 208 718 z "},";":{"ha":364,"x_min":-117,"x_max":343,"o":"m 46 154 l 219 154 l 7 -207 l -117 -207 l 46 154 m 260 718 q 321 699 299 718 q 343 644 343 679 q 309 569 343 597 q 222 542 275 542 q 161 561 183 542 q 139 614 139 581 q 174 690 139 663 q 260 718 208 718 z "},"…":{"ha":1104,"x_min":21,"x_max":964,"o":"m 142 160 q 202 140 181 160 q 224 88 224 121 q 190 12 224 40 q 103 -17 156 -17 q 42 3 64 -17 q 21 57 21 22 q 56 133 21 106 q 142 160 90 160 m 511 160 q 573 140 551 160 q 594 88 594 121 q 560 12 594 40 q 474 -17 526 -17 q 413 3 435 -17 q 392 57 392 22 q 426 133 392 106 q 511 160 460 160 m 882 160 q 942 140 921 160 q 964 88 964 121 q 930 12 964 40 q 843 -17 896 -17 q 783 3 804 -17 q 761 57 761 22 q 795 133 761 106 q 882 160 829 160 z "},"?":{"ha":585,"x_min":107,"x_max":632,"o":"m 632 751 q 614 647 632 689 q 566 574 596 604 q 501 518 536 543 q 433 467 467 493 q 375 406 400 440 q 339 321 350 371 l 324 249 l 168 249 l 190 350 q 235 460 204 417 q 302 535 265 504 q 374 593 339 567 q 431 649 408 619 q 453 722 453 679 q 424 785 453 767 q 339 804 394 804 q 245 795 294 804 q 161 776 196 786 l 174 913 q 267 932 214 924 q 375 940 319 940 q 508 921 450 940 q 599 860 565 901 q 632 751 632 818 m 228 160 q 289 140 267 160 q 311 88 311 121 q 277 12 311 40 q 190 -17 243 -17 q 129 3 151 -17 q 107 57 107 22 q 142 133 107 106 q 228 160 176 160 z "},"!":{"ha":399,"x_min":42,"x_max":415,"o":"m 231 924 l 415 924 l 244 250 l 115 250 l 231 924 m 163 160 q 223 140 201 160 q 244 88 244 121 q 210 12 244 40 q 124 -17 176 -17 q 63 3 85 -17 q 42 57 42 22 q 76 133 42 106 q 163 160 111 160 z "},"¿":{"ha":546,"x_min":-56,"x_max":469,"o":"m -56 -50 q -37 55 -56 13 q 10 128 -19 97 q 75 183 40 158 q 143 235 110 208 q 201 295 176 261 q 238 379 226 329 l 254 453 l 410 453 l 386 350 q 342 241 372 285 q 274 166 311 197 q 203 108 238 135 q 146 52 168 82 q 124 -21 124 22 q 153 -84 124 -64 q 239 -104 183 -104 q 332 -94 283 -104 q 415 -75 381 -85 l 404 -211 q 313 -231 365 -222 q 203 -239 260 -239 q 69 -219 128 -239 q -22 -158 11 -200 q -56 -50 -56 -117 m 349 542 q 288 561 310 542 q 267 614 267 581 q 301 690 267 663 q 388 718 336 718 q 448 699 426 718 q 469 644 469 679 q 435 569 469 597 q 349 542 401 542 z "},"¡":{"ha":399,"x_min":-14,"x_max":360,"o":"m 171 -224 l -14 -224 l 156 451 l 285 451 l 171 -224 m 239 542 q 178 561 200 542 q 157 614 157 581 q 192 690 157 663 q 278 718 226 718 q 338 699 317 718 q 360 644 360 679 q 326 569 360 597 q 239 542 292 542 z "},"(":{"ha":475,"x_min":96,"x_max":593,"o":"m 157 -251 q 111 -68 126 -165 q 96 128 96 29 q 116 361 96 246 q 176 588 136 476 q 274 806 215 699 q 413 1014 333 913 l 593 1014 q 413 725 486 875 q 303 422 340 575 q 265 115 265 268 q 280 -72 265 21 q 324 -251 294 -164 l 157 -251 z "},")":{"ha":475,"x_min":-106,"x_max":392,"o":"m 331 1014 q 376 831 361 928 q 392 635 392 735 q 372 401 392 517 q 313 175 353 286 q 214 -43 274 64 q 75 -251 154 -150 l -106 -251 q 76 38 3 -111 q 185 342 149 188 q 222 647 222 496 q 208 834 222 742 q 164 1014 193 926 l 331 1014 z "},"{":{"ha":501,"x_min":29,"x_max":619,"o":"m 44 307 l 76 461 q 149 478 125 463 q 183 540 174 494 q 196 629 192 579 q 206 732 200 679 q 221 833 211 785 q 304 983 242 935 q 489 1031 367 1031 q 569 1027 533 1031 q 619 1021 606 1024 l 582 889 q 542 894 568 892 q 497 897 515 897 q 418 875 444 897 q 381 800 392 853 q 367 709 372 760 q 358 608 363 658 q 346 518 354 558 q 299 420 332 453 q 210 372 267 388 q 269 339 250 361 q 289 276 289 317 q 275 198 289 244 q 244 101 261 151 q 213 6 226 51 q 199 -71 199 -39 q 217 -117 199 -103 q 278 -131 236 -131 q 325 -127 297 -131 q 367 -122 353 -124 l 350 -253 q 303 -260 336 -257 q 231 -264 271 -264 q 79 -226 129 -264 q 29 -110 29 -187 q 43 -18 29 -69 q 75 85 57 33 q 107 183 93 138 q 121 258 121 229 q 103 296 121 286 q 44 307 85 306 z "},"}":{"ha":501,"x_min":-103,"x_max":488,"o":"m 471 461 l 439 307 q 367 290 390 306 q 333 226 344 274 q 322 138 326 188 q 311 35 317 88 q 296 -65 306 -17 q 212 -215 274 -167 q 26 -264 150 -264 q -53 -260 -17 -264 q -103 -253 -89 -256 l -67 -122 q -25 -127 -51 -124 q 19 -131 1 -131 q 99 -108 72 -131 q 135 -33 125 -85 q 148 58 143 8 q 158 159 153 108 q 171 250 163 210 q 219 348 186 315 q 307 394 251 381 q 248 429 268 406 q 228 492 228 453 q 241 569 228 524 q 272 665 254 615 q 303 761 290 715 q 317 839 317 807 q 299 885 317 871 q 239 899 281 899 q 192 895 221 899 q 149 889 164 892 l 167 1021 q 214 1027 182 1024 q 286 1031 246 1031 q 438 993 389 1031 q 488 878 488 956 q 474 785 488 836 q 442 682 460 735 q 410 584 424 629 q 396 508 396 539 q 414 473 396 482 q 471 461 432 464 z "},"[":{"ha":461,"x_min":1,"x_max":575,"o":"m 271 1014 l 575 1014 l 544 872 l 404 872 l 196 -108 l 336 -108 l 306 -251 l 1 -251 l 271 1014 z "},"]":{"ha":461,"x_min":-101,"x_max":472,"o":"m 472 1014 l 203 -251 l -101 -251 l -71 -108 l 69 -108 l 278 872 l 138 872 l 168 1014 l 472 1014 z "},"/":{"ha":633,"x_min":-101,"x_max":771,"o":"m 596 1014 l 771 1014 l 76 -74 l -101 -74 l 596 1014 z "},"\\":{"ha":633,"x_min":143,"x_max":553,"o":"m 143 1014 l 310 1014 l 553 -74 l 388 -74 l 143 1014 z "},"_":{"ha":943,"x_min":-36,"x_max":793,"o":"m -12 -32 l 793 -32 l 768 -146 l -36 -146 l -12 -32 z "},"-":{"ha":524,"x_min":69,"x_max":464,"o":"m 99 442 l 464 442 l 435 306 l 69 306 l 99 442 z "},"­":{"ha":0,"x_min":0,"x_max":0,"o":""},"–":{"ha":788,"x_min":69,"x_max":726,"o":"m 99 442 l 726 442 l 697 306 l 69 306 l 99 442 z "},"—":{"ha":1069,"x_min":69,"x_max":1010,"o":"m 99 442 l 1010 442 l 981 306 l 69 306 l 99 442 z "},"¦":{"ha":422,"x_min":-6,"x_max":456,"o":"m 290 1111 l 456 1111 l 336 554 l 172 554 l 290 1111 m 114 279 l 278 279 l 160 -278 l -6 -278 l 114 279 z "},"|":{"ha":422,"x_min":-6,"x_max":456,"o":"m 290 1111 l 456 1111 l 160 -278 l -6 -278 l 290 1111 z "},"«":{"ha":829,"x_min":68,"x_max":842,"o":"m 319 656 l 506 656 l 244 364 l 372 97 l 201 97 l 68 376 l 319 656 m 656 656 l 842 656 l 581 364 l 707 97 l 538 97 l 403 376 l 656 656 z "},"»":{"ha":829,"x_min":-3,"x_max":772,"o":"m 519 97 l 333 97 l 594 389 l 468 656 l 638 656 l 772 376 l 519 97 m 183 97 l -3 97 l 260 389 l 132 656 l 301 656 l 436 376 l 183 97 z "},"‹":{"ha":492,"x_min":67,"x_max":506,"o":"m 319 656 l 506 656 l 244 364 l 372 97 l 201 97 l 67 376 l 319 656 z "},"›":{"ha":492,"x_min":-3,"x_max":436,"o":"m 183 97 l -3 97 l 260 389 l 132 656 l 301 656 l 436 376 l 183 97 z "},"‚":{"ha":332,"x_min":-101,"x_max":235,"o":"m 61 154 l 235 154 l 22 -207 l -101 -207 l 61 154 z "},"„":{"ha":588,"x_min":-110,"x_max":493,"o":"m 53 154 l 226 154 l 14 -207 l -110 -207 l 53 154 m 319 154 l 493 154 l 279 -207 l 157 -207 l 319 154 z "},"‘":{"ha":343,"x_min":101,"x_max":438,"o":"m 275 564 l 101 564 l 315 924 l 438 924 l 275 564 z "},"“":{"ha":606,"x_min":99,"x_max":703,"o":"m 540 564 l 365 564 l 578 924 l 703 924 l 540 564 m 274 564 l 99 564 l 311 924 l 435 924 l 274 564 z "},"’":{"ha":343,"x_min":74,"x_max":410,"o":"m 235 924 l 410 924 l 196 564 l 74 564 l 235 924 z "},"”":{"ha":606,"x_min":71,"x_max":674,"o":"m 232 924 l 408 924 l 193 564 l 71 564 l 232 924 m 500 924 l 674 924 l 461 564 l 338 564 l 500 924 z "},"'":{"ha":324,"x_min":150,"x_max":369,"o":"m 197 924 l 369 924 l 261 563 l 150 563 l 197 924 z "},"\"":{"ha":564,"x_min":143,"x_max":619,"o":"m 189 924 l 361 924 l 254 563 l 143 563 l 189 924 m 447 924 l 619 924 l 511 563 l 400 563 l 447 924 z "},"•":{"ha":510,"x_min":93,"x_max":422,"o":"m 289 524 q 386 494 350 524 q 422 408 422 464 q 365 274 422 319 q 226 229 308 229 q 129 259 165 229 q 93 344 93 289 q 150 478 93 433 q 289 524 207 524 z "},"№":{"ha":1442,"x_min":36,"x_max":1461,"o":"m 1010 390 l 1353 390 l 1328 275 l 986 275 l 1010 390 m 232 924 l 367 924 l 728 403 l 838 924 l 1004 924 l 808 0 l 642 0 l 681 181 l 342 671 l 200 0 l 36 0 l 232 924 m 1285 931 q 1417 887 1372 931 q 1461 761 1461 843 q 1447 655 1461 711 q 1403 549 1433 599 q 1324 469 1374 500 q 1204 439 1275 439 q 1072 482 1117 439 q 1028 607 1028 525 q 1042 715 1028 658 q 1085 820 1056 771 q 1165 900 1115 869 q 1285 931 1214 931 m 1217 554 q 1272 575 1250 554 q 1308 626 1294 596 q 1328 690 1322 657 q 1333 749 1333 724 q 1272 815 1333 815 q 1216 794 1239 815 q 1180 742 1193 774 q 1160 678 1167 711 q 1154 619 1154 644 q 1217 554 1154 554 z "},"&":{"ha":911,"x_min":22,"x_max":850,"o":"m 422 581 l 803 0 l 601 0 l 275 518 q 230 606 249 561 q 211 697 211 650 q 243 826 211 772 q 338 910 275 881 q 490 940 400 940 q 655 894 594 940 q 715 769 715 849 q 687 657 715 706 q 612 570 658 608 q 510 499 565 532 q 399 436 454 467 q 297 372 343 406 q 222 299 250 339 q 193 206 193 258 q 226 129 193 156 q 315 103 258 103 q 426 128 369 103 q 535 201 482 154 q 635 309 589 247 q 717 442 682 371 l 850 414 q 738 225 803 306 q 596 91 672 144 q 440 11 519 38 q 286 -15 361 -15 q 93 40 164 -15 q 22 197 22 94 q 51 325 22 271 q 128 419 81 379 q 234 491 176 460 q 349 551 292 522 q 453 609 406 579 q 531 676 501 639 q 560 763 560 713 q 537 816 560 799 q 479 833 514 833 q 426 819 451 833 q 384 778 400 806 q 368 713 368 751 q 384 646 368 676 q 422 581 400 615 z "},"¶":{"ha":914,"x_min":104,"x_max":935,"o":"m 814 924 l 935 924 l 692 -219 l 571 -219 l 814 924 m 389 314 q 175 372 246 314 q 104 542 104 429 q 210 825 104 726 q 518 924 317 924 l 699 924 l 456 -219 l 336 -219 l 450 315 q 426 315 440 315 q 389 314 413 314 z "},"†":{"ha":601,"x_min":89,"x_max":629,"o":"m 339 924 l 504 924 l 454 688 l 629 688 l 603 560 l 426 560 l 351 206 l 186 206 l 261 560 l 89 560 l 115 688 l 289 688 l 339 924 z "},"‡":{"ha":628,"x_min":63,"x_max":657,"o":"m 142 754 l 317 754 l 353 924 l 517 924 l 481 754 l 657 754 l 631 626 l 453 626 l 428 508 l 606 508 l 578 381 l 400 381 l 364 206 l 200 206 l 238 381 l 63 381 l 90 508 l 264 508 l 289 626 l 115 626 l 142 754 z "},"§":{"ha":699,"x_min":-87,"x_max":729,"o":"m 61 344 q 104 482 61 428 q 215 558 147 536 q 173 617 189 583 q 157 694 157 651 q 197 831 157 776 q 316 912 238 885 q 510 939 394 939 q 627 933 568 939 q 729 918 686 926 l 689 786 q 624 797 658 793 q 554 804 589 801 q 488 807 519 807 q 364 782 408 807 q 319 704 319 757 q 342 645 319 671 q 401 597 365 619 q 478 550 438 574 q 556 497 519 526 q 615 427 592 467 q 638 333 638 388 q 587 187 638 244 q 467 106 536 129 q 495 45 485 79 q 506 -29 506 11 q 468 -162 506 -107 q 358 -246 431 -217 q 182 -275 286 -275 q 28 -262 99 -275 q -87 -235 -42 -249 l -44 -110 q 59 -136 -4 -124 q 188 -149 122 -149 q 299 -121 257 -149 q 342 -32 342 -93 q 322 36 342 7 q 269 90 301 65 q 201 138 238 114 q 133 191 165 163 q 81 256 101 219 q 61 344 61 293 m 217 371 q 233 319 217 343 q 276 276 250 296 q 332 235 303 256 q 386 193 361 215 q 456 237 429 208 q 482 310 482 265 q 457 377 482 350 q 396 426 432 404 q 324 474 360 449 q 269 457 293 471 q 231 422 244 443 q 217 371 217 400 z "},"*":{"ha":576,"x_min":117,"x_max":619,"o":"m 176 829 l 332 763 l 342 924 l 479 924 l 419 763 l 601 829 l 619 725 l 431 690 l 535 571 l 429 494 l 358 639 l 226 494 l 138 571 l 293 690 l 117 725 l 176 829 z "},"™":{"ha":958,"x_min":140,"x_max":1017,"o":"m 160 924 l 524 924 l 504 832 l 383 832 l 315 508 l 193 508 l 261 832 l 140 832 l 160 924 m 767 596 l 685 596 l 656 761 l 601 508 l 496 508 l 583 924 l 706 924 l 750 710 l 886 924 l 1017 924 l 928 508 l 821 508 l 875 761 l 767 596 z "},"®":{"ha":851,"x_min":96,"x_max":857,"o":"m 456 721 l 432 607 q 451 604 440 606 q 472 603 461 603 q 513 609 494 603 q 544 629 532 615 q 558 668 556 643 q 547 710 563 700 q 500 721 532 721 l 456 721 m 379 789 l 529 789 q 627 757 594 789 q 650 667 660 725 q 619 599 644 622 q 557 564 593 575 q 588 537 581 554 q 599 494 596 519 l 613 396 l 521 396 l 510 483 q 494 524 506 511 q 454 536 482 536 q 430 537 440 536 q 417 539 419 538 l 388 396 l 296 396 l 379 789 m 417 292 q 613 338 531 292 q 738 463 694 383 q 782 644 782 543 q 719 813 782 754 q 536 871 656 871 q 340 825 422 871 q 215 700 258 779 q 171 519 171 621 q 233 351 171 410 q 417 292 296 292 m 538 938 q 772 859 688 938 q 857 643 857 781 q 803 432 857 526 q 649 281 749 338 q 414 225 550 225 q 181 304 265 225 q 96 521 96 383 q 150 732 96 638 q 303 882 204 826 q 538 938 403 938 z "},"©":{"ha":1010,"x_min":69,"x_max":989,"o":"m 739 714 l 706 615 q 667 622 692 618 q 610 626 643 626 q 526 604 560 626 q 474 547 493 582 q 446 472 454 511 q 438 397 438 432 q 464 322 438 346 q 540 299 490 299 q 603 303 576 299 q 649 314 629 308 l 636 217 q 581 203 618 210 q 500 196 544 196 q 399 215 444 196 q 328 277 354 235 q 303 386 303 319 q 318 504 303 444 q 369 614 333 564 q 465 695 404 664 q 618 726 526 726 q 690 722 658 726 q 739 714 722 718 m 601 940 q 802 899 715 940 q 939 772 889 857 q 989 558 989 688 q 973 416 989 493 q 920 263 957 339 q 822 124 883 188 q 670 24 760 61 q 458 -14 581 -14 q 256 28 344 -14 q 119 154 168 69 q 69 368 69 239 q 85 510 69 433 q 138 663 101 588 q 237 802 175 739 q 389 903 299 865 q 601 940 479 940 m 463 61 q 638 92 563 61 q 765 176 713 124 q 849 294 817 229 q 897 428 882 360 q 911 558 911 496 q 872 735 911 667 q 763 834 833 803 q 597 865 692 865 q 421 834 496 865 q 294 750 346 803 q 209 632 242 697 q 162 498 176 567 q 147 367 147 429 q 186 192 147 260 q 297 92 225 124 q 463 61 368 61 z "},"@":{"ha":1179,"x_min":40,"x_max":1138,"o":"m 690 458 q 655 464 674 461 q 619 467 636 467 q 554 444 582 467 q 509 385 526 421 q 483 306 492 349 q 475 226 475 264 q 494 165 475 181 q 543 150 513 150 q 592 156 569 150 q 633 172 615 163 q 633 182 633 178 q 635 192 633 186 q 638 212 636 201 q 642 233 640 222 l 690 458 m 506 -154 q 678 -144 593 -154 q 832 -117 764 -133 l 825 -210 q 678 -240 763 -228 q 496 -253 594 -253 q 301 -221 386 -253 q 158 -131 215 -189 q 70 8 100 -72 q 40 188 40 89 q 64 376 40 281 q 136 560 88 472 q 262 718 185 649 q 446 828 339 788 q 692 869 553 869 q 952 819 854 869 q 1094 685 1050 769 q 1138 497 1138 601 q 1125 365 1138 432 q 1087 237 1113 297 q 1024 129 1061 176 q 939 54 988 82 q 831 26 890 26 q 727 46 763 26 q 678 88 692 65 q 599 48 647 65 q 494 31 551 31 q 379 76 428 31 q 331 224 331 121 q 347 344 331 282 q 399 460 363 407 q 493 547 435 514 q 635 581 551 581 q 745 569 688 581 q 849 542 803 557 l 783 238 q 781 215 782 225 q 779 194 779 204 q 794 147 779 164 q 844 131 810 131 q 934 181 893 131 q 1000 315 975 231 q 1025 500 1025 399 q 990 648 1025 586 q 880 743 956 710 q 683 776 804 776 q 497 748 578 776 q 358 671 417 719 q 260 561 300 622 q 197 434 221 500 q 163 305 174 368 q 153 189 153 242 q 176 40 153 104 q 246 -68 200 -25 q 357 -133 292 -111 q 506 -154 422 -154 z "},"ª":{"ha":449,"x_min":101,"x_max":504,"o":"m 331 589 l 350 679 q 326 684 340 682 q 296 686 311 686 q 236 670 258 686 q 214 618 214 654 q 229 589 214 597 q 267 581 244 581 q 299 583 282 581 q 331 589 317 585 m 185 826 l 193 921 q 260 935 225 929 q 339 940 296 940 q 463 901 422 940 q 486 779 504 861 l 431 524 q 349 503 399 513 q 243 493 300 493 q 140 519 179 493 q 101 604 101 546 q 153 726 101 688 q 297 764 206 764 q 336 762 318 764 q 365 757 354 760 l 372 786 q 372 821 378 808 q 352 838 367 833 q 314 843 338 843 q 245 839 276 843 q 185 826 214 835 z "},"º":{"ha":497,"x_min":119,"x_max":535,"o":"m 369 940 q 491 901 447 940 q 535 781 535 863 q 522 681 535 731 q 479 588 508 631 q 403 520 450 546 q 286 494 356 494 q 164 533 208 494 q 119 653 119 572 q 133 753 119 703 q 175 847 146 804 q 252 915 204 889 q 369 940 300 940 m 303 600 q 356 617 335 600 q 390 660 378 633 q 409 716 403 686 q 415 772 415 746 q 398 822 415 808 q 353 835 381 835 q 300 818 322 835 q 265 775 278 801 q 245 719 251 749 q 239 663 239 689 q 256 613 239 626 q 303 600 274 600 z "},"#":{"ha":958,"x_min":15,"x_max":990,"o":"m 429 924 l 597 924 l 504 685 l 683 685 l 775 924 l 943 924 l 850 685 l 990 685 l 935 550 l 796 550 l 726 368 l 865 368 l 810 233 l 671 233 l 581 0 l 414 0 l 504 233 l 324 233 l 235 0 l 68 0 l 158 233 l 15 233 l 71 368 l 211 368 l 282 550 l 140 550 l 196 685 l 336 685 l 429 924 m 449 550 l 379 368 l 558 368 l 628 550 l 449 550 z "},"€":{"ha":810,"x_min":46,"x_max":879,"o":"m 88 510 l 700 510 l 753 610 l 108 610 l 88 510 m 46 317 l 625 317 l 678 417 l 68 417 l 46 317 m 879 914 q 788 931 840 922 q 667 940 736 940 q 442 890 538 940 q 284 751 347 839 q 190 547 221 663 q 160 301 160 432 q 240 65 160 147 q 478 -17 321 -17 q 593 -7 535 -17 q 694 18 651 3 l 710 163 q 617 142 671 153 q 510 131 564 131 q 377 172 414 131 q 340 303 340 214 q 360 494 340 406 q 421 651 381 583 q 522 756 461 718 q 663 794 582 794 q 763 786 718 794 q 844 768 808 778 l 879 914 z "},"$":{"ha":715,"x_min":8,"x_max":731,"o":"m 558 928 l 432 931 l 454 1036 l 582 1036 l 558 928 m 247 -11 l 376 -3 l 350 -126 l 222 -126 l 247 -11 m 731 917 l 689 779 q 600 794 650 788 q 504 801 550 801 q 360 772 407 801 q 313 693 313 743 q 336 625 313 656 q 398 567 360 594 q 478 511 436 540 q 558 447 519 482 q 619 365 596 411 q 643 257 643 319 q 599 100 643 160 q 476 12 556 40 q 286 -17 396 -17 q 131 -3 200 -17 q 8 29 63 11 l 51 165 q 163 135 107 147 q 290 122 218 122 q 424 154 385 122 q 464 239 464 186 q 440 312 464 279 q 378 374 417 344 q 299 433 340 403 q 219 499 257 464 q 157 580 181 535 q 133 685 133 625 q 180 829 133 772 q 310 913 226 886 q 503 940 393 940 q 624 934 564 940 q 731 917 683 928 z "},"¥":{"ha":860,"x_min":86,"x_max":942,"o":"m 289 583 l 324 485 l 126 485 l 147 583 l 289 583 m 942 924 l 550 390 l 782 390 l 761 292 l 517 292 l 456 0 l 279 0 l 340 292 l 86 292 l 107 390 l 349 390 l 156 924 l 346 924 l 468 510 l 760 924 l 942 924 m 607 485 l 681 583 l 821 583 l 800 485 l 607 485 z "},"£":{"ha":775,"x_min":-21,"x_max":843,"o":"m 164 313 l 194 410 l 71 410 l 97 539 l 233 539 l 276 679 q 359 842 310 786 q 476 919 408 899 q 628 940 543 940 q 740 935 685 940 q 843 918 794 929 l 800 781 q 715 796 760 789 q 629 803 669 803 q 551 791 583 803 q 495 751 518 779 q 456 672 472 724 l 414 539 l 700 539 l 672 410 l 372 410 l 342 307 q 310 232 328 265 q 270 175 293 199 q 217 136 247 151 l 663 136 l 636 0 l -21 0 l 1 117 q 76 155 47 133 q 124 214 104 176 q 164 313 143 251 z "},"¢":{"ha":636,"x_min":78,"x_max":668,"o":"m 539 819 l 411 819 l 450 997 l 578 997 l 539 819 m 268 115 l 394 106 l 357 -72 l 228 -72 l 268 115 m 668 810 l 624 683 q 556 697 590 692 q 483 701 521 701 q 378 675 424 701 q 301 602 332 649 q 256 496 271 556 q 240 368 240 436 q 273 262 240 296 q 389 228 306 228 q 464 233 425 228 q 540 247 503 239 l 528 121 q 447 104 489 110 q 360 99 404 99 q 148 163 218 99 q 78 365 78 226 q 105 549 78 464 q 185 697 132 633 q 313 797 238 761 q 486 833 389 833 q 579 828 533 833 q 668 810 625 822 z "},"₡":{"ha":756,"x_min":33,"x_max":810,"o":"m 457 1072 l 585 1072 l 504 851 l 378 851 l 457 1072 m 682 1072 l 810 1072 l 735 864 l 607 864 l 682 1072 m 444 54 l 385 -110 l 258 -110 l 318 54 l 444 54 m 263 171 l 160 -110 l 33 -110 l 138 176 l 263 171 m 804 914 l 768 769 q 685 789 732 781 q 582 797 639 797 q 438 759 500 797 q 335 653 376 721 q 274 495 294 585 q 253 303 253 406 q 292 170 253 213 q 429 128 331 128 q 539 139 485 128 q 635 160 593 150 l 618 18 q 516 -7 575 3 q 399 -17 457 -17 q 156 65 238 -17 q 74 301 74 147 q 105 547 74 432 q 199 751 136 663 q 359 890 263 839 q 586 940 456 940 q 711 931 657 940 q 804 914 765 922 z "},"₮":{"ha":849,"x_min":111,"x_max":926,"o":"m 174 540 l 781 656 l 760 550 l 153 435 l 174 540 m 131 336 l 739 451 l 718 346 l 111 231 l 131 336 m 167 924 l 926 924 l 897 786 l 603 786 l 436 0 l 267 0 l 433 786 l 138 786 l 167 924 z "},"₴":{"ha":782,"x_min":51,"x_max":768,"o":"m 90 508 l 110 607 l 768 607 l 749 508 l 90 508 m 51 315 l 71 414 l 729 414 l 710 315 l 51 315 m 251 917 q 354 932 299 925 q 474 939 410 939 q 686 894 607 939 q 765 754 765 849 q 735 635 765 686 q 656 543 706 583 q 549 468 607 503 q 433 400 490 433 q 329 331 375 367 q 272 271 294 304 q 250 199 250 238 q 281 145 250 161 q 371 129 313 129 q 509 142 444 129 q 640 172 574 154 l 626 29 q 496 -3 565 11 q 338 -17 426 -17 q 140 34 207 -17 q 72 178 72 85 q 110 322 72 263 q 209 425 149 382 q 337 503 269 468 q 463 574 404 538 q 549 644 514 606 q 585 726 585 683 q 551 778 585 763 q 444 794 517 794 q 340 788 397 794 q 236 772 282 781 l 251 917 z "},"₺":{"ha":801,"x_min":36,"x_max":743,"o":"m 100 582 l 667 696 l 646 589 l 79 475 l 100 582 m 58 381 l 625 496 l 604 388 l 36 274 l 58 381 m 460 0 l 88 0 l 283 924 l 457 924 l 292 149 l 461 149 q 552 175 526 149 q 590 253 578 201 l 597 288 l 743 288 l 732 236 q 645 58 706 117 q 460 0 585 0 z "},"₹":{"ha":760,"x_min":68,"x_max":832,"o":"m 761 582 l 118 582 l 138 681 l 782 681 l 761 582 m 813 825 l 168 825 l 189 924 l 832 924 l 813 825 m 397 0 l 299 182 q 247 267 269 235 q 203 317 225 300 q 153 340 181 333 q 88 346 126 346 l 275 386 q 330 366 307 379 q 372 333 353 353 q 408 285 390 313 q 449 219 426 257 l 578 0 l 397 0 m 672 686 q 637 536 672 597 q 545 438 601 475 q 424 385 489 401 q 303 367 360 368 l 240 346 l 68 346 l 97 488 l 283 488 q 442 533 389 488 q 496 681 496 579 q 460 753 496 731 q 350 776 424 776 l 160 776 l 181 881 l 368 881 q 594 836 517 881 q 672 686 672 792 z "},"₫":{"ha":811,"x_min":-26,"x_max":913,"o":"m -4 -90 l 601 -90 l 578 -197 l -26 -197 l -4 -90 m 403 810 l 425 915 l 913 915 l 890 810 l 403 810 m 281 -17 q 158 10 213 -17 q 72 95 104 36 q 40 249 40 154 q 89 490 40 383 q 229 657 138 596 q 450 718 321 718 q 512 714 481 718 q 574 701 543 710 l 640 1014 l 806 1014 l 635 210 q 629 168 629 188 q 643 130 629 140 q 682 119 657 119 q 713 122 696 119 q 749 131 731 125 l 726 1 q 674 -12 700 -7 q 622 -17 649 -17 q 538 2 571 -17 q 492 58 504 21 q 403 7 457 31 q 281 -17 350 -17 m 547 567 q 495 581 524 576 q 439 586 467 586 q 313 541 367 586 q 231 421 260 496 q 203 253 203 346 q 233 148 203 181 q 315 115 263 115 q 393 131 354 115 q 463 171 432 147 l 547 567 z "},"₩":{"ha":1356,"x_min":57,"x_max":1357,"o":"m 97 513 l 118 611 l 294 611 l 276 513 l 97 513 m 57 319 l 78 418 l 296 418 l 278 319 l 57 319 m 1129 513 l 1149 611 l 1349 611 l 1328 513 l 1129 513 m 1065 319 l 1089 418 l 1308 418 l 1288 319 l 1065 319 m 397 0 l 228 0 l 210 924 l 382 924 l 378 226 l 675 749 l 822 749 l 897 218 q 1053 540 979 365 q 1193 924 1126 714 l 1357 924 q 1265 667 1313 789 q 1167 432 1218 544 q 1059 213 1115 319 q 940 0 1003 106 l 783 0 l 713 556 l 397 0 z "},"₪":{"ha":925,"x_min":10,"x_max":921,"o":"m 164 0 l 10 0 l 151 667 q 274 701 203 685 q 421 718 344 718 q 560 695 501 718 q 643 615 618 672 q 647 458 668 558 l 604 258 l 482 258 l 524 454 q 522 530 535 503 q 477 568 508 557 q 401 579 446 579 q 341 574 375 579 q 283 561 307 568 l 164 0 m 454 443 l 389 140 q 444 128 411 133 q 504 122 478 122 q 578 133 544 122 q 636 172 613 144 q 671 247 660 199 l 767 700 l 921 700 l 819 213 q 758 78 801 128 q 649 6 715 28 q 490 -17 582 -17 q 398 -8 444 -17 q 313 12 351 0 q 246 35 274 24 l 332 443 l 454 443 z "},"₭":{"ha":956,"x_min":64,"x_max":1017,"o":"m 64 443 l 85 543 l 257 543 l 236 443 l 64 443 m 451 446 l 497 543 l 901 543 l 881 446 l 451 446 m 281 924 l 454 924 l 360 478 l 817 924 l 1017 924 l 611 531 q 692 485 660 515 q 745 401 724 456 q 781 260 767 347 l 821 0 l 640 0 l 608 214 q 582 329 599 288 q 540 390 565 371 q 474 413 514 408 l 314 264 l 258 0 l 85 0 l 281 924 z "},"₱":{"ha":951,"x_min":81,"x_max":992,"o":"m 121 674 l 142 772 l 338 772 l 317 674 l 121 674 m 81 481 l 100 581 l 297 581 l 278 481 l 81 481 m 772 674 l 793 772 l 992 772 l 971 674 l 772 674 m 729 481 l 750 581 l 950 581 l 931 481 l 729 481 m 426 786 l 360 472 q 420 465 389 467 q 482 463 451 463 q 574 476 535 463 q 641 517 614 490 q 682 581 668 543 q 696 664 696 618 q 678 739 696 713 q 628 776 661 765 q 544 786 594 786 l 426 786 m 285 924 l 564 924 q 731 900 663 924 q 834 822 799 876 q 869 672 869 767 q 822 490 869 569 q 688 367 775 411 q 476 322 600 322 q 405 325 440 322 q 331 333 369 328 l 258 0 l 85 0 l 285 924 z "},"₵":{"ha":779,"x_min":75,"x_max":806,"o":"m 635 857 l 510 857 l 549 1036 l 674 1036 l 635 857 m 343 76 l 468 76 l 425 -126 l 300 -126 l 343 76 m 806 914 l 769 769 q 687 789 733 781 q 583 797 640 797 q 440 759 501 797 q 337 653 378 721 q 275 495 296 585 q 254 303 254 406 q 293 170 254 213 q 431 128 332 128 q 541 139 486 128 q 636 160 596 150 l 621 18 q 518 -7 578 3 q 400 -17 458 -17 q 157 65 239 -17 q 75 301 75 147 q 106 547 75 432 q 201 751 138 663 q 360 890 264 839 q 588 940 457 940 q 713 931 658 940 q 806 914 767 922 z "},"₸":{"ha":842,"x_min":92,"x_max":906,"o":"m 122 660 l 850 660 l 819 513 l 542 513 l 433 0 l 260 0 l 369 513 l 92 513 l 122 660 m 875 775 l 147 775 l 178 924 l 906 924 l 875 775 z "},"₼":{"ha":868,"x_min":-6,"x_max":824,"o":"m 499 718 q 704 674 631 718 q 801 553 778 631 q 801 372 824 475 l 718 -17 l 543 -17 l 626 378 q 629 482 640 439 q 582 548 618 525 q 482 571 546 571 q 372 548 418 571 q 296 482 325 525 q 253 378 267 439 l 169 -17 l -6 -17 l 83 399 q 151 569 104 497 q 282 679 197 640 q 499 718 367 718 m 493 924 l 621 924 l 569 686 l 561 646 l 454 139 l 326 139 l 433 644 l 440 679 l 493 924 z "},"₽":{"ha":843,"x_min":11,"x_max":858,"o":"m 275 468 l 246 338 l 51 338 l 81 468 l 275 468 m 500 244 l 481 146 l 11 146 l 31 244 l 500 244 m 428 775 l 363 467 l 467 467 q 628 526 574 467 q 682 681 682 585 q 645 753 682 732 q 535 775 608 775 l 428 775 m 285 924 l 556 924 q 781 869 703 924 q 858 688 858 815 q 809 494 858 572 q 674 376 760 415 q 475 338 588 338 l 335 338 l 264 0 l 89 0 l 285 924 z "},"¤":{"ha":663,"x_min":3,"x_max":701,"o":"m 567 751 l 701 751 l 557 589 l 439 607 l 567 751 m 257 751 l 324 607 l 208 586 l 131 751 l 257 751 m 449 149 l 382 293 l 503 300 l 574 149 l 449 149 m 139 149 l 3 149 l 154 322 l 267 293 l 139 149 m 390 682 q 535 640 485 682 q 585 507 585 597 q 569 399 585 451 q 522 306 554 347 q 439 242 490 265 q 314 218 388 218 q 169 261 219 218 q 118 393 118 304 q 133 501 118 449 q 181 594 149 553 q 266 658 214 635 q 390 682 318 682 m 328 333 q 395 356 368 333 q 436 416 422 379 q 450 493 450 453 q 431 551 450 535 q 376 567 413 567 q 308 544 336 567 q 267 484 281 521 q 253 407 253 447 q 272 349 253 365 q 328 333 292 333 z "},"°":{"ha":510,"x_min":108,"x_max":554,"o":"m 307 594 q 374 620 349 594 q 410 685 399 646 q 421 761 421 724 q 406 809 421 792 q 356 826 392 826 q 290 801 315 826 q 253 736 265 775 q 242 660 242 697 q 257 612 242 629 q 307 594 272 594 m 368 939 q 507 892 460 939 q 554 767 554 844 q 541 669 554 719 q 497 577 528 619 q 417 508 467 535 q 294 482 368 482 q 156 529 203 482 q 108 654 108 576 q 122 751 108 701 q 165 844 135 801 q 246 913 196 886 q 368 939 296 939 z "},"%":{"ha":1136,"x_min":119,"x_max":1065,"o":"m 899 924 l 1043 924 l 285 0 l 140 0 l 899 924 m 303 451 q 170 494 221 451 q 119 625 119 536 q 133 733 119 678 q 178 835 147 789 q 259 910 208 882 q 383 939 310 939 q 516 897 465 939 q 567 765 567 856 q 553 657 567 713 q 508 555 539 601 q 427 480 478 508 q 303 451 376 451 m 313 551 q 370 572 346 551 q 410 624 394 592 q 434 694 426 657 q 442 763 442 731 q 424 822 442 806 q 374 839 406 839 q 316 819 340 839 q 276 766 292 799 q 252 697 260 733 q 244 628 244 660 q 262 568 244 585 q 313 551 279 551 m 801 -17 q 669 26 721 -17 q 618 157 618 68 q 632 266 618 211 q 676 368 646 321 q 758 444 707 415 q 882 472 808 472 q 1015 430 964 472 q 1065 299 1065 388 q 1051 190 1065 244 q 1007 88 1038 135 q 926 12 976 40 q 801 -17 875 -17 m 811 85 q 869 105 844 85 q 909 158 893 125 q 933 227 925 190 q 940 296 940 264 q 923 354 940 338 q 872 371 906 371 q 815 351 839 371 q 774 298 790 331 q 751 228 758 265 q 743 160 743 192 q 761 101 743 118 q 811 85 779 85 z "},"‰":{"ha":1640,"x_min":119,"x_max":1567,"o":"m 1383 472 q 1516 430 1465 472 q 1567 299 1567 388 q 1553 190 1567 244 q 1508 88 1539 135 q 1427 12 1478 40 q 1303 -17 1376 -17 q 1171 26 1222 -17 q 1119 157 1119 68 q 1133 266 1119 211 q 1178 368 1147 321 q 1259 444 1208 415 q 1383 472 1310 472 m 899 924 l 1043 924 l 285 0 l 140 0 l 899 924 m 303 451 q 170 494 221 451 q 119 625 119 536 q 133 733 119 678 q 178 835 147 789 q 259 910 208 882 q 383 939 310 939 q 516 897 465 939 q 567 765 567 856 q 553 657 567 713 q 508 555 539 601 q 427 480 478 508 q 303 451 376 451 m 313 551 q 370 572 346 551 q 410 624 394 592 q 434 694 426 657 q 442 763 442 731 q 424 822 442 806 q 374 839 406 839 q 316 819 340 839 q 276 766 292 799 q 252 697 260 733 q 244 628 244 660 q 262 568 244 585 q 313 551 279 551 m 801 -17 q 669 26 721 -17 q 618 157 618 68 q 632 266 618 211 q 676 368 646 321 q 758 444 707 415 q 882 472 808 472 q 1015 430 964 472 q 1065 299 1065 388 q 1051 190 1065 244 q 1007 88 1038 135 q 926 12 976 40 q 801 -17 875 -17 m 811 85 q 869 105 844 85 q 909 158 893 125 q 933 227 925 190 q 940 296 940 264 q 923 354 940 338 q 872 371 906 371 q 815 351 839 371 q 774 298 790 331 q 751 228 758 265 q 743 160 743 192 q 761 101 743 118 q 811 85 779 85 m 1313 85 q 1370 105 1346 85 q 1410 158 1394 125 q 1434 227 1426 190 q 1442 296 1442 264 q 1424 354 1442 338 q 1374 371 1407 371 q 1316 351 1340 371 q 1276 298 1292 331 q 1252 228 1260 265 q 1244 160 1244 192 q 1263 101 1244 118 q 1313 85 1281 85 z "},"⁄":{"ha":319,"x_min":-269,"x_max":638,"o":"m 488 924 l 638 924 l -119 0 l -269 0 l 488 924 z "},"½":{"ha":983,"x_min":11,"x_max":967,"o":"m 133 894 l 269 928 l 365 928 l 264 449 l 147 449 l 226 818 l 111 789 l 133 894 m 768 924 l 918 924 l 161 0 l 11 0 l 768 924 m 668 375 l 679 474 q 737 485 703 481 q 808 490 771 490 q 924 462 882 490 q 967 375 967 433 q 951 302 967 336 q 901 233 935 268 q 813 154 867 197 l 746 100 l 917 100 l 896 0 l 565 0 l 585 94 l 707 194 q 795 272 767 243 q 833 319 824 300 q 843 353 843 338 q 825 382 843 374 q 779 390 807 390 q 719 385 751 390 q 668 375 688 381 z "},"¼":{"ha":944,"x_min":11,"x_max":918,"o":"m 133 894 l 269 928 l 365 928 l 264 449 l 147 449 l 226 818 l 111 789 l 133 894 m 768 924 l 918 924 l 161 0 l 11 0 l 768 924 m 783 479 l 911 479 l 846 176 l 900 176 l 882 86 l 828 86 l 810 0 l 700 0 l 718 86 l 493 86 l 510 169 l 783 479 m 617 160 l 560 176 l 738 176 l 790 424 l 829 406 l 617 160 z "},"¾":{"ha":1043,"x_min":50,"x_max":1017,"o":"m 153 928 l 453 928 l 433 836 l 307 725 l 314 724 q 379 693 350 718 q 408 618 408 668 q 383 524 408 565 q 312 460 358 483 q 197 438 265 438 q 116 444 156 438 q 50 460 76 451 l 76 551 q 135 538 104 544 q 196 532 165 532 q 265 551 239 532 q 292 606 292 571 q 271 640 292 631 q 218 650 250 650 l 164 650 l 181 724 l 294 831 l 132 831 l 153 928 m 867 924 l 1017 924 l 260 0 l 110 0 l 867 924 m 882 479 l 1010 479 l 944 176 l 999 176 l 981 86 l 926 86 l 908 0 l 799 0 l 817 86 l 592 86 l 608 169 l 882 479 m 715 160 l 658 176 l 836 176 l 889 424 l 928 406 l 715 160 z "},"+":{"ha":719,"x_min":50,"x_max":710,"o":"m 78 508 l 317 508 l 364 729 l 515 729 l 469 508 l 710 508 l 682 379 l 442 379 l 394 157 l 242 157 l 289 379 l 50 379 l 78 508 z "},"−":{"ha":719,"x_min":50,"x_max":710,"o":"m 78 508 l 710 508 l 682 378 l 50 378 l 78 508 z "},"×":{"ha":633,"x_min":19,"x_max":654,"o":"m 100 636 l 471 160 l 574 251 l 203 729 l 100 636 m 19 251 l 106 160 l 654 636 l 569 729 l 19 251 z "},"÷":{"ha":719,"x_min":50,"x_max":710,"o":"m 78 508 l 710 508 l 682 378 l 50 378 l 78 508 m 346 275 q 406 256 385 275 q 428 201 428 236 q 394 126 428 154 q 307 99 360 99 q 247 118 268 99 q 225 171 225 138 q 259 247 225 219 q 346 275 293 275 m 453 778 q 513 758 492 778 q 535 706 535 739 q 501 630 535 658 q 414 601 467 601 q 353 622 375 601 q 332 675 332 642 q 366 751 332 724 q 453 778 400 778 z "},"=":{"ha":747,"x_min":33,"x_max":753,"o":"m 121 647 l 753 647 l 725 518 l 93 518 l 121 647 m 61 368 l 694 368 l 667 238 l 33 238 l 61 368 z "},"¬":{"ha":740,"x_min":81,"x_max":740,"o":"m 108 657 l 740 657 l 654 251 l 511 251 l 569 526 l 81 526 l 108 657 z "},"~":{"ha":744,"x_min":44,"x_max":742,"o":"m 636 547 l 742 496 q 685 408 714 447 q 619 348 656 369 q 526 326 582 326 q 451 343 489 326 q 377 381 413 360 q 310 417 342 401 q 251 433 278 433 q 197 409 217 433 q 151 340 178 385 l 44 390 q 98 476 71 438 q 160 538 125 515 q 249 561 196 561 q 324 545 285 561 q 401 508 363 529 q 473 470 439 486 q 535 454 507 454 q 590 479 569 454 q 636 547 610 504 z "},"<":{"ha":735,"x_min":50,"x_max":758,"o":"m 50 378 l 76 507 l 758 739 l 725 593 l 176 413 l 196 457 l 658 279 l 632 146 l 50 378 z "},">":{"ha":735,"x_min":17,"x_max":725,"o":"m 725 507 l 697 378 l 17 146 l 49 292 l 597 472 l 579 428 l 115 606 l 143 739 l 725 507 z "},"±":{"ha":743,"x_min":-19,"x_max":724,"o":"m 8 131 l 642 131 l 614 0 l -19 0 l 8 131 m 92 519 l 331 519 l 375 729 l 528 729 l 483 519 l 724 519 l 696 389 l 456 389 l 415 196 l 263 196 l 303 389 l 64 389 l 92 519 z "},"^":{"ha":661,"x_min":63,"x_max":664,"o":"m 382 924 l 524 924 l 664 501 l 518 501 l 414 840 l 472 849 l 222 501 l 63 501 l 382 924 z "},"≠":{"ha":747,"x_min":33,"x_max":753,"o":"m 61 368 l 694 368 l 667 238 l 33 238 l 61 368 m 121 647 l 753 647 l 725 518 l 93 518 l 121 647 m 565 804 l 711 804 l 221 82 l 75 82 l 565 804 z "},"≈":{"ha":760,"x_min":22,"x_max":776,"o":"m 614 410 l 719 358 q 663 271 692 310 q 597 210 633 232 q 504 188 560 188 q 429 205 467 189 q 356 242 392 221 q 288 278 319 263 q 229 294 256 294 q 175 271 194 294 q 129 203 156 247 l 22 253 q 76 338 49 300 q 138 399 103 376 q 226 422 174 422 q 301 406 263 422 q 378 369 340 390 q 451 331 417 347 q 513 315 485 315 q 567 341 547 315 q 614 410 588 367 m 671 675 l 776 625 q 719 538 749 576 q 653 476 690 499 q 561 454 615 454 q 486 472 524 456 q 413 508 449 488 q 344 545 376 529 q 286 561 313 561 q 232 538 251 561 q 186 469 213 514 l 79 519 q 133 605 106 567 q 195 666 160 643 q 283 689 231 689 q 358 673 319 689 q 435 635 397 657 q 508 598 474 614 q 569 582 542 582 q 624 607 604 582 q 671 675 644 632 z "},"≤":{"ha":758,"x_min":-19,"x_max":769,"o":"m 642 131 l 614 0 l -19 0 l 8 131 l 642 131 m 61 378 l 89 507 l 769 739 l 738 593 l 188 413 l 207 457 l 669 279 l 643 146 l 61 378 z "},"≥":{"ha":758,"x_min":-4,"x_max":735,"o":"m 24 131 l 657 131 l 629 0 l -4 0 l 24 131 m 735 507 l 707 378 l 26 146 l 60 292 l 608 472 l 590 428 l 126 606 l 153 739 l 735 507 z "},"∞":{"ha":903,"x_min":50,"x_max":893,"o":"m 407 444 q 350 512 375 488 q 286 536 325 536 q 214 505 246 536 q 182 421 182 474 q 200 367 182 385 q 247 350 218 350 q 321 374 286 350 q 407 444 356 399 m 486 539 q 569 601 531 576 q 647 640 607 626 q 732 653 686 653 q 849 608 804 653 q 893 476 893 564 q 862 349 893 403 q 777 265 831 294 q 657 235 724 235 q 574 249 607 235 q 513 288 540 263 q 457 347 486 313 q 375 285 414 311 q 297 247 336 260 q 213 233 258 233 q 95 278 140 233 q 50 411 50 324 q 82 539 50 485 q 168 623 114 593 q 288 653 222 653 q 371 639 338 653 q 431 599 404 625 q 486 539 458 574 m 538 443 q 594 376 569 400 q 657 351 618 351 q 730 382 697 351 q 763 467 763 413 q 744 520 763 503 q 697 538 725 538 q 624 513 658 538 q 538 443 589 489 z "},"◊":{"ha":711,"x_min":43,"x_max":715,"o":"m 221 0 l 43 463 l 418 925 l 539 925 l 715 463 l 343 0 l 221 0 m 307 153 l 558 474 l 453 774 l 203 451 l 307 153 z "},"√":{"ha":796,"x_min":72,"x_max":974,"o":"m 96 700 l 354 700 l 401 143 l 811 924 l 974 924 l 471 0 l 275 0 l 201 594 l 72 594 l 96 700 z "},"∫":{"ha":332,"x_min":-201,"x_max":546,"o":"m -201 -274 l -175 -142 l -162 -142 q -87 -130 -121 -142 q -28 -88 -53 -118 q 7 -4 -4 -58 l 168 758 q 237 922 190 863 q 351 1004 283 981 q 503 1028 418 1028 l 546 1028 l 518 897 l 506 897 q 431 885 465 897 q 373 843 397 874 q 338 758 349 813 l 175 -4 q 107 -167 154 -108 q -8 -250 60 -226 q -158 -274 -75 -274 l -201 -274 z "},"∂":{"ha":750,"x_min":11,"x_max":779,"o":"m 229 -15 q 69 43 128 -15 q 11 194 11 101 q 35 327 11 263 q 106 443 58 392 q 224 525 153 494 q 392 556 296 556 q 513 540 458 556 q 599 506 568 525 l 546 390 q 474 422 517 410 q 379 435 431 435 q 288 414 328 435 q 221 359 249 393 q 178 285 193 325 q 164 206 164 244 q 188 140 164 164 q 254 115 211 115 q 353 148 306 115 q 443 235 401 181 q 518 354 485 289 q 576 486 551 419 q 613 610 600 553 q 626 704 626 667 q 594 785 626 763 q 501 808 563 808 q 395 798 446 808 q 294 771 344 788 l 307 899 q 415 928 361 917 q 533 940 468 940 q 665 919 610 940 q 749 849 719 897 q 779 721 779 801 q 763 592 779 667 q 717 434 747 517 q 640 272 686 351 q 532 127 593 192 q 395 24 471 63 q 229 -15 319 -15 z "},"∏":{"ha":953,"x_min":71,"x_max":1033,"o":"m 164 924 l 1033 924 l 1003 779 l 899 779 l 733 0 l 560 0 l 725 779 l 411 779 l 246 0 l 71 0 l 236 779 l 133 779 l 164 924 z "},"∑":{"ha":747,"x_min":-18,"x_max":794,"o":"m 364 786 l 576 471 l 243 140 l 653 140 l 624 0 l -18 0 l 10 133 l 361 482 l 150 792 l 178 924 l 794 924 l 764 786 l 364 786 z "},"π":{"ha":832,"x_min":69,"x_max":882,"o":"m 99 700 l 882 700 l 853 563 l 725 563 l 606 0 l 440 0 l 560 563 l 363 563 l 243 0 l 78 0 l 197 563 l 69 563 l 99 700 z "},"Δ":{"ha":832,"x_min":-36,"x_max":719,"o":"m -36 0 l 447 925 l 628 925 l 719 0 l -36 0 m 556 68 l 492 850 l 565 843 l 169 65 l 114 139 l 644 139 l 556 68 z "},"Ω":{"ha":938,"x_min":-10,"x_max":904,"o":"m 581 940 q 818 867 732 940 q 904 636 904 793 q 871 424 904 522 q 784 252 838 325 q 669 139 731 179 l 829 139 l 799 0 l 447 0 l 476 139 q 607 242 549 174 q 699 410 665 311 q 733 632 733 508 q 690 760 733 722 q 564 797 647 797 q 445 768 496 797 q 360 690 394 739 q 304 583 325 642 q 274 462 283 524 q 264 346 264 400 q 276 257 264 294 q 313 191 289 219 q 371 139 338 163 l 342 0 l -10 0 l 19 139 l 200 139 q 129 233 160 176 q 99 381 99 290 q 116 535 99 456 q 170 686 133 614 q 264 816 207 758 q 399 907 321 874 q 581 940 478 940 z "},"ℓ":{"ha":563,"x_min":31,"x_max":614,"o":"m 224 282 l 211 224 q 210 159 203 182 q 235 128 217 136 q 275 119 253 119 q 341 126 307 119 q 406 139 375 132 l 382 10 q 300 -10 338 -4 q 221 -17 263 -17 q 112 13 157 -17 q 49 98 67 42 q 47 235 31 154 l 139 667 q 199 824 160 764 q 294 913 239 885 q 415 940 350 940 q 558 892 503 940 q 614 742 614 844 q 581 585 614 656 q 493 457 549 514 q 368 357 438 400 q 224 282 299 314 m 250 407 q 360 497 313 444 q 435 609 408 550 q 461 724 461 668 q 447 781 461 763 q 407 800 433 800 q 344 759 369 800 q 303 649 318 718 l 250 407 z "},"µ":{"ha":735,"x_min":-49,"x_max":729,"o":"m 564 700 l 729 700 l 588 35 q 504 10 553 22 q 402 -9 456 -1 q 294 -17 349 -17 q 162 8 222 -17 q 81 94 101 33 q 59 153 71 119 q 56 226 47 186 l 156 700 l 321 700 l 219 225 q 222 156 211 181 q 260 122 233 132 q 325 113 288 113 q 387 118 353 113 q 443 131 421 124 l 564 700 m 110 -261 l -49 -261 l 57 232 l 214 232 l 110 -261 z "},"ſ":{"ha":375,"x_min":51,"x_max":658,"o":"m 385 776 l 221 0 l 51 0 l 172 574 l 71 574 l 97 700 l 199 700 l 215 776 q 326 971 246 917 q 521 1025 406 1025 q 592 1022 554 1025 q 658 1013 631 1019 l 615 886 q 571 892 594 890 q 524 894 547 894 q 436 870 472 894 q 385 776 400 846 z "},"ƒ":{"ha":674,"x_min":51,"x_max":788,"o":"m 78 583 l 236 583 l 258 690 q 378 885 290 831 q 596 940 465 940 q 697 933 644 940 q 788 918 749 926 l 746 792 q 675 804 711 799 q 600 810 639 810 q 489 785 535 810 q 428 690 443 760 l 406 583 l 694 583 l 668 456 l 379 456 l 282 0 l 113 0 l 210 456 l 51 456 l 78 583 z "},"ﬁ":{"ha":790,"x_min":51,"x_max":817,"o":"m 97 700 l 199 700 l 213 761 q 340 969 244 910 q 576 1028 436 1028 q 656 1024 613 1028 q 743 1016 700 1021 q 817 1004 786 1011 l 775 876 q 676 892 728 886 q 581 897 625 897 q 451 869 504 897 q 382 761 399 840 l 368 700 l 783 700 l 635 0 l 471 0 l 592 574 l 342 574 l 221 0 l 51 0 l 172 574 l 71 574 l 97 700 z "},"ﬂ":{"ha":793,"x_min":51,"x_max":849,"o":"m 97 700 l 199 700 l 213 761 q 340 969 244 910 q 576 1028 436 1028 q 667 1024 617 1028 q 765 1013 717 1019 q 849 999 814 1007 l 807 872 q 692 890 751 883 q 581 897 632 897 q 451 869 504 897 q 382 761 399 840 l 368 700 l 504 700 l 478 574 l 342 574 l 221 0 l 51 0 l 172 574 l 71 574 l 97 700 m 685 999 l 849 999 l 638 0 l 472 0 l 685 999 z "},"⁰":{"ha":456,"x_min":139,"x_max":556,"o":"m 389 1089 q 556 921 556 1089 q 544 818 556 875 q 506 709 533 761 q 430 623 479 657 q 306 589 381 589 q 139 757 139 589 q 150 860 139 803 q 188 969 161 917 q 265 1055 215 1021 q 389 1089 314 1089 m 315 689 q 376 715 353 689 q 414 778 400 740 q 433 855 428 817 q 439 918 439 893 q 379 989 439 989 q 317 963 342 989 q 279 899 293 938 q 260 823 265 861 q 254 760 254 785 q 315 689 254 689 z "},"¹":{"ha":282,"x_min":158,"x_max":413,"o":"m 181 1044 l 317 1078 l 413 1078 l 311 599 l 194 599 l 274 968 l 158 939 l 181 1044 z "},"²":{"ha":385,"x_min":93,"x_max":494,"o":"m 196 974 l 207 1072 q 265 1084 231 1079 q 336 1089 299 1089 q 452 1060 410 1089 q 494 974 494 1032 q 478 901 494 935 q 428 831 463 867 q 340 753 394 796 l 274 699 l 444 699 l 424 599 l 93 599 l 113 693 l 235 793 q 323 870 294 842 q 361 917 351 899 q 371 951 371 936 q 353 981 371 972 q 307 989 335 989 q 247 984 279 989 q 196 974 215 979 z "},"³":{"ha":379,"x_min":97,"x_max":500,"o":"m 200 1078 l 500 1078 l 481 986 l 354 875 l 361 874 q 426 843 397 868 q 456 768 456 818 q 431 674 456 715 q 359 610 406 633 q 244 588 313 588 q 163 594 203 588 q 97 610 124 601 l 124 701 q 182 688 151 694 q 243 682 213 682 q 313 701 286 682 q 339 756 339 721 q 318 790 339 781 q 265 800 297 800 l 211 800 l 228 874 l 342 981 l 179 981 l 200 1078 z "},"⁴":{"ha":428,"x_min":106,"x_max":524,"o":"m 396 1078 l 524 1078 l 458 775 l 513 775 l 494 685 l 440 685 l 422 599 l 313 599 l 331 685 l 106 685 l 122 768 l 396 1078 m 229 758 l 172 775 l 350 775 l 403 1022 l 442 1004 l 229 758 z "},"⁵":{"ha":379,"x_min":103,"x_max":494,"o":"m 458 774 q 401 639 458 690 q 246 588 343 588 q 171 593 207 588 q 103 607 135 599 l 131 700 q 189 686 160 692 q 246 681 218 681 q 316 701 292 681 q 340 760 340 722 q 322 796 340 786 q 267 806 303 806 q 229 803 254 806 q 168 796 204 800 l 156 817 l 231 1078 l 494 1078 l 475 981 l 301 981 l 275 892 q 290 893 279 892 q 311 894 301 894 q 418 867 378 894 q 458 774 458 839 z "},"⁶":{"ha":414,"x_min":135,"x_max":524,"o":"m 238 789 l 254 876 q 304 894 276 886 q 360 901 332 901 q 460 870 425 901 q 496 779 496 839 q 473 685 496 729 q 405 615 450 642 q 293 588 360 588 q 177 630 219 588 q 135 761 135 672 q 150 876 135 818 q 199 981 165 933 q 284 1059 232 1029 q 410 1089 336 1089 q 469 1085 438 1089 q 524 1076 501 1082 l 496 983 q 447 992 474 989 q 404 994 421 994 q 329 973 360 994 q 281 917 299 951 q 254 841 263 882 q 246 763 246 800 q 260 701 246 721 q 307 681 274 681 q 368 706 347 681 q 389 765 389 731 q 326 814 389 814 q 281 807 306 814 q 238 789 257 800 z "},"⁷":{"ha":365,"x_min":103,"x_max":518,"o":"m 190 1078 l 518 1078 l 499 990 l 229 599 l 103 599 l 365 976 l 168 976 l 190 1078 z "},"⁸":{"ha":426,"x_min":121,"x_max":532,"o":"m 326 807 q 258 781 279 807 q 236 719 236 754 q 297 672 236 672 q 362 697 338 672 q 386 760 386 722 q 326 807 386 807 m 439 840 q 481 808 465 829 q 496 758 496 788 q 473 674 496 714 q 403 611 450 635 q 286 588 357 588 q 163 619 206 588 q 121 708 121 651 q 147 794 121 754 q 225 850 172 833 q 192 879 204 860 q 179 925 179 899 q 200 1001 179 964 q 266 1064 221 1039 q 381 1089 311 1089 q 494 1059 456 1089 q 532 981 532 1029 q 506 893 532 931 q 439 840 481 856 m 368 1006 q 311 984 331 1006 q 292 926 292 963 q 342 883 292 883 q 398 907 378 883 q 418 967 418 931 q 368 1006 418 1006 z "},"⁹":{"ha":414,"x_min":129,"x_max":518,"o":"m 415 888 l 399 800 q 349 783 376 790 q 293 775 321 775 q 193 806 229 775 q 157 897 157 838 q 180 992 157 949 q 248 1062 203 1035 q 360 1089 293 1089 q 476 1047 433 1089 q 518 915 518 1004 q 503 801 518 860 q 454 695 488 743 q 369 617 421 647 q 243 588 317 588 q 183 591 215 588 q 129 600 151 594 l 157 693 q 206 685 181 688 q 249 682 232 682 q 324 703 293 682 q 372 760 354 725 q 399 835 390 794 q 407 914 407 875 q 393 975 407 956 q 346 994 379 994 q 285 971 306 994 q 264 911 264 947 q 326 863 264 863 q 372 869 347 863 q 415 888 397 876 z "},"←":{"ha":908,"x_min":38,"x_max":864,"o":"m 346 683 l 54 388 q 38 348 38 371 q 54 308 38 325 l 343 22 l 440 125 l 178 358 l 178 340 l 444 581 l 346 683 m 167 288 l 864 288 l 864 419 l 167 419 l 167 288 z "},"↑":{"ha":725,"x_min":36,"x_max":692,"o":"m 36 518 l 135 417 l 375 683 l 357 683 l 593 419 l 692 521 l 407 810 q 369 828 390 828 q 331 810 347 828 l 36 518 m 428 694 l 299 694 l 299 0 l 428 0 l 428 694 z "},"→":{"ha":910,"x_min":46,"x_max":871,"o":"m 564 683 l 465 581 l 732 340 l 732 358 l 468 125 l 567 22 l 856 308 q 871 348 871 325 q 856 388 871 371 l 564 683 m 743 288 l 743 419 l 46 419 l 46 288 l 743 288 z "},"↓":{"ha":722,"x_min":31,"x_max":688,"o":"m 31 292 l 325 0 q 364 -17 342 -17 q 403 0 386 -17 l 688 289 l 588 390 l 353 128 l 371 128 l 129 393 l 31 292 m 422 115 l 422 810 l 294 810 l 294 115 l 422 115 z "},"↔":{"ha":1190,"x_min":38,"x_max":1151,"o":"m 346 683 l 54 388 q 38 348 38 371 q 54 308 38 325 l 343 22 l 440 125 l 178 358 l 178 340 l 444 581 l 346 683 m 167 288 l 804 288 l 804 419 l 167 419 l 167 288 m 843 683 l 744 581 l 1013 340 l 1013 358 l 749 125 l 847 22 l 1135 308 q 1151 348 1151 325 q 1135 388 1151 371 l 843 683 m 1022 288 l 1022 419 l 386 419 l 386 288 l 1022 288 z "},"↕":{"ha":739,"x_min":40,"x_max":697,"o":"m 40 297 l 335 6 q 373 -12 351 -12 q 411 6 394 -12 l 697 294 l 597 396 l 363 132 l 381 132 l 139 399 l 40 297 m 432 121 l 432 689 l 303 689 l 303 121 l 432 121 m 40 704 l 139 603 l 381 869 l 363 869 l 597 607 l 697 708 l 411 997 q 373 1014 394 1014 q 335 997 351 1014 l 40 704 m 432 881 l 303 881 l 303 313 l 432 313 l 432 881 z "},"↖":{"ha":744,"x_min":71,"x_max":714,"o":"m 71 200 l 210 200 l 192 560 l 179 547 l 532 525 l 533 669 l 128 672 q 88 656 104 672 q 72 617 72 640 l 71 200 m 131 511 l 622 19 l 714 114 l 221 604 l 131 511 z "},"↗":{"ha":744,"x_min":32,"x_max":675,"o":"m 675 200 l 672 617 q 657 656 672 640 q 618 672 642 672 l 213 669 l 214 525 l 565 547 l 553 560 l 535 200 l 675 200 m 615 511 l 524 604 l 32 114 l 122 19 l 615 511 z "},"↘":{"ha":747,"x_min":33,"x_max":676,"o":"m 676 535 l 536 535 l 554 175 l 568 188 l 215 210 l 214 65 l 619 63 q 658 78 643 63 q 674 118 674 94 l 676 535 m 617 224 l 124 715 l 33 621 l 525 131 l 617 224 z "},"↙":{"ha":747,"x_min":71,"x_max":714,"o":"m 71 535 l 74 118 q 90 78 74 94 q 128 63 106 63 l 533 65 l 532 210 l 181 188 l 193 175 l 211 535 l 71 535 m 131 224 l 222 131 l 714 621 l 624 715 l 131 224 z "},"℮":{"ha":1003,"x_min":83,"x_max":933,"o":"m 933 357 l 244 357 q 239 353 239 357 l 239 144 q 249 119 239 132 q 365 38 297 68 q 510 8 433 8 q 663 42 593 8 q 783 133 733 76 l 844 133 q 699 26 788 67 q 508 -15 611 -15 q 344 15 421 -15 q 208 97 267 44 q 117 218 150 149 q 83 367 83 288 q 117 516 83 446 q 208 639 150 586 q 344 722 267 692 q 508 751 421 751 q 673 722 596 751 q 808 639 750 692 q 900 516 867 586 q 933 367 933 446 l 933 357 m 778 383 l 778 593 q 767 619 778 608 q 652 699 718 669 q 510 728 586 728 q 366 698 433 728 q 250 615 299 668 q 239 589 239 607 l 239 383 q 244 378 239 378 l 774 378 q 778 383 778 378 z "}}}
